<svg xmlns="http://www.w3.org/2000/svg" width="16.925" height="21.055" viewBox="0 0 16.925 21.055">
  <g id="a83680840ff9419b834d6b20f3dd3c58" transform="translate(-106.1 -10)">
    <path id="Path_21254" data-name="Path 21254" d="M167.2,316v13.054a1.426,1.426,0,0,0,1.427,1.427h11.488a1.426,1.426,0,0,0,1.427-1.427V316Zm3.9,11.823h-1.285V318.55H171.1v9.273Zm2.591,0H172.4V318.55h1.285v9.273Zm2.6,0h-1.285V318.55h1.285v9.273Zm2.593,0H177.6V318.55h1.285v9.273Z" transform="translate(-59.787 -299.426)" fill="#2d7567"/>
    <path id="Path_21255" data-name="Path 21255" d="M121.6,12.625H119.3v-1.2A1.426,1.426,0,0,0,117.876,10h-6.233a1.426,1.426,0,0,0-1.427,1.427v1.2h-2.688a1.428,1.428,0,0,0-1.429,1.427v1.167h16.925V14.052A1.428,1.428,0,0,0,121.6,12.625ZM118,12.634H111.5V11.326H118v1.308Z" transform="translate(0)" fill="#2d7567"/>
  </g>
</svg>
