<svg id="home" xmlns="http://www.w3.org/2000/svg" width="17.545" height="17.545" viewBox="0 0 17.545 17.545">
  <g id="Action">
    <g id="_-Round-_-Action-_-home" data-name="-Round-/-Action-/-home">
      <g id="Group_19164" data-name="Group 19164">
        <path id="Path" d="M0,0H17.545V17.545H0Z" fill="none" fill-rule="evenodd"/>
        <path id="_Icon-Color" data-name="🔹Icon-Color" d="M8.064,14.79V11.134h2.924V14.79a.733.733,0,0,0,.731.731h2.193a.733.733,0,0,0,.731-.731V9.672h1.243a.363.363,0,0,0,.241-.636l-6.112-5.5a.737.737,0,0,0-.98,0l-6.112,5.5a.364.364,0,0,0,.241.636H4.409V14.79a.733.733,0,0,0,.731.731H7.333A.733.733,0,0,0,8.064,14.79Z" transform="translate(-0.754 -0.9)" fill="#2d7567" fill-rule="evenodd"/>
      </g>
    </g>
  </g>
</svg>
