<svg xmlns="http://www.w3.org/2000/svg" width="52.46" height="47" viewBox="0 0 52.46 47">
  <g id="a7c356bb1bbb4b7cc39f570e612d6c80" transform="translate(-10 -61)">
    <path id="Path_21256" data-name="Path 21256" d="M169.486,101.03V98.364a3.726,3.726,0,0,0,2.189-3.485V69.131c0-3.287-1.585-5.942-5.465-5.942h-31.7a3.738,3.738,0,0,0-3.806,2.189H127.7A5.633,5.633,0,0,1,133.6,61h34.158c3.678,0,6.1,3.565,6.1,7.232V94.74a6.656,6.656,0,0,1-4.373,6.29Z" transform="translate(-111.399 0)" fill="#2d7567"/>
    <path id="Path_21257" data-name="Path 21257" d="M49.04,223.942H16.1c-3.678,0-6.1-3.565-6.1-7.232V188.992c0-3.667,2.88-5.492,6.558-5.492h33.88c3.672,0,5.465,2.891,5.465,6.558V217.38a6.762,6.762,0,0,1-6.863,6.563Zm4.679-32.788c0-3.287-1.065-5.465-4.373-5.465H17.65c-3.308,0-5.465,1.087-5.465,4.373v26.23a5.145,5.145,0,0,0,5.465,5.465h30.6a5.145,5.145,0,0,0,5.465-5.465V191.155Z" transform="translate(0 -115.942)" fill="#2d7567"/>
    <path id="Path_21258" data-name="Path 21258" d="M32.8,513.78a24.121,24.121,0,0,1,3.153-8.185c4.213-6.381,6.8-8.067,7.65-8.742a3.539,3.539,0,0,1,4.373,0c3.067,3.067,5.171,10.363,5.465,10.931.835,1.82,1.028,2.189,2.184,2.189,1.108,0,5.465-3.281,5.465-3.281s2.7-2.184,5.465-2.184c3.549,0,7.949,4.138,10.165,9.277l-2.516,3.838H35.953L32.8,513.78Z" transform="translate(-21.579 -411.808)" fill="#2d7567"/>
    <path id="Path_21259" data-name="Path 21259" d="M560.467,338.805a3.6,3.6,0,1,1,3.667-3.6,3.639,3.639,0,0,1-3.667,3.6Z" transform="translate(-517.529 -256.115)" fill="#2d7567"/>
  </g>
</svg>
