<svg xmlns="http://www.w3.org/2000/svg" xmlns:xlink="http://www.w3.org/1999/xlink" width="911.333" height="568.978" viewBox="0 0 911.333 568.978">
  <defs>
    <clipPath id="clip-path">
      <path id="SVGID" d="M358.19,363.188a37.863,37.863,0,1,0,37.862,37.862A37.862,37.862,0,0,0,358.19,363.188Zm0,57.92a20.057,20.057,0,1,1,20.058-20.057A20.058,20.058,0,0,1,358.19,421.108Z" transform="translate(-320.327 -363.188)" fill="none"/>
    </clipPath>
  </defs>
  <g id="Management" transform="translate(-288.219 -181.274)">
    <path id="Path_20355" data-name="Path 20355" d="M390.974,287.628c137.257-50.955,276.761-5.906,371.374,92.213s293.176-67.723,398.483,30.236c71.867,66.852,38.949,238.732-59.594,313.178C967.3,824.444,468.3,827.483,385.512,792.759c-141.478-59.336-.9-169.214-66.943-274.545C240.657,393.95,330.317,310.147,390.974,287.628Z" transform="translate(0 -62.511)" fill="#b5ddd4"/>
    <path id="Path_20356" data-name="Path 20356" d="M1234.29,2109.654c-68.706-3.359-302.435,2.331-373.519,4.55s-153.6-2.927-196.457-10.494-290.611.644-279.369,20.987,110.384,9.1,222.812,17.277,365.281-1.022,422.317,0,109.337-2.044,182.838-6.133S1274.116,2111.6,1234.29,2109.654Z" transform="translate(-70.707 -1408.659)" fill="#6fb0a1"/>
    <g id="Group_15358" data-name="Group 15358" transform="translate(883.255 181.274)">
      <path id="Path_20357" data-name="Path 20357" d="M2654.882,253.212a66.518,66.518,0,0,0,.416-7.4c0-1.32-.043-2.629-.12-3.929l-12.22-3.954a53.687,53.687,0,0,0-4.327-14.641l8.1-9.971a66.07,66.07,0,0,0-6.419-9.33l-12.221,3.988a54.319,54.319,0,0,0-12.1-9.3l.695-12.84a65.339,65.339,0,0,0-10.668-3.781l-7.546,10.414a54.343,54.343,0,0,0-15.256-.4l-6.987-10.8a65.393,65.393,0,0,0-10.855,3.208l.016,12.859a54.2,54.2,0,0,0-12.574,8.649l-11.99-4.626a66.114,66.114,0,0,0-6.9,8.977l7.566,10.387a53.725,53.725,0,0,0-5.1,14.391l-12.41,3.3a66.456,66.456,0,0,0-.416,7.4c0,1.32.043,2.629.12,3.929L2535.9,253.7a53.721,53.721,0,0,0,4.327,14.641l-8.1,9.971a66.012,66.012,0,0,0,6.419,9.33l12.221-3.988a54.3,54.3,0,0,0,12.1,9.3l-.7,12.84a65.367,65.367,0,0,0,10.669,3.781l7.547-10.414a54.321,54.321,0,0,0,15.256.4l6.987,10.8a65.381,65.381,0,0,0,10.855-3.208l-.016-12.859a54.214,54.214,0,0,0,12.574-8.649l11.99,4.626a66.181,66.181,0,0,0,6.905-8.978l-7.567-10.387a53.7,53.7,0,0,0,5.1-14.391Zm-65.451,18.439a25.834,25.834,0,1,1,25.834-25.834A25.834,25.834,0,0,1,2589.431,271.651Z" transform="translate(-2523.565 -181.274)" fill="#f79429" opacity="0.5"/>
      <g id="Group_15355" data-name="Group 15355" transform="translate(99.771 48.681)">
        <path id="Path_20358" data-name="Path 20358" d="M2899.7,409.843a1.331,1.331,0,0,1-1.022-2.182,43.339,43.339,0,0,0,7.636-41.744,1.331,1.331,0,0,1,2.517-.867,46,46,0,0,1-8.105,44.313A1.329,1.329,0,0,1,2899.7,409.843Z" transform="translate(-2898.372 -364.152)" fill="#fff"/>
      </g>
      <g id="Group_15356" data-name="Group 15356" transform="translate(80.677 21.275)">
        <path id="Path_20359" data-name="Path 20359" d="M2843.325,273.319a1.325,1.325,0,0,1-.912-.362,43.026,43.026,0,0,0-14.9-9.178,1.331,1.331,0,1,1,.908-2.5,45.663,45.663,0,0,1,15.812,9.742,1.331,1.331,0,0,1-.913,2.3Z" transform="translate(-2826.64 -261.197)" fill="#fff"/>
      </g>
      <g id="Group_15357" data-name="Group 15357" transform="translate(54.515 18.614)">
        <path id="Path_20360" data-name="Path 20360" d="M2729.691,255.215a1.331,1.331,0,0,1-.325-2.622,46.11,46.11,0,0,1,11.275-1.395,1.331,1.331,0,0,1,0,2.662,43.429,43.429,0,0,0-10.624,1.314A1.333,1.333,0,0,1,2729.691,255.215Z" transform="translate(-2728.361 -251.199)" fill="#fff"/>
      </g>
    </g>
    <rect id="Rectangle_1097" data-name="Rectangle 1097" width="411.658" height="247.262" transform="translate(497.627 181.462)" fill="#6fb0a1" opacity="0.5"/>
    <rect id="Rectangle_1098" data-name="Rectangle 1098" width="387.291" height="226.992" transform="translate(517.682 187.496)" fill="#fff"/>
    <g id="Group_15361" data-name="Group 15361" transform="translate(749.573 292.766)">
      <path id="Path_20361" data-name="Path 20361" d="M2342.669,612.151c18.456-17.569,50-17.17,49.335,9.583s1.544,29.267,9.139,43.3c26.353,48.7-31.411,45.83-55.5,47.427s-22.094-43.789-17.835-68.944S2337.269,617.292,2342.669,612.151Z" transform="translate(-2244.309 -600.11)" fill="#303c60"/>
      <path id="Path_20362" data-name="Path 20362" d="M2357.429,1221.577c-5.917,49.691-16.668,86.424-17.866,109.981s-5.989,116.311-5.989,116.311,13.176-.921,14.374-2.918,24.755-54.3,23.557-86.642,23.528-81.515,23.528-81.515l-5.96-48.248Z" transform="translate(-2250.466 -1056.146)" fill="#4476bd"/>
      <path id="Path_20363" data-name="Path 20363" d="M2397.647,1302.845l-9.254,3.872c-2.515,15.757-5.306,29.924-7.756,42.489,14.726,9.521,22.333,41.239,25.592,60.63,1.661-21.7,11.9-47.918,18.251-62.417Z" transform="translate(-2285.001 -1115.781)" fill="#3e6bab"/>
      <path id="Path_20364" data-name="Path 20364" d="M2496.206,1202.759s19.943,25.439,19.318,54.3c-.952,43.935-5.743,56.479,2.593,102.547,3.256,17.993-7.186,76.85-7.186,76.85s-8.921.7-13.712-1.686c.4-4.324-5.765-74.673-17.772-107.012-5.814-15.66-13.986-59.518-18.377-84.672s-5.191-30.344-3.594-30.344S2496.206,1202.759,2496.206,1202.759Z" transform="translate(-2340.829 -1042.337)" fill="#4476bd"/>
      <path id="Path_20365" data-name="Path 20365" d="M2138.756,868.856s.887-13.164-.533-17.23-13.665-7.615-13.665-7.615-.532,18.811.71,21.118,8.518,8.873,8.518,8.873Z" transform="translate(-2097.006 -779.086)" fill="#f09959"/>
      <path id="Path_20366" data-name="Path 20366" d="M2223.22,901.313c-28.037,30.177-37.187,42.875-39.317,42.875-6.655-11.747-28.759-36.592-28.759-36.592l-9.425,6.059s21.78,56.905,35.622,57.493,41.977-19.624,42.334-21.945S2223.22,901.313,2223.22,901.313Z" transform="translate(-2112.617 -821.134)" fill="#a2dff2"/>
      <path id="Path_20367" data-name="Path 20367" d="M2327.015,968.2c13.715-5.584,29.43-17.263,29.7-18.994.357-2.321-.455-47.89-.455-47.89-6.113,6.579-11.448,12.414-16.079,17.517C2335.155,937.534,2335.482,957.9,2327.015,968.2Z" transform="translate(-2245.653 -821.134)" fill="#96cfe0"/>
      <path id="Path_20368" data-name="Path 20368" d="M2423.6,826.678s26.829,13.448,32.685,37.253-11.472,53.215-13.6,68.91-51.106,18.456-51.106,1.655c0-16.106-12.271-50.294-11.579-59,1.625-20.433,31.494-45.464,31.494-45.464Z" transform="translate(-2284.509 -766.367)" fill="#a2dff2"/>
      <path id="Path_20369" data-name="Path 20369" d="M2454.41,710.826l11.518,35.518s-12.3,9.491-33.346,32.322c.817-15.193,13.545-31.755,13.545-31.755l-8.713-33.54Z" transform="translate(-2323.119 -681.354)" fill="#f09959"/>
      <path id="Path_20370" data-name="Path 20370" d="M2473.1,727.393l-5.373-16.567-17,2.545,8.713,33.54s-.851,1.356-2.1,3.487A40.938,40.938,0,0,0,2473.1,727.393Z" transform="translate(-2336.44 -681.354)" fill="#e38540"/>
      <path id="Path_20371" data-name="Path 20371" d="M2401.505,671.58c-3.106,11.3-15.137,17.525-23.685,15.176s-10.377-12.381-7.271-23.684,12.555-18.561,21.1-16.212S2404.612,660.277,2401.505,671.58Z" transform="translate(-2276.56 -634.092)" fill="#f09959"/>
      <path id="Path_20372" data-name="Path 20372" d="M2387.632,1105.357c3.73,23.634-10.118,74.2-10.118,74.2s8.259,1.876,33.015-.52,35.67-27.1,39.4-27.793,5.641,22.993,7.479,24.865,2.118-29.908-2.687-42.4c-8.518-22.146-6.85-31.54-3.666-44.957C2456.711,1064.892,2387.632,1105.357,2387.632,1105.357Z" transform="translate(-2282.709 -953.151)" fill="#a2dff2"/>
      <path id="Path_20373" data-name="Path 20373" d="M2261.678,2027.978c2.229,9.06-2.172,16.245-8.064,21.482-4.791,4.259-19.521,6.069-18.811,8.2s18.1,2.8,23.958,1.917,7.453-3.727,14.743-3.723c4.779,0,5.666-3.884,3.536-8.687s-2.875-7.459-.95-11.765S2261.678,2027.978,2261.678,2027.978Z" transform="translate(-2177.969 -1647.888)" fill="#4476bd"/>
      <path id="Path_20374" data-name="Path 20374" d="M2618.241,2009.809c-.355,9.405-1.447,16.412.86,20.772,8.91,7.453,16.316,15.92,13.487,16.5-13.487,2.786-18.634-5.3-26.265-7.6-9.365-2.82.887-14.587-2.782-29.68-2.04-8.391,14.139-6.38,14.139-6.38Z" transform="translate(-2447.626 -1629.719)" fill="#4476bd"/>
      <path id="Path_20375" data-name="Path 20375" d="M2501.259,994.257a44.324,44.324,0,0,0-2.013-7.709c-8.518-22.146-6.85-31.54-3.666-44.957a10.54,10.54,0,0,0,.322-2.8c.719-2.393,1.388-4.818,1.976-7.257l-2.891-26.1-20.845-24.756c-15.623,22.893-5.08,51.375-7.423,67.081S2438.2,983.49,2438.2,983.49l.852,5.572a14.149,14.149,0,0,0,15.914,11.89c10.789-1.5,24.942-4.506,31.24-10.35C2492.3,984.947,2497.695,989.323,2501.259,994.257Z" transform="translate(-2327.239 -805.992)" fill="#96cfe0"/>
      <path id="Path_20376" data-name="Path 20376" d="M2406.771,1263.53s-11.557,3.233-12.938,3.957-2.146,4.543-2.146,4.543-6.615,5.744-4.081,7.778,7.06,7.183,13.042,4.788c3.673-1.47,6.519-14.964,8.927-15.072S2406.771,1263.53,2406.771,1263.53Z" transform="translate(-2289.691 -1086.931)" fill="#f09959"/>
      <path id="Path_20377" data-name="Path 20377" d="M2486.247,869.326c12.369.35,23.582,22.626,27.49,41.952s8.021,46.8,8.021,46.8-20.5,16.177-40.75,20.9c-17.667,4.124-26.687,5.738-26.687,5.738l-3.584-10.087,42.272-24.829s-15.543-29.281-17.088-51.376S2476.847,869.06,2486.247,869.326Z" transform="translate(-2336.44 -797.657)" fill="#a2dff2"/>
      <rect id="Rectangle_1099" data-name="Rectangle 1099" width="31.445" height="19.97" transform="translate(0 66.68) rotate(-11.346)" fill="#f5dc95"/>
      <path id="Path_20378" data-name="Path 20378" d="M2131.624,878.616c.426-8.1-3.587-19.144-5.894-19.128s.71,7.238-.532,12.029C2124.524,874.114,2131.624,878.616,2131.624,878.616Z" transform="translate(-2097.29 -790.443)" fill="#f09959"/>
      <path id="Path_20379" data-name="Path 20379" d="M2382.965,642.069c.685,22.183,26.594,20.482,33.693,19.114s-8.642,46.8,4.88,49.578c9.929,2.041,7.693-13.491,18.722-12.453,4.88.459,9.785,8,9.785,8a15.064,15.064,0,0,0-4.461-8c-3.727-3.356-13.5-23.942-16.065-38.671s-19.96-24.256-25.106-24.551-17.746,5.562-17.746,5.562Z" transform="translate(-2286.709 -625.769)" fill="#303c60"/>
      <g id="Group_15359" data-name="Group 15359" transform="translate(126.914 34.766)">
        <path id="Path_20380" data-name="Path 20380" d="M2505.823,785.962a5.112,5.112,0,0,1-1.068-.114c-4.328-.921-6.427-5.469-6.6-14.314-.153-7.581,1.1-17.31,2.427-27.61.536-4.162,1.09-8.465,1.547-12.632a.649.649,0,0,1,1.29.141c-.458,4.179-1.014,8.489-1.55,12.656-2.567,19.929-4.992,38.753,3.161,40.489a3.634,3.634,0,0,0,.758.08c4.683,0,8.9-9.126,11.357-18.014a.649.649,0,0,1,1.25.346C2516.768,772.857,2512.4,785.96,2505.823,785.962Z" transform="translate(-2498.138 -730.714)" fill="#303c60"/>
      </g>
      <g id="Group_15360" data-name="Group 15360" transform="translate(125.097 34.766)">
        <path id="Path_20381" data-name="Path 20381" d="M2499.083,791.118a5.114,5.114,0,0,1-3.833-1.7c-8.832-9.337-.1-56.182.277-58.172a.648.648,0,1,1,1.274.241c-.091.481-8.99,48.18-.609,57.039a3.869,3.869,0,0,0,3.525,1.255c4.586-.606,7.235-6.829,9.571-12.319,2.266-5.326,4.4-10.356,8.195-10.224a.648.648,0,0,1-.046,1.3l-.094,0c-2.846,0-4.8,4.585-6.862,9.437-2.472,5.81-5.273,12.394-10.594,13.1A6.153,6.153,0,0,1,2499.083,791.118Z" transform="translate(-2491.313 -730.714)" fill="#303c60"/>
      </g>
      <path id="Path_20382" data-name="Path 20382" d="M2492.183,729.085c-1.826,2.353-4.687,3.189-6.39,1.867s-1.6-4.3.222-6.654,4.687-3.189,6.39-1.867S2494.009,726.732,2492.183,729.085Z" transform="translate(-2361.273 -689.41)" fill="#f09959"/>
    </g>
    <g id="Group_15366" data-name="Group 15366" transform="translate(583.464 393.372)">
      <path id="Path_20383" data-name="Path 20383" d="M1628.124,1017.973c6.325,12.649,1.089,27.215-11.352,32.361-12.523,5.18-26.215,2.238-32.541-10.411s-1.628-27.816,10.493-33.878S1621.8,1005.324,1628.124,1017.973Z" transform="translate(-1532.421 -996.76)" fill="#303c60"/>
      <g id="Group_15362" data-name="Group 15362" transform="translate(47.655 20.467)">
        <path id="Path_20384" data-name="Path 20384" d="M1590.327,1089.568c-1.4,0-4.148-.494-7.646-3.6a19.546,19.546,0,0,1-5.8-11c-1.1-5.735-.384-12.328,2.13-19.6a.648.648,0,1,1,1.226.424c-2.439,7.051-3.139,13.419-2.082,18.928a18.25,18.25,0,0,0,5.39,10.269c4.436,3.937,7.411,3.22,7.441,3.212a.649.649,0,0,1,.348,1.25A3.939,3.939,0,0,1,1590.327,1089.568Z" transform="translate(-1576.377 -1054.942)" fill="#303c60"/>
      </g>
      <g id="Group_15365" data-name="Group 15365" transform="translate(0 66.001)">
        <path id="Path_20385" data-name="Path 20385" d="M1691.2,1242.649c7.2,1.614,16.288,21.618,20.739,34.434,4.489,12.927,12.1,28.963,17.082,33.945s37.722,16.533,37.722,16.533-80.894.156-79.237,0S1691.2,1242.649,1691.2,1242.649Z" transform="translate(-1610.248 -1238.216)" fill="#a8ceff"/>
        <path id="Path_20386" data-name="Path 20386" d="M1743.068,1321.134c-4.429-.633-20.4,1.423-13.6-1.423s5.852-6.485,5.852-6.485-9.648,8.067-11.388,1.013c-1.5-6.082-2.074-27.557-7.768-49.08-4.7-10.672-10.86-21.349-16.039-22.509,0,0-.182,7.578-.482,18.2,1.986,23.515,5.358,58.062,6.214,66.77,10.722.017,28.667,0,43.68-.02l9.984-.476S1747.5,1321.767,1743.068,1321.134Z" transform="translate(-1619.173 -1238.216)" fill="#93bbf0"/>
        <path id="Path_20387" data-name="Path 20387" d="M1521.731,1226s-22.9,12.8-28.238,15.517,14.955,82.593,19.468,86.015,44.247.589,48.771-3.724-3.471-17.548.444-44.048-11.941-49.379-13.977-49.327-15.33-4.433-15.33-4.433Z" transform="translate(-1467.25 -1225.996)" fill="#a8ceff"/>
        <path id="Path_20388" data-name="Path 20388" d="M1513.159,1373.519c4.513,3.423,32.946,3.5,45.049-.266,1.366-.425,7.568-2.9,7.713-5.219-1.461-.275-7.26.422-9.614-.119-8.185-1.881-12.694-12.021-12.694-12.021s-4.508-1.622-14.591-5.892-5.931-17.2-6.169-22.9-9.965-24.319-28.234-38.436l-1.676.75C1491.641,1302.4,1508.983,1370.352,1513.159,1373.519Z" transform="translate(-1467.447 -1271.987)" fill="#93bbf0"/>
        <g id="Group_15364" data-name="Group 15364" transform="translate(89.166 38.637)">
          <path id="Path_20389" data-name="Path 20389" d="M1938.879,1372.006h-55.141l-25.113,53.443h60.738l22.733-48.377A3.554,3.554,0,0,0,1938.879,1372.006Z" transform="translate(-1825.004 -1371.776)" fill="#75a1de"/>
          <g id="Group_15363" data-name="Group 15363">
            <path id="Path_20390" data-name="Path 20390" d="M1769.228,1425.573h-33.18a3.727,3.727,0,0,1,0-7.453h30.8l20.826-44.821a3.727,3.727,0,0,1,6.759,3.141l-21.828,46.977A3.727,3.727,0,0,1,1769.228,1425.573Z" transform="translate(-1732.321 -1371.142)" fill="#3e6bab"/>
          </g>
        </g>
        <path id="Path_20391" data-name="Path 20391" d="M1643.748,1532.736c14.394,2.689,17.934,5.994,25.78,7.258,8.895,1.434,7.837,3.4,1.231,3.4s-23.207.257-28.9-1.009S1643.748,1532.736,1643.748,1532.736Z" transform="translate(-1575.214 -1451.083)" fill="#f09959"/>
        <path id="Path_20392" data-name="Path 20392" d="M1421.8,1286.092c-11.032,35.271-26.671,75.294-24.179,75.294s65.835,2.561,68.326.428,1.78-10.318,1.424-11.385-36.012-7.4-36.012-7.4,4.7-9.151,6.475-27.034S1423.89,1279.4,1421.8,1286.092Z" transform="translate(-1397.354 -1269.076)" fill="#a8ceff"/>
      </g>
      <path id="Path_20393" data-name="Path 20393" d="M1609.031,1110.857l-8.886,32.473s15.016,23.438,19.144,21.356-2.308-19.051-2.308-21.356,6.436-26.1,6.436-26.1Z" transform="translate(-1546.163 -1075.505)" fill="#f09959"/>
      <path id="Path_20394" data-name="Path 20394" d="M1633.68,1144.985a8.664,8.664,0,0,1-.308-1.655c0-2.306,6.436-26.1,6.436-26.1l-14.386-6.376-2.941,10.746A56.016,56.016,0,0,0,1633.68,1144.985Z" transform="translate(-1562.553 -1075.505)" fill="#e38540"/>
      <path id="Path_20395" data-name="Path 20395" d="M1670.288,1068.927c1.693,9.417.578,21.923-7.784,25.1s-18.434-2.9-22.5-13.588-.578-21.923,7.784-25.1S1668.266,1057.677,1670.288,1068.927Z" transform="translate(-1574.169 -1034.112)" fill="#f09959"/>
      <path id="Path_20396" data-name="Path 20396" d="M1626.552,1116.068c1.172,3.292.154,6.661-2.274,7.526s-5.346-1.1-6.518-4.4-.154-6.661,2.274-7.525S1625.38,1112.777,1626.552,1116.068Z" transform="translate(-1558.732 -1075.955)" fill="#f09959"/>
      <path id="Path_20397" data-name="Path 20397" d="M1653.308,1043.87c-2.847,22.1-29.694,19.25-29.694,19.25s-5.537-7.279-8.028-3.462,3.456-22.4,18.861-23.229C1639.508,1036.158,1653.308,1043.87,1653.308,1043.87Z" transform="translate(-1557.091 -1020.885)" fill="#303c60"/>
      <ellipse id="Ellipse_4" data-name="Ellipse 4" cx="14.541" cy="13.642" rx="14.541" ry="13.642" transform="translate(39.848)" fill="#303c60"/>
    </g>
    <g id="Group_15369" data-name="Group 15369" transform="translate(608.891 546.365)">
      <g id="Group_15368" data-name="Group 15368" transform="translate(0 6.186)">
        <path id="Path_20398" data-name="Path 20398" d="M1492.874,1901.712h3.325l21.471-99.478h-7.315Z" transform="translate(-1492.874 -1742.02)" fill="#2e5b9a"/>
        <path id="Path_20399" data-name="Path 20399" d="M1803.171,1892.017h-3.325l-24.988-102.995h7.315Z" transform="translate(-1699.796 -1732.326)" fill="#2e5b9a"/>
        <g id="Group_15367" data-name="Group 15367" transform="translate(1.876)">
          <path id="Path_20400" data-name="Path 20400" d="M1535.983,1639.973c-13.32,0-21.758-2.392-27.143-7.638-6.675-6.5-8.057-16.576-8.077-29.7-.016-10.329-.261-17.056-.821-22.493a3.727,3.727,0,1,1,7.415-.763c.587,5.7.844,12.652.86,23.245.02,13.3,1.708,20.362,5.824,24.372,4.223,4.114,11.858,5.811,24.75,5.488a146.47,146.47,0,0,0,27.906-3.449c9.057-1.841,15.6-3.171,23.361.537a3.727,3.727,0,1,1-3.214,6.725c-5.508-2.632-10.18-1.682-18.663.042a152.969,152.969,0,0,1-29.206,3.6Q1537.44,1639.973,1535.983,1639.973Z" transform="translate(-1499.922 -1576.034)" fill="#2e5b9a"/>
        </g>
      </g>
      <path id="Path_20401" data-name="Path 20401" d="M1521.706,1574.38l20.388.848-5.428,56.291s-15.2-9.7-14.96-20.14S1521.706,1574.38,1521.706,1574.38Z" transform="translate(-1514.029 -1568.634)" fill="#2e5b9a"/>
      <path id="Path_20402" data-name="Path 20402" d="M1891.971,1591.111c17.24-2.615,23.1-1.791,33.65,17.844s24.6,54.99,32.672,59.557c12.162,6.876,16.192,23.736,21.186,22.978s8.208,1.45,2.774,5.966-14.209,8.362-17.21,7.56-5.328-13.766-13.165-17.977-5.483-7.668-4.968-11.392-22.878-20.868-40.511-42.19c-10.775-13.029-16.323-21.628-17.146-29.422A20.446,20.446,0,0,1,1891.971,1591.111Z" transform="translate(-1783.648 -1580.121)" fill="#f09959"/>
      <path id="Path_20403" data-name="Path 20403" d="M1934.71,1662.313c-4-10.158-8.02-26.923-11.795-42.293-5.369-21.858-11-27.048-14.561-29.379-4.31-1.08-9.417-.586-16.383.471a20.446,20.446,0,0,0-2.719,12.924c.823,7.794,6.371,16.393,17.146,29.422,9.285,11.227,20.164,21.294,28.312,28.855Z" transform="translate(-1783.648 -1580.122)" fill="#e38540"/>
      <path id="Path_20404" data-name="Path 20404" d="M1873.472,1608.393s-4.588,34.61-8.859,38.128c-3.055,2.517-5.219,2.684-7.355-7.638s3.322-48.849,3.322-48.849Z" transform="translate(-1759.898 -1580.121)" fill="#2e5b9a"/>
      <path id="Path_20405" data-name="Path 20405" d="M1788.774,1644.049l-42.453,7.133,23.967-34.366,18.24-3.714,10.938,2.515Z" transform="translate(-1678.855 -1597.048)" fill="#f09959"/>
      <path id="Path_20406" data-name="Path 20406" d="M2103.8,1911.651c-1.376,5.547-1.211,9.647,1.181,11.7s11.427,17.322,11.427,17.322l2.814-.427-6.517-13.969Z" transform="translate(-1940.536 -1816.125)" fill="#2e5b9a"/>
      <path id="Path_20407" data-name="Path 20407" d="M2122.306,1940.307c3,.8,11.776-3.044,17.21-7.56s2.219-6.723-2.774-5.966a2.156,2.156,0,0,1-.837-.041c-2.494,5.571-10.7,9.751-13.344,3.865-2.623-5.832-13.864-17.44-18.391-19.925a1.05,1.05,0,0,1,0,.259c-.515,3.724-2.87,7.182,4.968,11.392S2119.3,1939.5,2122.306,1940.307Z" transform="translate(-1940.911 -1815.412)" fill="#2e5b9a"/>
      <path id="Path_20408" data-name="Path 20408" d="M1554.3,1595.212c-15.062,27.029-4.773,44.209,13.533,45.959s47.205-1.592,64.051-15.59,30.673-28.8,28.742-31.008S1554.3,1595.212,1554.3,1595.212Z" transform="translate(-1532.629 -1582.836)" fill="#e38540"/>
      <path id="Path_20409" data-name="Path 20409" d="M1885.946,1629.605c3.084-9.253,6.64-16.352,13.524-16.481,7.237-.135,11.69,3.63,12,15.472.368,14.1.865,60.8.214,81.559-.493,15.717,4.088,20.75,3.7,37.135-.292,12.34,12.864,6.106,7.783,12.506-3.495,4.4-13.9,2.962-20.287,2.149-5.693-.724,2.947-17.787-4.933-22.349-6.762-3.914-6.894-10.27-2.623-15.081s.475-19.047-2.373-29.011-7.263-20.746-10.163-44.307C1881.96,1644.479,1884.063,1635.257,1885.946,1629.605Z" transform="translate(-1778.858 -1597.062)" fill="#f09959"/>
      <path id="Path_20410" data-name="Path 20410" d="M1945.764,2060.931a29.828,29.828,0,0,1-7.208,1.476c-4.745.158-6.169-5.062-6.485-12.153-.276-6.191-4.773-15.941-9.384-19.894-.085.113-.172.223-.264.327-4.271,4.811-4.138,11.167,2.624,15.081,7.88,4.562-.76,21.625,4.933,22.349,6.39.813,16.793,2.251,20.287-2.149C1953.569,2061.809,1949.47,2061.478,1945.764,2060.931Z" transform="translate(-1805.958 -1903.235)" fill="#2e5b9a"/>
      <path id="Path_20411" data-name="Path 20411" d="M1916.956,2024.963s-6.92,7.227-6.287,10.232,2.766,10.6,3.123,16.45.673,12.57.673,12.57,2.491,0,2.689-.708,1.582-23.787,1.582-23.787Z" transform="translate(-1799.425 -1899.275)" fill="#2e5b9a"/>
      <path id="Path_20412" data-name="Path 20412" d="M1537.8,1590.034s-8.934,37.914,2.353,48.422,58.158,1.056,69.2.426c7.474-.426,14.71,8.7,14.71,8.7s-5.22-21.153-1.661-38.236,9.3-18.232,9.3-18.232l-7.641-1.077Z" transform="translate(-1523.379 -1580.121)" fill="#75a1de"/>
      <path id="Path_20413" data-name="Path 20413" d="M1534.11,1552.795c3.821,8.105-4.112,22.1-1.332,26.137s18.7.565,29.126-7.83,30.169-10.24,30.169-10.24Z" transform="translate(-1521.713 -1552.795)" fill="#a8ceff"/>
      <path id="Path_20414" data-name="Path 20414" d="M1568.862,1782.685c31.556,1.186,64.773.626,64.773-4.077s-1.424-8.024-25.861-6.126-41.046,4.508-48.4,2.847S1568.862,1782.685,1568.862,1782.685Z" transform="translate(-1540.307 -1713.604)" fill="#2e5b9a"/>
    </g>
    <rect id="Rectangle_1100" data-name="Rectangle 1100" width="451.474" height="8.591" rx="4.295" transform="translate(525.916 551.683)" fill="#2e5b9a"/>
    <g id="Group_15374" data-name="Group 15374" transform="translate(837.929 404.902)">
      <path id="Path_20415" data-name="Path 20415" d="M3001.352,1096.865c3.057,10.778-4.409,21.884-12.634,24.217s-14.094-4.99-17.151-15.768,1.132-21.406,9.357-23.739S2998.295,1086.087,3001.352,1096.865Z" transform="translate(-2806.252 -1065.213)" fill="#f09959"/>
      <path id="Path_20416" data-name="Path 20416" d="M2886.722,1924.823s21.08,32.74,23.926,34.163,9.965,1.779,7.3,7.117-3.737,26.335-6.228,27.4-23.843,3.558-20.64,0,5.173-1.78,6.789-8.185,3.887-18.505.862-21-21.53-24.911-21.53-24.911Z" transform="translate(-2737.736 -1684.328)" fill="#f09959"/>
      <path id="Path_20417" data-name="Path 20417" d="M2396.184,1977.643s-25.624,42.232-30.369,46.028-20.4,9.49-7.592,10.439,18.98-4.271,27.047-6.643,18.031-3.8,14.235-9.965-2.219-19.635,5.964-28.177S2396.184,1977.643,2396.184,1977.643Z" transform="translate(-2353.292 -1723.088)" fill="#f09959"/>
      <path id="Path_20418" data-name="Path 20418" d="M2615.187,1609.663s-63.431-1.659-88.581,18.981c-14.71,22.3-50.3,88.106-53.062,95.357,1.9,1.9,12.575,5.323,17.32,4.848,14-16.691,32.5-31.121,39.859-44.213,9.068-16.134,11.863-24.2,26.573-25.624s47.926-6.169,57.891-6.169S2615.187,1609.663,2615.187,1609.663Z" transform="translate(-2441.533 -1453.038)" fill="#6791c9"/>
      <path id="Path_20419" data-name="Path 20419" d="M3138.555,1915.972h-3.325l-23.843-99.478h7.315Z" transform="translate(-2909.586 -1604.836)" fill="#2e5b9a"/>
      <path id="Path_20420" data-name="Path 20420" d="M2839.274,1906.278h3.325l27.36-102.995h-7.315Z" transform="translate(-2709.908 -1595.141)" fill="#2e5b9a"/>
      <path id="Path_20421" data-name="Path 20421" d="M2797.6,1593.429l-36.879,6.365s-49.007.45-71.408,4.623c-20.381,3.8-23.384,26.953,0,58.84,13.283,18.114,24.514,32.563,47.482,48.855,5.842-4.29,8.078-5.912,9.692-16.233-1.662-2.279-5.965-16.544-7.3-19.335-12.7-26.556-29.66-36.212-29.9-38.825,2.847-4.626,75.413,24.115,89.841,7.208C2812.905,1628.785,2797.6,1593.429,2797.6,1593.429Z" transform="translate(-2587.808 -1441.149)" fill="#75a1de"/>
      <path id="Path_20422" data-name="Path 20422" d="M3017.441,1278.628a38.59,38.59,0,0,0-28.856,7.181c-8.084,8.241-17.232,21.83-16.671,44.247.712,28.47-4.406,30.3.933,38.127,22.263,9.194,60.342,48.7,51.375,6.347-6.493-30.664,14.24-53.52-2.485-87.534C3020.373,1284.228,3018.672,1281.542,3017.441,1278.628Z" transform="translate(-2806.118 -1209.838)" fill="#f37168"/>
      <path id="Path_20423" data-name="Path 20423" d="M2971.91,1360.377c-.433,14.842-2.529,19.215-.926,23.868,9.076.926,25.679,4.558,29.828,10.367,4.745,6.643,9.49,7.592,7.276,2.689s-8.066-11.863.949-35.747,13.287-40.018,4.429-56.625Z" transform="translate(-2806.121 -1229.446)" fill="#d54a41"/>
      <path id="Path_20424" data-name="Path 20424" d="M3067.611,1196.9c-5.981-14.158-7.45-30.066-7.45-30.066l-15.658,4.626s8.9,19.929.355,27.046a81.691,81.691,0,0,0-6.1,5.575A38.59,38.59,0,0,1,3067.611,1196.9Z" transform="translate(-2856.288 -1128.114)" fill="#f09959"/>
      <path id="Path_20425" data-name="Path 20425" d="M3076.545,1172.917c-.927-.825-2.088-1.855-3.307-2.933l-12.772,3.774-.027.069c.308.706,3.561,8.3,3.99,15.6,3.806-2.309,7.973-6.074,12.738-12.651C3076.909,1175.315,3076.7,1174.014,3076.545,1172.917Z" transform="translate(-2872.201 -1130.423)" fill="#e38540"/>
      <path id="Path_20426" data-name="Path 20426" d="M2843.568,1295.278c-16.128,5.641-14.339,22.63-29.181,47.687-7.682,12.967-14.816,12.774-14.816,12.774a343.732,343.732,0,0,1-39.8-2.52c-13.644-1.668-14.51,2.394-5.021,5.786,19.139,6.843,39,14.208,55.014,12.429s43.4-42.639,44.816-53.275C2856.529,1303.449,2851.689,1292.438,2843.568,1295.278Z" transform="translate(-2643.253 -1222.035)" fill="#f09959"/>
      <g id="Group_15370" data-name="Group 15370" transform="translate(135.733 108.762)">
        <path id="Path_20427" data-name="Path 20427" d="M2919.473,1536.571q-1.5,0-3.076-.039a152.985,152.985,0,0,1-29.207-3.6c-8.482-1.724-13.155-2.674-18.662-.042a3.727,3.727,0,1,1-3.214-6.725c7.76-3.708,14.3-2.378,23.361-.537a146.428,146.428,0,0,0,27.906,3.448c14.02.347,22.6-1.755,26.978-6.614,3.914-4.34,5.066-11.573,3.627-22.765-.488-3.791-.975-6.942-1.4-9.723-1.207-7.8-2-12.957-1.019-20.9.918-7.407,3.375-17.29,9.068-36.462a3.727,3.727,0,1,1,7.145,2.122c-10.648,35.863-10.107,39.365-7.828,54.1.437,2.825.932,6.026,1.431,9.911,1.737,13.51-.006,22.632-5.484,28.707C2943.449,1533.719,2934.243,1536.571,2919.473,1536.571Z" transform="translate(-2863.194 -1429.946)" fill="#2e5b9a"/>
      </g>
      <path id="Path_20428" data-name="Path 20428" d="M2397.925,2111.357c-17,8.315-26.153,13.081-31.6,12.626-1.287-.107-2.353-.239-3.248-.378-6.063,3.584-15.742,7.818-4.852,8.625,12.812.949,18.98-4.271,27.047-6.643s18.032-3.8,14.236-9.965A12.981,12.981,0,0,1,2397.925,2111.357Z" transform="translate(-2353.291 -1821.208)" fill="#d54a41"/>
      <path id="Path_20429" data-name="Path 20429" d="M2949.861,2055.773c-.416,13.461-2.266,26.8-10.5,29.321a13.837,13.837,0,0,1-5.932.529c-1.295,1.6-2.875,1.619-5,3.975-3.2,3.558,18.149,1.067,20.64,0s3.559-22.064,6.228-27.4C2957.5,2057.811,2953.084,2056.788,2949.861,2055.773Z" transform="translate(-2775.095 -1780.42)" fill="#d54a41"/>
      <g id="Group_15371" data-name="Group 15371" transform="translate(29.707 93.108)">
        <path id="Path_20430" data-name="Path 20430" d="M2544.459,1425.573h-54.014a3.727,3.727,0,0,1-3.38-2.156l-21.828-46.977A3.727,3.727,0,1,1,2472,1373.3l20.826,44.821h51.636a3.727,3.727,0,0,1,0,7.453Z" transform="translate(-2464.89 -1371.141)" fill="#75a1de"/>
      </g>
      <path id="Path_20431" data-name="Path 20431" d="M2673.857,1499.931c-10.914-.158-21.738-6.663-27.115-5.714s-22.935,13.128-20.72,13.6,16.133-6.74,16.608-6.85,3.48,5,10.914,6.872.053-5.571,23.1,1.388C2691.624,1513.755,2673.857,1499.931,2673.857,1499.931Z" transform="translate(-2553.281 -1368.277)" fill="#f09959"/>
      <path id="Path_20432" data-name="Path 20432" d="M3039.283,1231.247l1.606,12.921s-14.123.84-21.151,4.795-17.4,15.379-17.4,15.379l8.473-14.588,1.22-9.332Z" transform="translate(-2829.566 -1175.378)" fill="#f2e5de"/>
      <path id="Path_20433" data-name="Path 20433" d="M2891.764,1289.954c-10.49-1.966-15.343,7.434-22.144,22.777s-18.412,33.977-20.72,36.38-38.91,0-38.91,0-1.107,10.6,0,11.863,7.434,1.107,7.434,1.107,2.531,2.021,4.9,3.62,22.46,4.6,31.792,4.13,17.874-1.266,19.139-2.689,26.731-40.65,28.313-54.727S2897.118,1290.957,2891.764,1289.954Z" transform="translate(-2688.058 -1218.268)" fill="#f2e5de"/>
      <path id="Path_20434" data-name="Path 20434" d="M2955.737,1028.518c-19.84.949-16.728,30.8-16.728,30.8s5.153,1.591,15.948-.189c-.83-3.2-.474-11.388-.474-11.388a74.591,74.591,0,0,0,2.847,10.676c2.282,1.047,4.864.119,9.253-.942,2.254,9.483,8.624,13.49,12.984,14.861,4.818,1.515,9.919,3.322,15.613.474s2.563-31.951-.46-37.8c-4.539-8.785-12.082-16.648-25.131-12.5A96.937,96.937,0,0,0,2955.737,1028.518Z" transform="translate(-2782.964 -1021.366)" fill="#303c60"/>
      <path id="Path_20435" data-name="Path 20435" d="M3131.946,1175.507l8.111,11.847s-8.99,22.46,17.155,32.636c20.476,7.969,18.064,22.011,8.811,36.133s5.536,26.453,5.536,26.453,2.255-15.643,22.15-18.6c27.126-4.026,34.807-40.446,14.546-58.656-16.766-15.069-21.867-2.59-33.216-16.113s-32.773-4.389-32.773-4.389l-7.853-11.452Z" transform="translate(-2924.672 -1132.909)" fill="#303c60"/>
      <g id="Group_15372" data-name="Group 15372" transform="translate(216.945 46.829)">
        <path id="Path_20436" data-name="Path 20436" d="M3244.249,1259.489a.649.649,0,0,1-.568-.96c6.837-12.495,1.258-27.633-1.548-31.734-.3-.433-.577-.872-.875-1.337-2.759-4.305-6.191-9.663-24.487-12.957-4.382-.789-7.937-3.4-11.7-6.161-7.8-5.73-16.651-12.224-35.871-3.378a.649.649,0,0,1-.542-1.178c19.914-9.165,29.087-2.431,37.181,3.511,3.639,2.672,7.076,5.195,11.163,5.931,18.853,3.394,22.455,9.016,25.349,13.534.292.456.568.887.853,1.3,1.691,2.471,3.779,7.589,4.634,13.454.741,5.086.819,12.621-3.019,19.636A.649.649,0,0,1,3244.249,1259.489Z" transform="translate(-3168.279 -1197.288)" fill="#303c60"/>
      </g>
      <g id="Group_15373" data-name="Group 15373" transform="translate(181.818 26.591)">
        <path id="Path_20437" data-name="Path 20437" d="M3057.441,1149.334a28.449,28.449,0,0,1-4.2-.339c-6.915-1.036-16.192-4.969-16.921-27.065a.648.648,0,0,1,.626-.669.64.64,0,0,1,.67.627c.3,9.147,2.118,15.916,5.4,20.121,2.5,3.2,5.809,5.014,10.418,5.7,6.457.967,10.738-.23,12.727-3.56a.649.649,0,1,1,1.114.666C3065.478,1147.823,3062.179,1149.334,3057.441,1149.334Z" transform="translate(-3036.318 -1121.261)" fill="#303c60"/>
      </g>
    </g>
    <g id="Group_15378" data-name="Group 15378" transform="translate(372.491 406.993)">
      <path id="Path_20438" data-name="Path 20438" d="M654.013,1285.624c-23.027,13.167-55.055,67.9-48.294,76.832s43.06-14.555,43.06-14.555Z" transform="translate(-604.801 -1217.372)" fill="#96cfe0"/>
      <path id="Path_20439" data-name="Path 20439" d="M833.282,1034c-8.793-.239-5.53-6.775-15.642-4.165-5.316,1.372-1.392,3.559-8.3,2.847s-10.3-1.423-11.175,3.084-1.292,5.931-4.613,6.643-4.822,6.643,0,10.677,2.478,5.694,1.41,9.016,2.572,3.559,4.548,6.643-1.82,3.668,1.027,6.342a10.087,10.087,0,0,0,6.84,2.437l11.986-22.98Z" transform="translate(-741.05 -1029.224)" fill="#303c60"/>
      <path id="Path_20440" data-name="Path 20440" d="M1583.766,2056.646s12.811.356,22.775-3.559,16.726-9.964,14.947-2.847-9.964,19.329-17.082,20.519-9.608,9.019-13.523,9.019-9.609-9.019-19.573-13.527C1562.229,2062.142,1583.766,2056.646,1583.766,2056.646Z" transform="translate(-1312.392 -1776.033)" fill="#2e5b9a"/>
      <path id="Path_20441" data-name="Path 20441" d="M1200.822,2055.446a49.269,49.269,0,0,0,14.765,12.6c9.684,5.338,20.858,7.909,13.93,10.322s-17.057,4.291-26.938,1.422c-6.93-2.012-15.054-2.434-17.2-5.708s2.526-11.5.582-23.785C1184.4,2040.45,1200.822,2055.446,1200.822,2055.446Z" transform="translate(-1030.408 -1776.034)" fill="#2e5b9a"/>
      <path id="Path_20442" data-name="Path 20442" d="M968.25,1630.224s74.214,27.788,80.193,35.556,83.989,78.532,83.989,83.752-13.286,14.71-13.286,14.71-66.907-41.046-83.515-61.924-57.142-30.944-78.691-32.878S968.25,1630.224,968.25,1630.224Z" transform="translate(-857.828 -1470.241)" fill="#3e6bab"/>
      <path id="Path_20443" data-name="Path 20443" d="M862.807,1627.9s50.773-1.9,61.687,0,34.853,1.876,19.195,46.067c-12.273,34.637-16.324,78.49-16.324,78.49l-24.4,5.995s.968-78.854,12.612-99.851a391.349,391.349,0,0,0-45.616,10.293c-40.017,11.444-61.958,5.713-61.958,5.713l-5.958-20.879Z" transform="translate(-749.538 -1467.916)" fill="#4476bd"/>
      <path id="Path_20444" data-name="Path 20444" d="M836.832,1137.762l-12.406,36.655,15.673,10.32,8.882-31.672Z" transform="translate(-765.963 -1108.869)" fill="#a86b48"/>
      <path id="Path_20445" data-name="Path 20445" d="M863.19,1179.739l7.48-26.675-12.149-15.3-4.538,13.407C855.549,1163.279,859.333,1173.3,863.19,1179.739Z" transform="translate(-787.652 -1108.87)" fill="#7a4e34"/>
      <path id="Path_20446" data-name="Path 20446" d="M902.677,1109.469c.4,11.148-5.074,20.8-13.778,21.656s-16.647-7.446-17.742-18.547,5.074-20.8,13.777-21.655S902.041,1091.876,902.677,1109.469Z" transform="translate(-800.162 -1074.372)" fill="#a86b48"/>
      <path id="Path_20447" data-name="Path 20447" d="M744.132,1271.449c-38.081,25.718-14.4,67.276-6.034,97.646,7.122,25.867,6.89,41.5,7.958,41.5s27.257-3.915,42.2-17.438a229.019,229.019,0,0,0,25.051-26.621s-19.149-3.411-25.407-28.182c-3.177-12.577-1.733-19.4-8.975-39.333S744.132,1271.449,744.132,1271.449Z" transform="translate(-691.627 -1206.97)" fill="#a2dff2"/>
      <path id="Path_20448" data-name="Path 20448" d="M802.043,1243.939l4.079-9.98s12.931,8.542,18.091,12.575,8.343,4.983,8.343,4.983,1.865,14.306.654,13.007C817.948,1248.167,802.043,1243.939,802.043,1243.939Z" transform="translate(-749.538 -1179.46)" fill="#a2dff2"/>
      <g id="Group_15376" data-name="Group 15376" transform="translate(27.77 120.525)">
        <path id="Path_20449" data-name="Path 20449" d="M738.642,1915.972h3.325l23.843-99.478H758.5Z" transform="translate(-730.784 -1727.452)" fill="#2e5b9a"/>
        <path id="Path_20450" data-name="Path 20450" d="M1028.227,1906.278H1024.9l-27.36-102.995h7.315Z" transform="translate(-920.766 -1717.758)" fill="#2e5b9a"/>
        <g id="Group_15375" data-name="Group 15375">
          <path id="Path_20451" data-name="Path 20451" d="M754.02,1574.763c-13.32,0-21.758-2.392-27.143-7.638-6.675-6.5-8.057-16.576-8.077-29.7-.042-27.59-1.568-33.295-9.335-50.143a3.727,3.727,0,1,1,6.769-3.12c8.21,17.809,9.976,24.355,10.02,53.252.02,13.3,1.708,20.362,5.824,24.372,4.223,4.114,11.856,5.809,24.75,5.488a146.44,146.44,0,0,0,27.906-3.448c9.057-1.841,15.6-3.171,23.361.537a3.727,3.727,0,1,1-3.213,6.725c-5.508-2.631-10.18-1.682-18.663.042a152.982,152.982,0,0,1-29.206,3.6Q755.477,1574.762,754.02,1574.763Z" transform="translate(-709.122 -1481.994)" fill="#2e5b9a"/>
        </g>
      </g>
      <g id="Group_15377" data-name="Group 15377" transform="translate(179.469 90.586)">
        <path id="Path_20452" data-name="Path 20452" d="M1336.746,1423.955h-54.014a3.727,3.727,0,1,1,0-7.453h51.636l20.826-44.821a3.727,3.727,0,0,1,6.759,3.141l-21.828,46.977A3.727,3.727,0,0,1,1336.746,1423.955Z" transform="translate(-1279.005 -1369.524)" fill="#3e6bab"/>
      </g>
      <path id="Path_20453" data-name="Path 20453" d="M807.34,1313.313s9.49,28.946,21.235,40.927,35.379,16.007,42.78,15.536c-5.9-2.372-17.134-9.121-21.652-27-3.177-12.576-1.733-19.4-8.975-39.333-5.377-14.794-21.943-22.815-30.124-25.967,10.212,7.335,22.98,19.413,26.9,28.6C841.861,1316.279,807.34,1313.313,807.34,1313.313Z" transform="translate(-753.425 -1211.39)" fill="#96cfe0"/>
      <path id="Path_20454" data-name="Path 20454" d="M1282.228,1488.775s16.37-7.473,18.149-6.761,19.929,11.67,19.929,13.486-16.014-6.767-16.014-6.767,1.779,4.744.712,7.02-13.378,2.276-24.482,1.563S1282.228,1488.775,1282.228,1488.775Z" transform="translate(-1097.325 -1361.448)" fill="#a86b48"/>
      <path id="Path_20455" data-name="Path 20455" d="M801.87,1323.407c-15.09,30.928,36.674,62.282,67.383,65.069s67.2-7.262,67.2-7.262l-4.114-10.04s-61.524-8.03-63.082-9.155S807.4,1312.08,801.87,1323.407Z" transform="translate(-747.432 -1243.847)" fill="#a2dff2"/>
      <path id="Path_20456" data-name="Path 20456" d="M854.7,1127.69c1.4,3.678.373,7.481-2.291,8.494s-5.957-1.148-7.356-4.826-.373-7.481,2.291-8.494S853.3,1124.011,854.7,1127.69Z" transform="translate(-780.637 -1097.754)" fill="#a86b48"/>
      <path id="Path_20457" data-name="Path 20457" d="M895.852,1043.447c4.17-1.74,8.865-3.6,7.412,3.48-.632,3.084,0,2.214,1.107,5.061s-2.791,5.083-4.056,6.665,1.842,3.3-.689,5.2-5.867-.7-8.225,0c-7.039,2.1-6.169-3.436-10.123-4.587s-5.892-.974-6.643,1.557,2.768,10.859-.237,10.069-3.682,5.931-4.49,9.727-2.87-2.62-2.737-6.962c.2-6.66-1.449-9.458-3.9-11.321s-3.5-18.808,8.365-19.44,11.938-1.777,17-2.847S893.952,1044.24,895.852,1043.447Z" transform="translate(-793.317 -1037.06)" fill="#303c60"/>
    </g>
    <g id="Group_15379" data-name="Group 15379" transform="translate(1087.273 576.588)">
      <path id="Path_20458" data-name="Path 20458" d="M3466.728,1780.1c7.563,6.906,4.275,13.812-1.315,26.638s-6.577,60.183-6.577,60.183l4.6-.658s-.658-48.672,5.591-61.827,8.879-19.732,14.47-15.457S3466.728,1780.1,3466.728,1780.1Z" transform="translate(-3413.889 -1749.816)" fill="#74b570"/>
      <path id="Path_20459" data-name="Path 20459" d="M3471.75,1687.675c.919-4.093,6.374-8.522,13.669-12.278-1.085,6.037-4.562,15.907-.963,17.931,4.854,2.73.473-11.05,2.346-18.625a90.136,90.136,0,0,1,22.678-7.439c-.011.029-.019.055-.031.083-4.275,10.852-9.865,15.128-7.563,16.772,1.732,1.237,7.373-11.3,14.822-17.725,5.591-.3,10.321.46,13.12,2.675,4.325,3.424,7.228,6.462,2.878,16.889a19.546,19.546,0,0,1-9.444,3.423c-9.866.986-14.47,1.315-7.564,4.6,3.382,1.61,9.05-.091,13.646-1.128-1.491,2.748-3.323,5.857-5.551,9.4a34.922,34.922,0,0,1-4.623,5.883c-3.18.609-5.952.616-7.42-.013-4.6-1.973-16.443-8.222-19.4-5.591-2.9,2.575,21.926,4.206,20.206,10.75-12.032,6.932-25.8,3.634-28.234-2.732C3481.052,1702.006,3468.984,1699.995,3471.75,1687.675Z" transform="translate(-3423.067 -1666.332)" fill="#9cd499"/>
      <path id="Path_20460" data-name="Path 20460" d="M3463.7,1910.573c-13.155-9.866-26.638-.658-33.545,9.866s-1.973,34.2-1.973,34.2,2.631,0,2.631-.987-7.235-27.953,9.866-40.121c10.7-7.613,18.416-3.947,19.4-.329s-4.275,10.195-4.275,10.195Z" transform="translate(-3390.146 -1842.469)" fill="#74b570"/>
      <path id="Path_20461" data-name="Path 20461" d="M3451.046,1845.989c13.155,0,17.43,20.39,13.813,32.229s-8.551,33.873-8.551,33.873l-3.289-3.289s12.5-30.914,9.537-44.726-10.195-16.115-11.51-16.115S3451.046,1845.989,3451.046,1845.989Z" transform="translate(-3407.745 -1798.165)" fill="#9cd499"/>
      <path id="Path_20462" data-name="Path 20462" d="M3485,1959.385a9.535,9.535,0,0,1,3.463-2.91,25.976,25.976,0,0,1-.684,2.818c-1.648,5.394-3.57,12.9-5.173,19.483l-.717-4.144c-.082-.473-.146-.987-.191-1.53A127.523,127.523,0,0,0,3485,1959.385Z" transform="translate(-3430.67 -1879.241)" fill="#74b570"/>
      <path id="Path_20463" data-name="Path 20463" d="M3488.867,1916.663c24.994-10.524,11.826-24.965,33.86-15.428a16.351,16.351,0,0,1,5.337,4.7,16.406,16.406,0,0,1-6.981.56c-6.578-.986-4.276,4.275,6.577,5.591a24.375,24.375,0,0,1,5.085,1.073c5.17,9.93,7.5,23-3.441,27.539a24.785,24.785,0,0,1-7.787,1.6c-3.376-2.684.824-18.211-4.381-16.068-5,2.058,1.566,13.311.667,16.147a72.093,72.093,0,0,1-15.613-2.188,7.771,7.771,0,0,1-4.128-4.75c-1.644-6.906,9.208-11.182,9.537-17.1.3-5.442-3.978,11.973-15.317,14.535C3482.029,1928.082,3477.184,1921.582,3488.867,1916.663Z" transform="translate(-3430.936 -1836.419)" fill="#9cd499"/>
      <path id="Path_20464" data-name="Path 20464" d="M3330.113,1832.156c2.631-5.591-4.275-6.906-3.947-2.631.292,3.788.324,13-3.561,15.5a60.96,60.96,0,0,1-22.709-7.542,2.8,2.8,0,0,1,.29-1.714c2.96-5.92,22.034-10.853,16.115-12.826-4.715-1.571-12.976,7.7-19.632,12.377-4-3.033-6.677-6.65-6.677-10.686,0-5.464,6.639-11.648,15.224-14.6,3.864.389,7.453,2.5,13.059,5.679,8.282,4.693,6.366-2.894-1.464-7.4a23.584,23.584,0,0,1,18.47,10.138s-.47,2.949,2.651,7.511c8.515,12.445-1.312,19.711-13.059,19.239C3325.535,1841.922,3328.295,1836.019,3330.113,1832.156Z" transform="translate(-3289.99 -1770.52)" fill="#9cd499"/>
      <path id="Path_20465" data-name="Path 20465" d="M3555.237,1919.851c6.431,4.97,13.575,10.78,22.346,14.726s7.016,16.81,7.016,16.81,1.316-11.109-5.993-14.91-12.132-8.332-17.687-9.209a80.443,80.443,0,0,1-8.624-1.754s1.754-3.508.731-4.823S3555.237,1919.851,3555.237,1919.851Z" transform="translate(-3482.471 -1852.304)" fill="#74b570"/>
      <path id="Path_20466" data-name="Path 20466" d="M3552.283,1700.848c-23.534,6.285-40.781,21.341-44,24.995s-3.215,4.677-3.215,4.677l2.485,4.678,1.17-.585s-1.9-3.947,3.07-9.062c8.57-8.823,19-15.786,26.164-18.856S3552.283,1700.848,3552.283,1700.848Z" transform="translate(-3447.817 -1691.66)" fill="#74b570"/>
      <path id="Rectangle_1101" data-name="Rectangle 1101" d="M16.071,0h0A16.072,16.072,0,0,1,32.143,16.072V32.234a0,0,0,0,1,0,0H0a0,0,0,0,1,0,0V16.071A16.071,16.071,0,0,1,16.071,0Z" transform="translate(60.073 139.45) rotate(180)" fill="#fbc993"/>
      <rect id="Rectangle_1102" data-name="Rectangle 1102" width="32.143" height="2.263" transform="translate(27.93 110.909)" fill="#fff"/>
      <rect id="Rectangle_1103" data-name="Rectangle 1103" width="32.143" height="1.331" transform="translate(27.93 115.035)" fill="#fff"/>
    </g>
    <g id="Group_15395" data-name="Group 15395" transform="translate(296.766 207.965)">
      <g id="Group_15382" data-name="Group 15382" transform="translate(359.771 0)">
        <path id="Path_20467" data-name="Path 20467" d="M1760.781,326a44.459,44.459,0,1,0-77.151,30.13,20.166,20.166,0,0,1,5.342,13.672v19.929a23.511,23.511,0,0,0,23.442,23.442h7.816a23.511,23.511,0,0,0,23.442-23.442V369.807a20.378,20.378,0,0,1,5.423-13.763A44.3,44.3,0,0,0,1760.781,326Z" transform="translate(-1671.863 -281.544)" fill="#f5dc95"/>
        <path id="Path_20468" data-name="Path 20468" d="M1771.691,354.333a38.248,38.248,0,1,0-66.373,25.92,17.35,17.35,0,0,1,4.6,11.762v17.145a20.227,20.227,0,0,0,20.167,20.168h6.724a20.227,20.227,0,0,0,20.167-20.168V392.017a17.534,17.534,0,0,1,4.666-11.84A38.106,38.106,0,0,0,1771.691,354.333Z" transform="translate(-1688.984 -306.891)" fill="#fff" opacity="0.5"/>
        <g id="Group_15380" data-name="Group 15380" transform="translate(19.042 56.122)">
          <path id="Path_20469" data-name="Path 20469" d="M1775.386,532.507h-14.641a1.331,1.331,0,0,1-1.325-1.21c-.026-.285-2.759-28.548-15.4-36.462a1.331,1.331,0,1,1,1.413-2.256c12.329,7.721,15.832,31.535,16.506,37.266h12.037a43.622,43.622,0,0,1,1.2-10.673,58.624,58.624,0,0,1,14.319-26.366,1.331,1.331,0,0,1,1.961,1.8c-16.617,18.09-14.769,36.237-14.749,36.418a1.331,1.331,0,0,1-1.322,1.481Z" transform="translate(-1743.398 -492.375)" fill="#6fb0a1"/>
        </g>
        <g id="Group_15381" data-name="Group 15381" transform="translate(17.398 42.492)">
          <path id="Path_20470" data-name="Path 20470" d="M1781.813,459.082c-4.942,0-11.681-3.512-18.779-7.318-9.167,4.883-17.728,9.26-22.52,6.355-2.252-1.365-3.329-4.037-3.292-8.169.035-3.89,1.15-6.512,3.315-7.793,4.8-2.843,13.38,1.692,22.5,6.588,9.3-4.961,18.061-9.58,22.845-6.667,2.148,1.308,3.212,3.966,3.161,7.9-.053,4.095-1.23,6.849-3.5,8.186A7.224,7.224,0,0,1,1781.813,459.082Zm-15.95-8.825c7.309,3.885,14.956,7.6,18.332,5.615,1.412-.832,2.148-2.827,2.188-5.927.038-2.928-.6-4.809-1.883-5.593C1781.236,442.364,1773.311,446.306,1765.863,450.257Zm-21.729-6.33a4.35,4.35,0,0,0-2.24.52c-1.308.774-1.984,2.633-2.009,5.526-.028,3.069.649,5.044,2.01,5.869,3.284,1.991,10.956-1.709,18.315-5.593C1754.259,447.075,1748.015,443.927,1744.133,443.927Z" transform="translate(-1737.221 -441.171)" fill="#6fb0a1"/>
        </g>
        <rect id="Rectangle_1104" data-name="Rectangle 1104" width="19.432" height="11.713" rx="5.856" transform="translate(35.192 126.245)" fill="#91c6ba"/>
        <path id="Path_20471" data-name="Path 20471" d="M1731.28,634.135v14.1a24.622,24.622,0,0,0,24.55,24.55h8.184a24.622,24.622,0,0,0,24.55-24.55v-14.1Z" transform="translate(-1715.464 -540.277)" fill="#6fb0a1"/>
        <rect id="Rectangle_1105" data-name="Rectangle 1105" width="62.467" height="6.744" rx="3.372" transform="translate(13.586 91.551)" fill="#91c6ba"/>
        <path id="Path_20472" data-name="Path 20472" d="M1782.9,651.276l-55.656,6.875a3.2,3.2,0,0,1-3.562-2.779l-.044-.352a3.2,3.2,0,0,1,2.779-3.562l55.655-6.875a3.2,3.2,0,0,1,3.562,2.779l.043.352A3.2,3.2,0,0,1,1782.9,651.276Z" transform="translate(-1709.836 -547.927)" fill="#91c6ba"/>
        <path id="Path_20473" data-name="Path 20473" d="M1782.9,687.868l-55.656,6.875a3.2,3.2,0,0,1-3.562-2.778l-.044-.352a3.2,3.2,0,0,1,2.779-3.562l55.655-6.875a3.2,3.2,0,0,1,3.562,2.779l.043.352A3.2,3.2,0,0,1,1782.9,687.868Z" transform="translate(-1709.836 -574.778)" fill="#91c6ba"/>
        <path id="Path_20474" data-name="Path 20474" d="M1796.272,727.032l-46.353,5.726a2.94,2.94,0,0,1-3.269-2.55l-.108-.874a2.94,2.94,0,0,1,2.55-3.269l46.353-5.726a2.94,2.94,0,0,1,3.269,2.55l.108.874A2.94,2.94,0,0,1,1796.272,727.032Z" transform="translate(-1726.647 -603.518)" fill="#91c6ba"/>
      </g>
      <g id="Group_15384" data-name="Group 15384" transform="translate(800.845 102.091)">
        <path id="Path_20475" data-name="Path 20475" d="M3358.7,710.656h29.876a29.877,29.877,0,1,1-29.876-29.877Z" transform="translate(-3328.826 -676.596)" fill="#6fb0a1"/>
        <g id="Group_15383" data-name="Group 15383" transform="translate(5.004)">
          <path id="Path_20476" data-name="Path 20476" d="M3489.736,694.941a29.876,29.876,0,0,0-29.876-29.876v29.876Z" transform="translate(-3429.983 -665.064)" fill="#f39892"/>
          <path id="Path_20477" data-name="Path 20477" d="M3347.623,777.3a29.877,29.877,0,0,0,29.877,29.877A30.02,30.02,0,0,1,3347.623,777.3Z" transform="translate(-3347.623 -747.423)" fill="#f39892"/>
          <path id="Path_20478" data-name="Path 20478" d="M3377.5,665.064a29.877,29.877,0,0,0-29.877,29.876A30.02,30.02,0,0,1,3377.5,665.064Z" transform="translate(-3347.623 -665.064)" fill="#f39892"/>
          <path id="Path_20479" data-name="Path 20479" d="M3459.859,807.177a29.876,29.876,0,0,0,29.876-29.877A30.019,30.019,0,0,1,3459.859,807.177Z" transform="translate(-3429.983 -747.423)" fill="#f39892"/>
        </g>
      </g>
      <g id="Group_15385" data-name="Group 15385" transform="translate(245.996 91.093)">
        <rect id="Rectangle_1106" data-name="Rectangle 1106" width="6.525" height="18.881" transform="translate(0 25.295)" fill="#6fb0a1"/>
        <rect id="Rectangle_1107" data-name="Rectangle 1107" width="6.525" height="12.738" transform="translate(83.637 31.437)" fill="#6fb0a1"/>
        <rect id="Rectangle_1108" data-name="Rectangle 1108" width="6.525" height="44.176" transform="translate(27.654)" fill="#6fb0a1"/>
        <rect id="Rectangle_1109" data-name="Rectangle 1109" width="6.525" height="19.856" transform="translate(41.481 24.32)" fill="#6fb0a1"/>
        <rect id="Rectangle_1110" data-name="Rectangle 1110" width="6.525" height="25.477" transform="translate(55.308 18.699)" fill="#6fb0a1"/>
        <rect id="Rectangle_1111" data-name="Rectangle 1111" width="6.525" height="31.347" transform="translate(13.827 12.829)" fill="#6fb0a1"/>
        <rect id="Rectangle_1112" data-name="Rectangle 1112" width="6.525" height="38.608" transform="translate(69.181 5.567)" fill="#6fb0a1"/>
      </g>
      <g id="Group_15387" data-name="Group 15387" transform="translate(0 21.733)">
        <g id="Group_15386" data-name="Group 15386" clip-path="url(#clip-path)">
          <path id="Path_20480" data-name="Path 20480" d="M479.72,526.35,445.5,505.424l-6.19,39.632A40.156,40.156,0,0,0,479.72,526.35Z" transform="translate(-407.637 -467.562)" fill="#6fb0a1"/>
          <path id="Path_20481" data-name="Path 20481" d="M496.82,474.043c.092-.151.213-.359.208-.351a40.115,40.115,0,0,0,.888-39.486c-12.11,6.345-4.9,2.49-35.353,18.958C496.841,474.125,491.517,470.892,496.82,474.043Z" transform="translate(-424.701 -415.301)" fill="#9cd499"/>
          <path id="Path_20482" data-name="Path 20482" d="M321.248,381.108l37.617,13.861,35.288-19.082C377.647,345.361,333.216,349.022,321.248,381.108Z" transform="translate(-321.003 -357.106)" fill="#9ec8ff"/>
          <path id="Path_20483" data-name="Path 20483" d="M345.723,506.846l6.19-39.632L314.3,453.353C305.351,477.335,321.227,502.984,345.723,506.846Z" transform="translate(-314.051 -429.352)" fill="#f39892"/>
          <path id="Path_20484" data-name="Path 20484" d="M310,425.656a3.859,3.859,0,0,1,1.9.492,38.343,38.343,0,0,1,1.366-5.338l20.426,7.526c0-.006,0-.013,0-.019a3.629,3.629,0,0,1,.888-2.492l-2.045-.754-18.337-6.757a39.3,39.3,0,0,1,5.908-9.936,3.974,3.974,0,0,1-2.039-1.712A42.012,42.012,0,0,0,311.7,417.4l-.022-.008-.463,1.242-.467,1.252.022.008a41.059,41.059,0,0,0-1.5,5.841A3.691,3.691,0,0,1,310,425.656Z" transform="translate(-312.214 -395.094)" fill="#fff"/>
          <path id="Path_20485" data-name="Path 20485" d="M385.379,372.766l.022-.012-.633-1.171c-.013-.024-.027-.047-.04-.07l-.518-.963-.02.01a40.956,40.956,0,0,0-16.534-16.038,42.078,42.078,0,0,0-45.966,5.017,4.113,4.113,0,0,1,1.692,2.061,38.871,38.871,0,0,1,22.408-8.943,38.181,38.181,0,0,1,35.983,19.033l-10.422,5.636c-2.152,1.158-5.16,2.785-10.2,5.51l-12.486,6.754-.321.174-1.048-.641-.057.366-7.34-2.7a3.67,3.67,0,0,1-.981,2.475l7.9,2.912-5.812,37.215a39.032,39.032,0,0,1-31.49-37.638,3.81,3.81,0,0,1-1.294.237,3.882,3.882,0,0,1-1.368-.249,41.687,41.687,0,0,0,33.74,40.281l0,.023,1.311.207,1.318.208,0-.023a41.479,41.479,0,0,0,39.758-18.452l.027.016.261-.427c.007,0,.424-.7.424-.7.065-.106.143-.239.188-.315l.028-.047.021-.036.422-.689-.019-.012A41.605,41.605,0,0,0,385.379,372.766ZM343.643,429.8l5.673-36.325,14.765,9.03c5.953,3.641,9.358,5.724,11.5,7.032l5.1,3.117A38.627,38.627,0,0,1,343.643,429.8Zm38.451-19.452-.254-.149c-1.4-.828-2.006-1.188-4.792-2.887l-26.072-15.943,21.643-11.7c3.178-1.71,4.481-2.391,7.709-4.079l2.765-1.446A38.937,38.937,0,0,1,382.093,410.349Z" transform="translate(-310.446 -353.436)" fill="#e7f3fe"/>
        </g>
      </g>
      <g id="Group_15389" data-name="Group 15389" transform="translate(144.775 15.093)">
        <path id="Rectangle_1113" data-name="Rectangle 1113" d="M8.169,0h98.364a8.17,8.17,0,0,1,8.17,8.17v35.5a8.17,8.17,0,0,1-8.17,8.17H8.169A8.169,8.169,0,0,1,0,43.668V8.169A8.169,8.169,0,0,1,8.169,0Z" fill="#6fb0a1"/>
        <rect id="Rectangle_1114" data-name="Rectangle 1114" width="108.431" height="35.785" rx="6.6" transform="translate(3.136 13.619)" fill="#fff"/>
        <g id="Group_15388" data-name="Group 15388" transform="translate(4.729 3.815)">
          <path id="Rectangle_1115" data-name="Rectangle 1115" d="M2.022,0h.449A2.022,2.022,0,0,1,4.494,2.022v0A2.022,2.022,0,0,1,2.472,4.044H2.022A2.022,2.022,0,0,1,0,2.022v0A2.022,2.022,0,0,1,2.022,0Z" fill="#fff"/>
          <path id="Rectangle_1116" data-name="Rectangle 1116" d="M2.022,0h.449A2.022,2.022,0,0,1,4.494,2.022v0A2.022,2.022,0,0,1,2.472,4.044h-.45A2.022,2.022,0,0,1,0,2.022v0A2.022,2.022,0,0,1,2.022,0Z" transform="translate(8.17)" fill="#fff"/>
          <path id="Rectangle_1117" data-name="Rectangle 1117" d="M2.022,0h.45A2.022,2.022,0,0,1,4.494,2.022v0A2.022,2.022,0,0,1,2.472,4.044H2.022A2.022,2.022,0,0,1,0,2.022v0A2.022,2.022,0,0,1,2.022,0Z" transform="translate(16.34)" fill="#fff"/>
        </g>
        <path id="Path_20486" data-name="Path 20486" d="M1103.907,409.412h-57.355a1.716,1.716,0,1,1,0-3.431h57.355a1.716,1.716,0,0,1,0,3.431Z" transform="translate(-996.751 -387.949)" fill="#e38540"/>
        <path id="Path_20487" data-name="Path 20487" d="M941.85,508.856H884.5a1.716,1.716,0,1,1,0-3.432H941.85a1.716,1.716,0,0,1,0,3.432Z" transform="translate(-877.833 -460.922)" fill="#e38540"/>
        <rect id="Rectangle_1118" data-name="Rectangle 1118" width="7.108" height="3.432" rx="1.716" transform="translate(68.061 44.502)" fill="#e38540"/>
        <rect id="Rectangle_1119" data-name="Rectangle 1119" width="7.108" height="3.432" rx="1.716" transform="translate(77.008 44.502)" fill="#e38540"/>
        <path id="Path_20488" data-name="Path 20488" d="M1003.783,440.536H908.805a1.164,1.164,0,1,1,0-2.329h94.978a1.164,1.164,0,1,1,0,2.329Z" transform="translate(-896.077 -411.597)" fill="#e38540"/>
        <path id="Path_20489" data-name="Path 20489" d="M1003.783,459.412H908.805a1.164,1.164,0,1,1,0-2.329h94.978a1.164,1.164,0,1,1,0,2.329Z" transform="translate(-896.077 -425.449)" fill="#e38540"/>
      </g>
      <g id="Group_15390" data-name="Group 15390" transform="translate(490.039 5.375)">
        <path id="Path_20490" data-name="Path 20490" d="M2210.213,330.284h-48.98V301.736h36.835l12.145,12.144Z" transform="translate(-2161.233 -301.736)" fill="#ffb8b3"/>
        <path id="Path_20491" data-name="Path 20491" d="M2296.233,301.736v15.238h13.044v-2.928l-12.228-12.227Z" transform="translate(-2260.297 -301.736)" fill="#f39892"/>
        <path id="Path_20492" data-name="Path 20492" d="M2299.611,301.736v12.31h12.145Z" transform="translate(-2262.776 -301.736)" fill="#ffb8b3"/>
        <path id="Path_20493" data-name="Path 20493" d="M2201.426,337.21H2179.6a.865.865,0,0,1,0-1.73h21.828a.865.865,0,1,1,0,1.73Z" transform="translate(-2174.075 -326.498)" fill="#fff"/>
        <path id="Path_20494" data-name="Path 20494" d="M2201.426,353.838H2179.6a.865.865,0,0,1,0-1.73h21.828a.865.865,0,1,1,0,1.73Z" transform="translate(-2174.075 -338.699)" fill="#fff"/>
        <path id="Path_20495" data-name="Path 20495" d="M2201.426,371.338H2179.6a.865.865,0,0,1,0-1.73h21.828a.865.865,0,1,1,0,1.73Z" transform="translate(-2174.075 -351.541)" fill="#fff"/>
      </g>
      <circle id="Ellipse_5" data-name="Ellipse 5" cx="1.464" cy="1.464" r="1.464" transform="translate(511.601 6.105)" fill="#3e6bab"/>
      <rect id="Rectangle_1120" data-name="Rectangle 1120" width="31.13" height="37.534" transform="translate(297.844 0.865) rotate(10.935)" fill="#fae8b6"/>
      <path id="Path_20496" data-name="Path 20496" d="M1483.3,353.837l-16.2-3.131a.8.8,0,1,1,.3-1.568l16.2,3.131a.8.8,0,1,1-.3,1.568Z" transform="translate(-1161.355 -331.134)" fill="#fff"/>
      <path id="Path_20497" data-name="Path 20497" d="M1480.357,369.055l-16.2-3.131a.8.8,0,1,1,.3-1.568l16.2,3.131a.8.8,0,0,1-.3,1.568Z" transform="translate(-1159.198 -342.301)" fill="#fff"/>
      <path id="Path_20498" data-name="Path 20498" d="M1477.336,384.692l-16.2-3.131a.8.8,0,0,1,.3-1.568l16.2,3.131a.8.8,0,0,1-.3,1.568Z" transform="translate(-1156.981 -353.776)" fill="#fff"/>
      <path id="Path_20499" data-name="Path 20499" d="M1481.271,298.995a1.331,1.331,0,1,1-1.054-1.559A1.331,1.331,0,0,1,1481.271,298.995Z" transform="translate(-1170.299 -293.188)" fill="#3e6bab"/>
      <path id="Path_20500" data-name="Path 20500" d="M2299.758,463.561l-47.3-4.983,3.124-29.65,37.505,3.951,8.765,10.829Z" transform="translate(-1738.134 -389.695)" fill="#b5ddd4"/>
      <path id="Path_20501" data-name="Path 20501" d="M2298.24,441.494l-35.209-3.709L2260.4,462.8l43.772,4.611,1.543-14.648-8.563-.9Z" transform="translate(-1743.96 -396.194)" fill="#fff"/>
      <path id="Path_20502" data-name="Path 20502" d="M2319.4,473.983l-22.808-2.4a.955.955,0,0,1,.2-1.9l22.808,2.4a.955.955,0,1,1-.2,1.9Z" transform="translate(-1769.895 -419.596)" fill="#6fb0a1"/>
      <path id="Path_20503" data-name="Path 20503" d="M2317.413,492.865l-22.808-2.4a.955.955,0,1,1,.2-1.9l22.808,2.4a.956.956,0,0,1-.2,1.9Z" transform="translate(-1768.435 -433.451)" fill="#6fb0a1"/>
      <path id="Path_20504" data-name="Path 20504" d="M2315.335,512.578l-22.808-2.4a.955.955,0,1,1,.2-1.9l22.808,2.4a.955.955,0,1,1-.2,1.9Z" transform="translate(-1766.911 -447.917)" fill="#6fb0a1"/>
      <circle id="Ellipse_6" data-name="Ellipse 6" cx="1.464" cy="1.464" r="1.464" transform="translate(533.682 44.615)" fill="#3e6bab"/>
      <g id="Group_15392" data-name="Group 15392" transform="translate(763.986 6.622)">
        <path id="Path_20505" data-name="Path 20505" d="M3223.021,322.75a16.331,16.331,0,1,1-16.331-16.331A16.331,16.331,0,0,1,3223.021,322.75Z" transform="translate(-3190.359 -306.419)" fill="#9cd499"/>
        <g id="Group_15391" data-name="Group 15391" transform="translate(9.476 11.049)">
          <path id="Path_20506" data-name="Path 20506" d="M3231.19,358.8h-.029a.8.8,0,0,1-.57-.27l-4.436-5.04a.8.8,0,0,1,1.2-1.055l3.88,4.408,8.875-8.686a.8.8,0,0,1,1.117,1.141l-9.476,9.274A.8.8,0,0,1,3231.19,358.8Z" transform="translate(-3225.956 -347.925)" fill="#fff"/>
        </g>
      </g>
      <g id="Group_15393" data-name="Group 15393" transform="translate(40.119 132.136)">
        <rect id="Rectangle_1121" data-name="Rectangle 1121" width="102.928" height="42.414" rx="16.483" transform="translate(102.928 42.414) rotate(180)" fill="#6fb0a1"/>
        <path id="Path_20507" data-name="Path 20507" d="M736.666,903.4v23.4L709.7,899.838S736.118,903.4,736.666,903.4Z" transform="translate(-646.17 -867.387)" fill="#6fb0a1"/>
        <rect id="Rectangle_1122" data-name="Rectangle 1122" width="92.281" height="34.005" rx="13.975" transform="translate(97.604 38.21) rotate(180)" fill="#fff"/>
        <path id="Path_20508" data-name="Path 20508" d="M643.879,815.241h41.683a1.828,1.828,0,0,0,0-3.657H643.879a1.828,1.828,0,0,0,0,3.657Z" transform="translate(-596.529 -802.626)" fill="#e38540"/>
        <rect id="Rectangle_1123" data-name="Rectangle 1123" width="79.344" height="2.054" rx="1.027" transform="translate(90.862 19.605) rotate(180)" fill="#e38540"/>
        <rect id="Rectangle_1124" data-name="Rectangle 1124" width="79.344" height="2.054" rx="1.027" transform="translate(90.862 23.584) rotate(180)" fill="#e38540"/>
      </g>
      <g id="Group_15394" data-name="Group 15394" transform="translate(707.31 137.078)">
        <rect id="Rectangle_1125" data-name="Rectangle 1125" width="8.708" height="7.837" rx="3.919" transform="translate(40.374 7.837) rotate(180)" fill="#6fb0a1"/>
        <path id="Rectangle_1126" data-name="Rectangle 1126" d="M3.918,0H4.79A3.918,3.918,0,0,1,8.708,3.918v0A3.919,3.919,0,0,1,4.79,7.837H3.919A3.919,3.919,0,0,1,0,3.918v0A3.918,3.918,0,0,1,3.918,0Z" transform="translate(24.541 7.837) rotate(180)" fill="#6fb0a1"/>
        <rect id="Rectangle_1127" data-name="Rectangle 1127" width="8.708" height="7.837" rx="3.919" transform="translate(8.708 7.837) rotate(180)" fill="#6fb0a1"/>
      </g>
    </g>
  </g>
</svg>
