<svg xmlns="http://www.w3.org/2000/svg" width="13" height="14.426" viewBox="0 0 13 14.426">
  <g id="materials" transform="translate(0 0)">
    <path id="Path_21214" data-name="Path 21214" d="M58.953-500.947a.73.73,0,0,0-.444.372l-.079.162v6.611c0,6.521,0,6.607.075,6.754a.791.791,0,0,0,.447.372,17.469,17.469,0,0,0,2.429,0,.9.9,0,0,0,.5-.5c.056-.21.06-13.06,0-13.274a.894.894,0,0,0-.511-.5A14.888,14.888,0,0,0,58.953-500.947Zm2.666,1.816-.011.293-1.437.011-1.44.008v-.6h2.9Zm.008,10.635v.282h-2.9v-.564h2.9v.282Z" transform="translate(-58.43 501)" fill="#2d7567"/>
    <path id="Path_21215" data-name="Path 21215" d="M337.4-500.862a.788.788,0,0,0-.436.41c-.068.143-.071.406-.071,6.712,0,6.321,0,6.57.071,6.716a.785.785,0,0,0,.436.414,5.353,5.353,0,0,0,1.3.045l1.151-.011.18-.113a.764.764,0,0,0,.271-.278l.087-.165v-6.6c0-5.445-.008-6.615-.049-6.716a.973.973,0,0,0-.5-.436A15.007,15.007,0,0,0,337.4-500.862Zm2.681,1.809-.011.293h-2.858l-.011-.293-.011-.29h2.9Zm.007,10.635v.282h-2.9v-.564h2.9Z" transform="translate(-332.791 500.923)" fill="#2d7567"/>
    <path id="Path_21216" data-name="Path 21216" d="M581.727-376.976a4.674,4.674,0,0,0-1.166.233.793.793,0,0,0-.354.44,11.846,11.846,0,0,0,.188,1.357c.44,2.587,1.681,9.837,1.7,9.943a.749.749,0,0,0,.485.459c.192.06.218.06,1.309-.09,1.211-.165,1.335-.2,1.515-.44a.706.706,0,0,0,.117-.293c.023-.214-1.85-11.2-1.94-11.383a.771.771,0,0,0-.632-.357A10.634,10.634,0,0,0,581.727-376.976Zm1.752,1.177a2.446,2.446,0,0,1,.045.3c.023.207.019.252-.026.252-.03,0-.662.087-1.4.188s-1.361.177-1.376.162a1.056,1.056,0,0,1-.053-.293l-.026-.263,1.384-.2c.763-.105,1.4-.192,1.41-.2S583.468-375.825,583.479-375.8Zm1.591,9.333c.019.154.038.282.034.286s-2.82.4-2.828.395a3.73,3.73,0,0,1-.079-.568c.015-.015,2.6-.384,2.741-.391C585.033-366.747,585.036-366.736,585.07-366.465Z" transform="translate(-572.525 378.932)" fill="#2d7567"/>
  </g>
</svg>
