<svg xmlns="http://www.w3.org/2000/svg" width="16.684" height="15.865" viewBox="0 0 16.684 15.865">
  <g id="mic_off" data-name="mic off" transform="translate(-442.158 -567)">
    <g id="microphone" transform="translate(367.664 567)">
      <g id="Group_12439" data-name="Group 12439" transform="translate(78.336 7.052)">
        <g id="Group_12438" data-name="Group 12438" transform="translate(0)">
          <path id="Path_19665" data-name="Path 19665" d="M87.716,209.925a.517.517,0,0,0-1.035,0,3.656,3.656,0,1,1-7.311,0,.517.517,0,0,0-1.035,0,4.689,4.689,0,0,0,4.173,4.673v1.379h-1.88a.517.517,0,1,0,0,1.035h4.794a.517.517,0,1,0,0-1.035h-1.88V214.6A4.689,4.689,0,0,0,87.716,209.925Z" transform="translate(-78.336 -209.408)" fill="#4cab99"/>
        </g>
      </g>
      <g id="Group_12441" data-name="Group 12441" transform="translate(80.147)">
        <g id="Group_12440" data-name="Group 12440" transform="translate(0)">
          <path id="Path_19666" data-name="Path 19666" d="M134.976,0a2.885,2.885,0,0,0-2.88,2.88V7.552a2.88,2.88,0,1,0,5.759.017V2.88A2.885,2.885,0,0,0,134.976,0Z" transform="translate(-132.096 0)" fill="#4cab99"/>
        </g>
      </g>
    </g>
    <line id="Line_104" data-name="Line 104" y1="15" x2="16" transform="translate(442.5 567.5)" fill="none" stroke="#4cab99" stroke-width="1"/>
  </g>
</svg>
