<svg xmlns="http://www.w3.org/2000/svg" width="13" height="14" viewBox="0 0 13 14">
  <g id="noticeboard" transform="translate(-17 -270)">
    <path id="Path_21196" data-name="Path 21196" d="M13,29.842h3.421v3.421H26V23H13Zm6.158-5.816h.684v2.843h-.684Zm0,3.472h.684v.633h-.684Z" transform="translate(4 250.737)" fill="#2d7567"/>
    <path id="Path_21197" data-name="Path 21197" d="M16.664,47.254V45H14.41Z" transform="translate(3.072 236.263)" fill="#2d7567"/>
    <path id="Path_21198" data-name="Path 21198" d="M13,48.664h2.254L13,46.41Z" transform="translate(4 235.336)" fill="#2d7567"/>
    <circle id="Ellipse_3152" data-name="Ellipse 3152" cx="1" cy="1" r="1" transform="translate(26 270)" fill="#2d7567"/>
    <circle id="Ellipse_3153" data-name="Ellipse 3153" cx="1" cy="1" r="1" transform="translate(19 270)" fill="#2d7567"/>
    <path id="Path_21199" data-name="Path 21199" d="M24.6,15a1.711,1.711,0,0,1-3.353,0H18.1a1.711,1.711,0,0,1-3.353,0H13v2.053H26V15Z" transform="translate(4 256)" fill="#2d7567"/>
  </g>
</svg>
