<svg xmlns="http://www.w3.org/2000/svg" width="861.209" height="553.844" viewBox="0 0 861.209 553.844">
  <g id="Principal" transform="translate(0)">
    <rect id="Rectangle_1078" data-name="Rectangle 1078" width="19.614" height="541.243" transform="translate(0 6.21)" fill="#ffe1c7"/>
    <rect id="Rectangle_1079" data-name="Rectangle 1079" width="313.422" height="544.793" transform="translate(547.787 6.046)" fill="#ffe1c7"/>
    <rect id="Rectangle_1080" data-name="Rectangle 1080" width="242.439" height="474.697" transform="translate(577.991 73.975)" fill="#13375b"/>
    <rect id="Rectangle_1081" data-name="Rectangle 1081" width="38.539" height="544.793" transform="translate(264.431 6.046)" fill="#ffe1c7"/>
    <g id="Group_15336" data-name="Group 15336" transform="translate(302.97 2.849)" opacity="0.5">
      <rect id="Rectangle_1082" data-name="Rectangle 1082" width="244.817" height="548.899" fill="#9bc1f9"/>
      <path id="Path_20231" data-name="Path 20231" d="M1125.307,39.145V576.977l225.76,1.137,1.661-538.969Z" transform="translate(-1116.655 -31.154)" fill="#c5ddf9"/>
      <path id="Path_20232" data-name="Path 20232" d="M1475.33,576.276h27.007l89.821-537.131h-27.007Z" transform="translate(-1369.749 -31.154)" fill="#fff" style="mix-blend-mode: soft-light;isolation: isolate"/>
      <path id="Path_20233" data-name="Path 20233" d="M1258.388,39.145h-55.667l-77.415,458.78v73.523h43.26Z" transform="translate(-1116.655 -31.154)" fill="#fff" style="mix-blend-mode: soft-light;isolation: isolate"/>
    </g>
    <g id="Group_15337" data-name="Group 15337" transform="translate(440.699 3.604)">
      <path id="Path_20234" data-name="Path 20234" d="M1626.182,18.3c.286.4.716.95,1.345,1.711l.025.033c-.025.09-7.983,28.913-1.715,31.1,5.748,2.007,6.232-19.125,3.9-27.982a43.65,43.65,0,0,1,3.359,6.2,53.551,53.551,0,0,1,3.45,13.768c-1.169,1.914-8.307,13.94-4.732,16.415,2.9,2.008,4.8-5.9,5.323-11.122.419,4.721.6,9.712.621,14.667-3.863.947-15.525,4.3-15.745,10.28-.246,6.687,9.78,4.715,15.742-7.689-.033,4.927-.214,9.762-.464,14.2-2.777,2.5-14.194,13.273-12.353,19.5,1.864,6.3,9.025-.917,12.046-14.683-.561,7.883-1.273,13.867-1.589,15.757-.1.623-.22,1.424-.344,2.367h0c-.045.345-.092.711-.14,1.093h0s-17.747,23.913-12.665,29.419c3.6,3.9,9-12.072,11.83-21.7-.981,10.223-1.842,23.558-1.02,27.671l.064-.013c-.627,9.219-1.058,25.98,4.022,26.827,7.025,1.171,0-17.562,0-17.562s8.573,3.421,9.366,0c1.329-5.728-10.679-13.794-12.617-15.052.022-5.091.486-12.307,1.064-18.86.646,14.051,4.157,18.229,5.524,18.692,1.694.573,5.182-2.865,3.986-13.726a25.543,25.543,0,0,0-8.357-15.91c.155-1.2.3-2.233.439-3.051.3-1.813.966-7.371,1.514-14.763,1.373,11.554,4.622,21.007,7.552,15.152,2.856-5.707-4.6-16.627-7.219-20.173.3-5.153.516-10.882.517-16.7,2.179,5.712,11.734,16.451,12.926,10.305,1.173-6.043-10.688-12.331-12.948-13.469-.068-4.98-.309-9.956-.8-14.626,2.652,4.708,10.743,14.354,11.7,9.147,1.1-5.944-12.467-15.07-12.467-15.07l-.02.022a49.738,49.738,0,0,0-3.146-11.577A44.32,44.32,0,0,0,1631,22.958c5.014,3.4,12.685,6.426,12.376,2.877-.335-3.851-12.135-6.966-15.9-7.863-.128-.185-.215-.263-.269-.261-1.348-1.659-2.768-3.224-4.215-4.7h-1.645A67.1,67.1,0,0,1,1626.182,18.3Z" transform="translate(-1613.051 -13.015)" fill="#327f6b"/>
      <path id="Path_20235" data-name="Path 20235" d="M1594.341,28.327c3.743,2.11,2.374-8.422,1.129-15.312h-3.658C1591.136,18.774,1590.975,26.429,1594.341,28.327Z" transform="translate(-1591.419 -13.015)" fill="#327f6b"/>
    </g>
    <g id="Group_15338" data-name="Group 15338" transform="translate(415.953 3.604)">
      <path id="Path_20236" data-name="Path 20236" d="M1583.492,27.735c4.973-.7.5-8.2-6.506-14.72h-7.341C1573.346,19.794,1578.974,28.368,1583.492,27.735Z" transform="translate(-1550.929 -13.015)" fill="#327f6b"/>
      <path id="Path_20237" data-name="Path 20237" d="M1514.74,13.015h-7.525c-3.859,4.812-6.774,10.738-4.151,16.052C1506.768,36.571,1511.76,23.1,1514.74,13.015Z" transform="translate(-1502.061 -13.015)" fill="#327f6b"/>
      <path id="Path_20238" data-name="Path 20238" d="M1529.9,13.015h-1.246c.32,2.227.667,4.7,1.029,7.372-3.012,5.942-18.394,37.3-11.064,44.028,8.106,7.44,10.993-30.647,10.993-30.647l.427-10.727c1.227,9.253,2.583,20.533,3.651,32.179-2.789,2.3-14.318,12.418-9.519,19.078,4.464,6.195,8.408-10.934,9.681-17.286.685,7.7,1.235,15.53,1.531,23-2.946,1.369-15.369,7.547-11.961,12.941,3.3,5.224,10.157-6.37,12.07-9.832.138,4.579.172,8.993.072,13.128-3.217,1.512-17.615,8.557-14.058,11.916,4,3.776,12.214-6.332,12.214-6.332s-6.44,25.876.562,23.1,2.325-24.651,2.547-25.206l-.119-.7c.136-3.4.173-7.016.126-10.782,1.3,3.33,3.811,8.878,5.324,6.489,1.78-2.81-3.654-8.544-5.4-10.269-.132-5.132-.4-10.485-.767-15.9,2.529,6.386,7.812,15.611,10.494,11.285,3.008-4.853-8.3-17.4-11.2-20.488-.673-7.95-1.5-15.823-2.357-23.1,3.556,9.3,15.141,28.989,18.884,22.271,3.9-7-16.184-28.912-20.239-33.224C1530.98,20.715,1530.405,16.56,1529.9,13.015Z" transform="translate(-1512.614 -13.015)" fill="#3c8f7c"/>
    </g>
    <path id="Path_20239" data-name="Path 20239" d="M1360.548,22.734c3.036,8.1,9.037,21.76,14.927,21.6,7.945-.214-3.4-17.935-15.093-26.2-.022-.574-.043-1.107-.064-1.609a48.165,48.165,0,0,0-5.61,1.506c-6.666,4.642-17.982,14.219-14.515,23.829,4.087,11.326,14.884-15.625,18.115-24.2.158,4.014.361,9.922.519,17.053-4.765,7.306-24.641,38.9-17.5,47.107C1349.413,91.115,1357.4,49.1,1357.4,49.1l1.52-9.93c.181,10.123.25,22.169-.01,34.533-3.9,2.582-17.009,12.045-12.642,19.811,3.981,7.08,10.078-9.323,12.575-16.9-.21,8.337-.574,16.76-1.16,24.783-3.978,1.362-17.607,6.551-14.586,12.785,2.883,5.949,11.3-4.777,14.281-8.9-.416,4.967-.923,9.743-1.539,14.206-4.363,1.5-20.215,7.312-16.78,11.376,3.975,4.7,14.384-5.516,14.384-5.516s-10.408,27.985-2.269,25.773c7.172-1.949,6.111-21.535,5.975-26.563.67-4.059,1.235-8.442,1.709-13.046,1.094,3.882,3.029,9.276,4.865,6.99,2.21-2.751-2.453-9.229-4.415-11.721.483-5.521.851-11.291,1.124-17.141,2.148,7.353,6.606,17.125,9.974,12.849,3.818-4.848-6.309-19.35-9.568-23.765.243-8.628.316-17.2.289-25.188,3.214,11.237,13.06,32.646,17.881,25.9,5.076-7.1-13.373-32.8-18.014-39.044C1360.876,33.515,1360.708,27.472,1360.548,22.734Z" transform="translate(-967.893 -11.952)" fill="#3c8f7c"/>
    <path id="Path_20240" data-name="Path 20240" d="M1436.277,33.251c4.264,4.991,8.667-11.378,10.616-19.945.066,5.875.138,13.742.183,22.852-2.631,2.7-10.781,11.687-9.645,18.344,1.1,6.461,7.39-7,9.67-12.183.015,4.759.022,9.78.016,14.977-3.295,2.863-11.254,10.627-7.456,15.9,3.075,4.267,5.866-4.187,7.445-10.637-.016,5.916-.05,12.009-.108,18.155-3.982,3.188-15.055,13.047-11.013,21.237,3.587,7.268,8.564-8.082,10.969-16.8-.073,6.551-.174,13.126-.31,19.576-2.185,3.655-10.148,17.658-5.789,20.675,2.357,1.631,4.2-1.8,5.416-6.253-.187,6.015-.414,11.8-.684,17.213-2.906,1.924-14.9,10.285-13.509,16.3.871,3.755,10.28,0,10.28,0s-7.71,20.56,0,19.275c5.467-.911,5.119-18.614,4.454-28.841q.172-2.821.324-5.81c1.14,4.283,3.073,7.383,5.261,4.764,3.848-4.606-3.277-15.538-4.708-17.634.2-5.629.367-11.505.5-17.506,2.958,5.76,14.21,19.513,15.5,12.515,1.24-6.726-12.037-16.6-15.368-18.961.111-5.973.194-12.023.254-18.034,2.136,4.552,9.426,19.129,14.865,18.368,6.309-.883-4.85-14.369-14.855-19.4.057-5.895.092-11.745.111-17.441.021.15.041.3.065.456.6,3.864,7.322,18.452,10.316,13.622s-10.316-18.429-10.316-18.429a.812.812,0,0,0-.054.121c.01-5.5.006-10.829-.008-15.877,2.117,5.351,9.52,17.223,11.891,13.241,2.251-3.781-8.291-15.011-11.91-18.691-.031-7.3-.082-13.882-.134-19.368,2.512,5.5,10.128,20.646,12.455,15.158,2.481-5.848-9.682-17.094-12.5-19.593-.006-.539-.011-1.062-.017-1.571h-6.045C1437.962,19.63,1432.744,29.116,1436.277,33.251Z" transform="translate(-1035.424 -9.411)" fill="#327f6b"/>
    <g id="Group_15339" data-name="Group 15339" transform="translate(19.613 2.849)" opacity="0.5">
      <rect id="Rectangle_1083" data-name="Rectangle 1083" width="244.817" height="550.995" fill="#9bc1f9"/>
      <rect id="Rectangle_1084" data-name="Rectangle 1084" width="227.422" height="534.336" transform="translate(8.652 8.022)" fill="#c5ddf9"/>
      <path id="Path_20241" data-name="Path 20241" d="M452.1,573.591H479.1L568.924,39.255H541.917Z" transform="translate(-346.514 -31.233)" fill="#fff" style="mix-blend-mode: soft-light;isolation: isolate"/>
      <path id="Path_20242" data-name="Path 20242" d="M235.153,39.255H179.487L102.072,499.787v80.346l42.239-.467Z" transform="translate(-93.42 -31.233)" fill="#fff" style="mix-blend-mode: soft-light;isolation: isolate"/>
    </g>
    <g id="Group_15342" data-name="Group 15342" transform="translate(0 2.075)">
      <g id="Group_15340" data-name="Group 15340" transform="translate(0)">
        <path id="Path_20243" data-name="Path 20243" d="M27.576,13.153c-.306.426-.767,1.017-1.441,1.834l-.027.035c.027.1,8.552,30.972,1.837,33.316-6.157,2.15-6.676-20.486-4.18-29.975A46.714,46.714,0,0,0,20.168,25a57.353,57.353,0,0,0-3.695,14.748c1.251,2.05,8.9,14.932,5.069,17.583-3.107,2.151-5.141-6.319-5.7-11.914-.449,5.057-.644,10.4-.666,15.711,4.138,1.014,16.631,4.6,16.866,11.012C32.3,79.3,21.563,77.192,15.177,63.9c.036,5.278.229,10.457.5,15.211C18.648,81.8,30.878,93.334,28.906,100c-2,6.751-9.668-.981-12.9-15.728.6,8.444,1.364,14.855,1.7,16.88.111.667.236,1.525.369,2.536h0c.049.37.1.762.149,1.171h0s19.01,25.616,13.567,31.513c-3.859,4.181-9.637-12.931-12.673-23.246,1.051,10.951,1.974,25.235,1.093,29.641l-.069-.014c.672,9.875,1.133,27.83-4.308,28.737-7.525,1.254,0-18.813,0-18.813s-9.183,3.665-10.033,0c-1.423-6.135,11.44-14.776,13.515-16.124-.024-5.454-.52-13.184-1.139-20.2-.692,15.051-4.453,19.527-5.918,20.022-1.814.614-5.55-3.069-4.27-14.7a27.361,27.361,0,0,1,8.952-17.043c-.166-1.284-.325-2.392-.471-3.268-.324-1.942-1.035-7.9-1.622-15.814-1.471,12.377-4.951,22.5-8.089,16.231-3.059-6.113,4.929-17.81,7.732-21.609-.324-5.52-.553-11.656-.554-17.888C11.6,68.395,1.364,79.9.087,73.315c-1.256-6.474,11.449-13.209,13.87-14.428.073-5.334.331-10.665.853-15.668C11.968,48.263,3.3,58.595,2.273,53.018,1.1,46.65,15.628,36.874,15.628,36.874l.021.024a53.28,53.28,0,0,1,3.37-12.4,47.446,47.446,0,0,1,3.4-6.353C17.047,21.788,8.829,25.028,9.16,21.226c.359-4.126,13-7.462,17.029-8.423.137-.2.23-.281.288-.279,1.444-1.777,2.965-3.454,4.515-5.031h1.762A71.917,71.917,0,0,0,27.576,13.153Z" transform="translate(0 -7.493)" fill="#327f6b"/>
        <path id="Path_20244" data-name="Path 20244" d="M132.262,23.895c-4.01,2.26-2.542-9.022-1.209-16.4h3.918C135.694,13.662,135.867,21.863,132.262,23.895Z" transform="translate(-93.749 -7.493)" fill="#327f6b"/>
      </g>
      <g id="Group_15341" data-name="Group 15341" transform="translate(25.623)">
        <path id="Path_20245" data-name="Path 20245" d="M114.228,23.261c-5.327-.746-.539-8.789,6.969-15.768h7.864C125.1,14.755,119.068,23.939,114.228,23.261Z" transform="translate(-106.582 -7.493)" fill="#327f6b"/>
        <path id="Path_20246" data-name="Path 20246" d="M197.049,7.493h8.06c4.134,5.155,7.256,11.5,4.447,17.2C205.589,32.726,200.242,18.3,197.049,7.493Z" transform="translate(-168.104 -7.493)" fill="#327f6b"/>
        <path id="Path_20247" data-name="Path 20247" d="M116.54,7.493h1.335c-.343,2.386-.714,5.033-1.1,7.9,3.227,6.365,19.7,39.956,11.852,47.163-8.683,7.969-11.776-32.829-11.776-32.829l-.458-11.491c-1.315,9.912-2.767,22-3.911,34.47,2.987,2.46,15.338,13.3,10.2,20.436-4.782,6.636-9.007-11.712-10.371-18.517-.734,8.253-1.323,16.636-1.64,24.637,3.156,1.466,16.464,8.084,12.813,13.863-3.536,5.6-10.88-6.824-12.93-10.532-.148,4.9-.184,9.632-.077,14.063,3.446,1.62,18.869,9.166,15.059,12.765-4.282,4.044-13.084-6.783-13.084-6.783s6.9,27.718-.6,24.744-2.491-26.406-2.729-27l.128-.755c-.146-3.642-.185-7.516-.135-11.549-1.392,3.567-4.082,9.51-5.7,6.952-1.907-3.01,3.914-9.153,5.781-11,.142-5.5.43-11.231.821-17.027-2.708,6.841-8.367,16.723-11.241,12.089-3.223-5.2,8.89-18.642,11.994-21.947.722-8.516,1.609-16.95,2.525-24.747C109.48,42.359,97.07,63.445,93.061,56.249c-4.175-7.494,17.337-30.97,21.68-35.59C115.38,15.741,116,11.29,116.54,7.493Z" transform="translate(-92.526 -7.493)" fill="#3c8f7c"/>
      </g>
      <path id="Path_20248" data-name="Path 20248" d="M282.147,16.686c-3.252,8.677-9.68,23.309-15.99,23.139-8.51-.23,3.638-19.213,16.168-28.062.024-.614.047-1.186.068-1.724a47.354,47.354,0,0,1,6.033,1.47c7.141,4.973,19.239,15.374,15.525,25.668-4.378,12.132-15.944-16.737-19.405-25.926-.169,4.3-.387,10.629-.555,18.267,5.1,7.826,26.395,41.674,18.748,50.461-8.663,9.955-17.215-35.053-17.215-35.053l-1.629-10.636c-.194,10.844-.267,23.747.011,36.992,4.174,2.766,18.221,12.9,13.542,21.222-4.265,7.584-10.8-9.986-13.471-18.108.225,8.93.616,17.953,1.243,26.547,4.262,1.459,18.86,7.018,15.624,13.695-3.089,6.372-12.105-5.117-15.3-9.529.445,5.321.989,10.437,1.649,15.218,4.673,1.608,21.655,7.832,17.974,12.186-4.258,5.036-15.408-5.909-15.408-5.909s11.149,29.977,2.431,27.608c-7.683-2.088-6.546-23.068-6.4-28.454-.717-4.348-1.323-9.043-1.831-13.975-1.171,4.159-3.245,9.936-5.211,7.488-2.367-2.947,2.628-9.886,4.73-12.556-.518-5.915-.911-12.095-1.2-18.361-2.3,7.876-7.077,18.344-10.684,13.764-4.09-5.193,6.758-20.728,10.25-25.457-.261-9.242-.339-18.425-.309-26.982-3.443,12.037-13.99,34.97-19.154,27.743-5.438-7.61,14.325-35.132,19.3-41.824C281.8,28.234,281.977,21.761,282.147,16.686Z" transform="translate(-189.04 -9.335)" fill="#3c8f7c"/>
      <path id="Path_20249" data-name="Path 20249" d="M223.385,29.17C218.818,34.516,214.1,16.981,212.013,7.8c-.07,6.294-.148,14.72-.2,24.479,2.819,2.892,11.549,12.519,10.331,19.65-1.182,6.921-7.916-7.5-10.358-13.051-.017,5.1-.024,10.477-.018,16.043,3.529,3.067,12.056,11.383,7.987,17.03-3.294,4.571-6.284-4.485-7.976-11.394.017,6.337.054,12.864.115,19.447,4.266,3.415,16.127,13.976,11.8,22.749-3.842,7.785-9.174-8.657-11.749-18,.078,7.018.187,14.061.332,20.97,2.34,3.915,10.87,18.915,6.2,22.147-2.524,1.747-4.5-1.93-5.8-6.7.2,6.443.443,12.638.732,18.439,3.112,2.061,15.965,11.017,14.471,17.459-.933,4.023-11.012,0-11.012,0s8.259,22.024,0,20.647c-5.856-.976-5.484-19.939-4.771-30.895q-.184-3.022-.347-6.223c-1.22,4.587-3.291,7.908-5.635,5.1-4.121-4.934,3.511-16.645,5.044-18.89-.216-6.03-.393-12.324-.537-18.752-3.169,6.17-15.222,20.9-16.6,13.407-1.328-7.205,12.895-17.784,16.463-20.311-.119-6.4-.208-12.879-.273-19.318-2.288,4.876-10.1,20.491-15.923,19.676-6.759-.946,5.195-15.392,15.912-20.782-.061-6.315-.1-12.582-.118-18.683-.022.16-.043.318-.07.488-.642,4.139-7.843,19.765-11.051,14.591s11.051-19.74,11.051-19.74a.832.832,0,0,1,.058.13c-.011-5.894-.007-11.6.009-17.007-2.268,5.731-10.2,18.45-12.737,14.184-2.411-4.05,8.881-16.08,12.758-20.022.034-7.824.087-14.87.143-20.748-2.691,5.893-10.849,22.116-13.342,16.237C194.242,23.9,207.27,11.853,210.289,9.176q.009-.866.019-1.683h6.475C221.58,14.579,227.17,24.74,223.385,29.17Z" transform="translate(-139.06 -7.493)" fill="#327f6b"/>
    </g>
    <g id="Group_15343" data-name="Group 15343" transform="translate(69.597 1.835)">
      <path id="Path_20250" data-name="Path 20250" d="M378.729,132.458h-1.3V9.156a98.107,98.107,0,0,1-43.532,17,118.754,118.754,0,0,1-40.842-1.966A149.276,149.276,0,0,1,252.628,9.032v50.4h-1.3V6.73l.994.611a145.1,145.1,0,0,0,41.048,15.588c21.981,4.726,54.455,5.862,84.331-15.563l1.032-.74Z" transform="translate(-251.324 -6.626)" fill="#13375b"/>
    </g>
    <g id="Group_15344" data-name="Group 15344" transform="translate(328.55 5.174)">
      <path id="Path_20251" data-name="Path 20251" d="M1187.74,81.2h-1.3V18.685l.934.448c.2.1,20.831,9.867,51.429,14.712,28.214,4.467,70.927,5.541,114.177-14.715l.928-.435V59.233h-1.3V20.743a186.263,186.263,0,0,1-60.707,16.233,213.043,213.043,0,0,1-53.342-1.85,212.9,212.9,0,0,1-50.81-14.391Z" transform="translate(-1186.436 -18.685)" fill="#13375b"/>
    </g>
    <rect id="Rectangle_1085" data-name="Rectangle 1085" width="542.193" height="6.21" transform="translate(0)" fill="#2d7567"/>
    <path id="Path_20252" data-name="Path 20252" d="M222.538,165.11h0a11.926,11.926,0,0,0-11.926,11.926v25.44h23.852v-25.44A11.926,11.926,0,0,0,222.538,165.11Z" transform="translate(-152.289 -119.387)" fill="#13375b"/>
    <path id="Path_20253" data-name="Path 20253" d="M677.9,444.221h0a11.926,11.926,0,0,0-11.926,11.926v25.44h23.852v-25.44A11.926,11.926,0,0,0,677.9,444.221Z" transform="translate(-481.554 -321.206)" fill="#13375b"/>
    <path id="Path_20254" data-name="Path 20254" d="M1159.4,232.577h0a11.926,11.926,0,0,0-11.926,11.926v25.44h23.852V244.5A11.926,11.926,0,0,0,1159.4,232.577Z" transform="translate(-829.713 -168.171)" fill="#13375b"/>
    <path id="Path_20255" data-name="Path 20255" d="M1757.689,137.078h0A11.926,11.926,0,0,0,1745.763,149v25.44h23.852V149A11.926,11.926,0,0,0,1757.689,137.078Z" transform="translate(-1262.323 -99.118)" fill="#13375b"/>
    <rect id="Rectangle_1086" data-name="Rectangle 1086" width="378.727" height="6.21" transform="translate(482.482)" fill="#2d7567"/>
    <path id="Path_20256" data-name="Path 20256" d="M445.329,730.8c-7.162-3.069-15.177-6.18-22.52-3.573-4.624,1.642-8.183,5.319-11.563,8.877-3.705,3.9-7.642,8.339-7.734,13.719a19.671,19.671,0,0,0,1.267,6.407,37.084,37.084,0,0,0,5.576,11.426c4.252,5.441,10.783,8.668,17.434,10.525,5.885,1.643,7.346,1.063,13.451.8,4.121-.178,10.653-6.728,13.328-9.868,4.252-4.989,3.882-26.611-.6-32.062a23.5,23.5,0,0,0-4.772-4.143,38.394,38.394,0,0,0-3.79-2.29Z" transform="translate(-291.77 -525.134)" fill="#13375b"/>
    <g id="Group_15345" data-name="Group 15345" transform="translate(319.437 207.658)">
      <path id="Path_20257" data-name="Path 20257" d="M1188.241,875.451a20.5,20.5,0,0,0-1.767-7.236c-1.4-2.693-3.862-4.636-6.012-6.777a37.6,37.6,0,0,1-8.964-14.289c-1.435-4.146-2.15-8.563-4.127-12.478-1.207-2.391-2.854-4.528-4.225-6.828-3.241-5.436-5.005-11.861-9.4-16.411a19.728,19.728,0,0,0,4.456,15.6,26.259,26.259,0,0,1,3.163,3.846c1.5,2.623,1.361,5.823,1.536,8.84a38.816,38.816,0,0,0,4.642,16.246c2.884,5.3,7.046,10.011,8.588,15.842,1.155,4.37.812,9.272,3.275,13.059a3.34,3.34,0,0,1,.638,1.308,2.86,2.86,0,0,1-.048.821q-.083.528-.165,1.055c-.561,3.577-1.14,8.128,1.934,10.8,2.13,1.855,4.871,1.9,6.4-.568,1.54-2.481,1.4-6.113,1.289-8.905C1189.263,884.736,1188.765,880.073,1188.241,875.451Z" transform="translate(-1153.529 -794.387)" fill="#3c8f7c"/>
      <path id="Path_20258" data-name="Path 20258" d="M1254.1,828.067c-1.2-4.14-3.052-8.083-3.982-12.292a57.927,57.927,0,0,1-.912-12.482l-.01-13.743a51.8,51.8,0,0,0-.477-8.532c-1.014-6.052-4.159-11.647-4.692-17.76-.23-2.644.037-5.315-.253-7.953a12.517,12.517,0,0,0-1.25-4.381,1.952,1.952,0,0,0-3.5.1c-1.528,3.31-2.5,6.888-1.879,10.434a42.734,42.734,0,0,0,1.979,6.158c3.064,9.113,1.437,19.2,3.808,28.52.715,2.813,1.8,5.571,1.923,8.471.3,6.94-4.882,13.281-4.407,20.211.39,5.683,4.475,10.385,6.19,15.816.96,3.04,1.166,6.285,2.194,9.3.8,2.344,2.657,5.192,5.543,4.48,2.74-.675,1.913-2.912,1.79-5.049C1255.749,842.139,1256.139,835.127,1254.1,828.067Z" transform="translate(-1213.852 -749.88)" fill="#327f6b"/>
      <path id="Path_20259" data-name="Path 20259" d="M1291.168,842.644a33,33,0,0,1-.183-6.448,37.592,37.592,0,0,1,1.483-5.246,47.16,47.16,0,0,0,1.43-10.107q.634-9.276,1.268-18.552c.656-9.613,1.317-19.253,3.114-28.718.5-2.628,1.059-5.476-.122-7.875-.249-.506-.739-1.042-1.276-.874-.383.12-.57.541-.709.918-3.929,10.677-5.414,22.172-9.8,32.669a42,42,0,0,0-2.816,7.66c-.653,3.207-.294,6.52-.21,9.792a46.207,46.207,0,0,1-1.632,13.934,57.711,57.711,0,0,0-1.958,7.1,37.329,37.329,0,0,0,.216,9.16,140.693,140.693,0,0,1,.565,17.644c-.106,3.46,2.814,3.369,4.749,1.244,1.353-1.487,1.341-3.118,1.8-4.969C1288.614,853.9,1291.538,849.231,1291.168,842.644Z" transform="translate(-1244.648 -760.663)" fill="#3c8f7c"/>
      <path id="Path_20260" data-name="Path 20260" d="M1209.887,1028.045c-2.583-4.15-7.728-6.509-9.379-11.111-.42-1.171-.584-2.431-1.1-3.564-1.14-2.517-3.731-3.94-6.278-5.1a.539.539,0,0,0-.761.485h0a1.838,1.838,0,0,0,.8,1.554,10.334,10.334,0,0,1,4.118,5.617c.787,2.7.445,5.654,1.423,8.288.821,2.211,2.511,4.018,3.306,6.24.726,2.03.649,4.248.991,6.378s1.287,4.389,3.242,5.29C1213.324,1045.382,1211.556,1030.726,1209.887,1028.045Z" transform="translate(-1181.615 -936.682)" fill="#327f6b"/>
      <path id="Path_20261" data-name="Path 20261" d="M1328.363,1002.417c-.11,2.006.2,4.109-.589,5.959a18.064,18.064,0,0,1-2.147,3.188c-2.6,3.683-3.548,8.9-7.55,10.976a1.362,1.362,0,0,1-.851.205,1.305,1.305,0,0,1-.844-.856c-.981-2.286.12-4.861.771-7.262a1.779,1.779,0,0,0,.01-1.274c-.22-.425-.722-.609-1.065-.943a3.109,3.109,0,0,1-.483-2.71,61.421,61.421,0,0,1,1.427-7.008,12.259,12.259,0,0,1,1.5-3.749,16.615,16.615,0,0,1,3.161-3.128,37.459,37.459,0,0,0,10.936-16.143,10.6,10.6,0,0,1,1.83-3.824,3.05,3.05,0,0,1,3.822-.779c.828.582-2.563,6.036-2.958,6.69-1.13,1.869-1.145,3.495-1.783,5.571C1331.985,992.416,1328.662,996.968,1328.363,1002.417Z" transform="translate(-1270.667 -912.423)" fill="#3c8f7c"/>
      <path id="Path_20262" data-name="Path 20262" d="M1306.268,957.647a24.691,24.691,0,0,0,1.73-5.891c.271-2.266-.089-4.583.3-6.831.5-2.891,2.183-5.433,3.017-8.245a54.474,54.474,0,0,0,1.112-6.251c1.035-5.968,3.841-11.8,3.036-17.8-.175-1.306-.765-2.828-2.061-3.051a2.5,2.5,0,0,0-2.546,2.024,10.929,10.929,0,0,0,.006,3.559,14.692,14.692,0,0,1-2.632,9.422c-1.843,2.608-4.518,4.572-6.176,7.3-2.035,3.349-2.311,7.436-3.35,11.216-2.065,7.516-7.243,14.074-8.187,21.812-.375,3.079.347,6.822,3.189,8.052C1301.925,976.519,1304.406,962.462,1306.268,957.647Z" transform="translate(-1252.516 -865.333)" fill="#327f6b"/>
      <path id="Path_20263" data-name="Path 20263" d="M1241.28,1117.684h-18.863a2,2,0,0,0-1.943,2.464l6.876,29a2,2,0,0,0,1.943,1.539h22.659a2,2,0,0,0,1.943-1.539l6.876-29a2,2,0,0,0-1.943-2.464Z" transform="translate(-1201.896 -1015.831)" fill="#f7cc7f"/>
    </g>
    <path id="Path_20264" data-name="Path 20264" d="M630.834,1049.454c.522-1.513-6.831-2.708-7.227-4.235s9.273-1.68,9.614-3.024c.629-2.476-10.6-.484-10.383-1.642s11.7-3.782,10.448-5.763-11.619,3.963-11.938,2.618,10.141-4.66,9.943-7.613c-.106-1.578-17.16,7.931-19.144,7.08s2.1-8.284.521-9.379-6.053,15.1-7.14,15.642-24.124,13.8-32.331,15.922c-1.007-2.748-8.225-17.309-9.114-19.907-4.6,3.3-9.94,4.031-14.686,7.037,3.476,8.624,15.389,29.844,17.794,30.92,7.322,3.277,35.511-20.27,41.14-24.3s8.871-2.745,12.686-4.027S630.312,1050.967,630.834,1049.454Z" transform="translate(-397.256 -742.921)" fill="#f48c7f"/>
    <g id="Group_15346" data-name="Group 15346" transform="translate(88.041 315.555)">
      <path id="Path_20265" data-name="Path 20265" d="M333.854,1244.6l2.593-2.176c-9.5-11.114-14.716-32.294-15.1-61.25a303.055,303.055,0,0,1,2.382-41.2l-3.364-.469a306.6,306.6,0,0,0-2.415,41.665,180.433,180.433,0,0,0,3.422,34.686C324.027,1228.344,328.226,1238.013,333.854,1244.6Z" transform="translate(-317.928 -1139.51)" fill="#13375b"/>
    </g>
    <path id="Path_20266" data-name="Path 20266" d="M248.99,999.146c-1.586,0-62.617-3.561-63.674,4.37s-3.172,69.8,7.4,71.91,61.864-7.4,61.864-7.4Z" transform="translate(-133.339 -721.884)" fill="#f47458"/>
    <path id="Path_20267" data-name="Path 20267" d="M485.232,1657.166l4.827-.042c-.637-46.328-1.2-116.686-.134-120.633a1.434,1.434,0,0,1-.321.531l-3.917-2.248c-.633.7-1.015,1.123-1.147,20.825-.068,10.139-.042,24.14.077,41.614C484.82,1626.959,485.229,1656.867,485.232,1657.166Z" transform="translate(-350.334 -1109.761)" fill="#13375b"/>
    <path id="Path_20268" data-name="Path 20268" d="M411.4,1480.152c-2.02-.4,5.148,6.956,0,9.275s-82.83.927-88.914-1.855-13.571-7.42-10.763-13.448,50.679-13.912,50.679-13.912l43.382,11.593S413.74,1480.616,411.4,1480.152Z" transform="translate(-224.961 -1055.846)" fill="#f47458"/>
    <path id="Path_20269" data-name="Path 20269" d="M508.614,1031.645s-15.584-11.286-20.3-19.369,3.208-2.821,11.3-4.948c3.064-.805,2.288-18.6,8.079-12.813,9.5,9.487,17.263,28.33,17.263,28.33Z" transform="translate(-352.071 -718.278)" fill="#466eb6"/>
    <path id="Path_20270" data-name="Path 20270" d="M409.382,965.885s-16.432-3.215-23.93,2.994,1.606,61.4,1.6,70.553-5.149,35-5.149,35,49.8,8.638,57.713-5.1c0,0,2.251-52.332,1.915-58.913s-7.719-33.495-9.76-36.377S409.382,965.885,409.382,965.885Z" transform="translate(-276.145 -697.808)" fill="#86b1f2"/>
    <path id="Path_20271" data-name="Path 20271" d="M464.753,876.139s-.086.487-.242,1.315c-.745,3.974-3.615,17.158-5.554,20.783-2.343,4.38,8.022,18.35,18,16.645,2.969-.507-2.51-12.836-2.247-14.142.5-2.5,1.188-5.91,1.887-9.407.395-1.973.794-3.973,1.17-5.852,1.067-5.342,1.937-9.711,1.937-9.711Z" transform="translate(-331.62 -633.25)" fill="#f7a491"/>
    <path id="Path_20272" data-name="Path 20272" d="M478.7,877.454c.155-.828.242-1.315.242-1.315l14.948-.369s-.87,4.369-1.937,9.711c-.373,1.869-.771,3.858-1.163,5.82a14.064,14.064,0,0,1-7.137-3.539,18.64,18.64,0,0,1-5.406-7.952C478.435,878.875,478.589,878.07,478.7,877.454Z" transform="translate(-345.813 -633.25)" fill="#f47458"/>
    <path id="Path_20273" data-name="Path 20273" d="M474.3,755.654s-7.046-.805-11.462,4.844-9.177,23.118,1.794,32.616,21.81-1.253,23.418-12.652S490.287,755.242,474.3,755.654Z" transform="translate(-331.111 -546.368)" fill="#f7a491"/>
    <path id="Path_20274" data-name="Path 20274" d="M457.887,748.553s-9.413,16.612-16.147,17.38-7.618,9.595-7.618,9.595,2.408-20.34,9.074-24.263S457.887,748.553,457.887,748.553Z" transform="translate(-313.905 -541.135)" fill="#13375b"/>
    <path id="Path_20275" data-name="Path 20275" d="M378.739,1957.653h57.52a4.776,4.776,0,0,1,4.8,4.754h0a.835.835,0,0,1-.839.831H374.781a.835.835,0,0,1-.839-.831h0A4.776,4.776,0,0,1,378.739,1957.653Z" transform="translate(-270.389 -1415.536)" fill="#13375b"/>
    <g id="Group_15347" data-name="Group 15347" transform="translate(102.918 371.265)">
      <path id="Path_20276" data-name="Path 20276" d="M610.111,1785.667s-15.117,17.962-15.217,19.525.6,18.621,2.4,20.184,7.079,2.671,5.381,4.429c-1.283,1.329-11.156,1.045-17.7.688-1.91-.1-4.305-15.206-5.062-17.426-1.1-3.224-3.771-10.485-2.772-12.732.487-1.095,2.815-3.345,6.1-5.445,3.451-2.209,16.651-20.41,16.651-20.41Z" transform="translate(-520.079 -1654.354)" fill="#f48c7f"/>
      <path id="Path_20277" data-name="Path 20277" d="M577.727,1847.8s10.151,28.323,14.124,29.69c1.055.363,6.118,1.284,7.073,3.5a9.516,9.516,0,0,1,0,2.9H577.766s-2.676-12.479-3.734-17.962c0,0-5.6-13.4-4.978-14.614S577.727,1847.8,577.727,1847.8Z" transform="translate(-514.354 -1707.369)" fill="#466eb6"/>
      <path id="Path_20278" data-name="Path 20278" d="M1023.751,1823.5s12.345,17.223,11.259,22.672c-.582,2.918-3.171,6.736-1.685,9.482a7.418,7.418,0,0,0,3.184,3.432l38.509.614c2.1.033.711-1.3-.98-2.531-2.769-2.013-5-3.344-13.846-7.574-.576-.276-2.676-1.6-3.434-2.054a26.561,26.561,0,0,1-5.508-4.812c-2.765-3.044-14.924-27.853-14.924-27.853Z" transform="translate(-843.171 -1683.56)" fill="#f7a491"/>
      <path id="Path_20279" data-name="Path 20279" d="M1080.518,1930.6c-10.184,2.584-17.712.827-21.924-.852-1.086,3.044-2.526,6.863-1.762,9.065.935,2.7,2.266,3.306,3.442,3.336,9.3.242,34.075.57,41.168.662a1.145,1.145,0,0,0,.9-1.884C1100.583,1938.847,1081.277,1931.056,1080.518,1930.6Z" transform="translate(-866.936 -1766.621)" fill="#466eb6"/>
      <path id="Path_20280" data-name="Path 20280" d="M528.435,1374.374s-15.286,17.289-19.185,20.028-41.314,71.015-41.314,71.015l13.329,9.644s33.439-41.319,49.144-63.42c13.278-18.686,8.387-17.5,16.2-28.877a15.1,15.1,0,0,0-2.345-19.81q-1.058-.948-2.3-1.979c-11.558-9.547-90.787-20.29-90.787-20.29l-50.676,4.918s41.4,28.772,42.949,29.538,57.177,8.805,58.336,8.805S528.435,1374.374,528.435,1374.374Z" transform="translate(-392.507 -1340.684)" fill="#eab054"/>
      <path id="Path_20281" data-name="Path 20281" d="M374.491,1355.151s-8.692,25.842,4.346,37.9,90.5,10.719,115.995,10.719c0,0,10.431,28.33,11.59,32.924s51.768,63.934,51.768,63.934l13.908-8.805s-54.472-104.9-58.722-109.492-64.9-22.97-79.97-27.182S374.491,1355.151,374.491,1355.151Z" transform="translate(-371.652 -1349.792)" fill="#f7cc7f"/>
    </g>
    <path id="Path_20282" data-name="Path 20282" d="M471.921,1940.722h7.046a3.758,3.758,0,0,1,3.775,3.74h0a3.758,3.758,0,0,1-3.775,3.741h-7.046a3.758,3.758,0,0,1-3.775-3.741h0A3.758,3.758,0,0,1,471.921,1940.722Z" transform="translate(-338.506 -1403.293)" fill="#13375b"/>
    <path id="Path_20283" data-name="Path 20283" d="M508.082,1060.144l-46.034-11.087s-16.28-21.638-31.96-40.295c-4.824,4.539-7.6,11.609-12.455,16.1l34.5,39.424a6.769,6.769,0,0,0,4.934,2.3l49.011,1.166Z" transform="translate(-301.982 -729.414)" fill="#f7a491"/>
    <path id="Path_20284" data-name="Path 20284" d="M406.441,1018.948s-21.889-17.852-26.6-25.935-1.217-21.625,6.873-23.751,34.487,34.465,34.487,34.465Z" transform="translate(-273.119 -700.787)" fill="#466eb6"/>
    <path id="Path_20285" data-name="Path 20285" d="M516.021,871.795l7.412.707a3.236,3.236,0,0,0-3.152-3.21C516.317,868.8,516.021,871.795,516.021,871.795Z" transform="translate(-373.124 -628.526)" fill="#fff"/>
    <g id="Group_15348" data-name="Group 15348" transform="translate(203.287 328.394)">
      <path id="Path_20286" data-name="Path 20286" d="M768.218,1192.809c.483-.737-.728-1.988-1.636-2.926-1.006-1.039-7.1-3.648-8.134-3.962s-9.914.927-13.313,2.03a12.133,12.133,0,0,1-5.638.65c-.891-.18-2.231-.422-3.271-.635l-2.131,7.855c7.978-.1,16.321.489,17.077.47,2.4-.06,6.789-2.547,7.808-2.911a7.217,7.217,0,0,1,4.47.568c1.387.644,5.425,2.176,6.1,1.82S768.218,1192.809,768.218,1192.809Z" transform="translate(-734.095 -1185.872)" fill="#f7a491"/>
    </g>
    <g id="Group_15349" data-name="Group 15349" transform="translate(194.132 277.956)">
      <path id="Path_20287" data-name="Path 20287" d="M849.6,1003.734H773.314a4.975,4.975,0,0,0-4.6,3.059l-23.489,56.771H703.166a2.119,2.119,0,0,0-2.13,2.109h0a2.119,2.119,0,0,0,2.13,2.109h119.7a8.361,8.361,0,0,0,7.623-4.889l23.652-52.211A4.933,4.933,0,0,0,849.6,1003.734Z" transform="translate(-701.036 -1003.734)" fill="#184655"/>
      <path id="Path_20288" data-name="Path 20288" d="M1067.614,1108.761a4.192,4.192,0,1,1-3.147-5.426A4.482,4.482,0,0,1,1067.614,1108.761Z" transform="translate(-960.123 -1075.702)" fill="#fff"/>
    </g>
    <rect id="Rectangle_1087" data-name="Rectangle 1087" width="232.748" height="203.049" transform="translate(179.272 344.933)" fill="#44a088"/>
    <rect id="Rectangle_1088" data-name="Rectangle 1088" width="398.123" height="6.197" transform="translate(30.277 341.834)" fill="#355389"/>
    <rect id="Rectangle_1089" data-name="Rectangle 1089" width="134.034" height="200.164" transform="translate(179.466 548.195) rotate(180)" fill="#96d9c9"/>
    <rect id="Rectangle_1090" data-name="Rectangle 1090" width="366.951" height="36.764" transform="translate(45.432 348.031)" fill="#50bfa5" opacity="0.5" style="mix-blend-mode: multiply;isolation: isolate"/>
    <path id="Path_20289" data-name="Path 20289" d="M1504.295,1700.107h5.813l-12.391-107.7H1491.9Z" transform="translate(-1078.763 -1151.435)" fill="#355389"/>
    <path id="Path_20290" data-name="Path 20290" d="M1284.476,1700.107h-5.813l12.392-107.7h5.813Z" transform="translate(-924.573 -1151.435)" fill="#355389"/>
    <path id="Path_20291" data-name="Path 20291" d="M1512.861,1212.58h79.3a19.085,19.085,0,0,0,18.551-16.828l13.1-127.995a14.916,14.916,0,0,0-15.105-16.828h-79.3a19.085,19.085,0,0,0-18.551,16.828l-13.1,127.995A14.916,14.916,0,0,0,1512.861,1212.58Z" transform="translate(-1082.93 -759.904)" fill="#eab054"/>
    <path id="Path_20292" data-name="Path 20292" d="M1433.348,1212.58h79.3a19.085,19.085,0,0,0,18.551-16.828l13.1-127.995a14.916,14.916,0,0,0-15.105-16.828h-79.3a19.085,19.085,0,0,0-18.551,16.828l-13.1,127.995A14.916,14.916,0,0,0,1433.348,1212.58Z" transform="translate(-1025.436 -759.904)" fill="#f7cc7f"/>
    <path id="Path_20293" data-name="Path 20293" d="M1397.473,1573.63h112.394a17.885,17.885,0,0,0,17.384-15.769h0a13.978,13.978,0,0,0-14.155-15.77H1400.7a17.885,17.885,0,0,0-17.384,15.77h0A13.977,13.977,0,0,0,1397.473,1573.63Z" transform="translate(-1000.186 -1115.052)" fill="#eab054"/>
    <path id="Path_20294" data-name="Path 20294" d="M1314.164,1085.322l-31.121,36.607c-1.655,1.238-30.993,21.06-34.368,23.348h0c-3.587-1.193-15.009-7.05-15.266-5.384-.293,1.9,7.914,4.048,7.166,6.074s-19.381,7.862-18.308,9.025c2.007,2.175,11.608-3.138,12.365-1.98s-10.691,4.6-10.112,6.864,10.38-4.257,11.37-3.618-8.181,7.419-5.951,8.665c1.21.677,7.973-6.236,8.809-4.9s-3.356,7.5-1.9,8.159,2.712-5.7,6.266-7.588c2.646-1.405,4.039-3.558,7.385-5.108,0-.01,0-.02,0-.03,11.487-5.683,44.282-21.433,45.909-22.969,1.655-1.564,32.708-43.366,32.708-43.366Z" transform="translate(-883.762 -784.772)" fill="#f8a492"/>
    <path id="Path_20295" data-name="Path 20295" d="M1296.149,1573.63h112.394a17.885,17.885,0,0,0,17.384-15.769h0a13.978,13.978,0,0,0-14.155-15.77H1299.378a17.885,17.885,0,0,0-17.384,15.77h0A13.978,13.978,0,0,0,1296.149,1573.63Z" transform="translate(-926.921 -1115.052)" fill="#f7cc7f"/>
    <path id="Path_20296" data-name="Path 20296" d="M1513.945,850.926a49.8,49.8,0,0,1,4.549-24c3.166-6.587,11-10.324,18.14-10.333,22.679-.029,25.563,29.935,40,41.494,4.411,3.532,9.342,6.408,13.516,10.217,15.413,14.064,8.447,36.48-5.706,48.81-9.821,8.556-25.233,17.035-37.338,10.346-6.318-3.491-11.115-9.295-14.533-15.654-4.85-9.025-7.976-19.438-11.426-29.057C1517.475,872.514,1514.4,861.856,1513.945,850.926Z" transform="translate(-1094.661 -590.462)" fill="#13375b"/>
    <path id="Path_20297" data-name="Path 20297" d="M1501.714,1102.718s16.937-17.367,21.3-24.912-2.968-2.633-10.452-4.619c-2.834-.751-2.117-17.359-7.474-11.961-8.789,8.857-19.839,24.343-19.839,24.343Z" transform="translate(-1073.948 -766.57)" fill="#96d9c9"/>
    <path id="Path_20298" data-name="Path 20298" d="M1558.534,1034.5s15.2-3,22.137,2.794-1.486,57.32-1.479,65.862,4.763,32.674,4.763,32.674-46.071,8.064-53.389-4.758c0,0-.166-49.233.144-55.376s5.224-30.886,7.113-33.577S1558.534,1034.5,1558.534,1034.5Z" transform="translate(-1106.687 -747.461)" fill="#50bfa5"/>
    <path id="Path_20299" data-name="Path 20299" d="M1595.916,950.721s.08.454.224,1.228c.689,3.71,4.041,18.023,5.628,21.509,1.081,2.373-7.911,15.022-17.138,13.431-2.747-.474,2.322-11.982,2.078-13.2-.466-2.334-1.1-5.517-1.746-8.781-.365-1.842-.735-3.709-1.082-5.463-.987-4.987-1.792-9.065-1.792-9.065Z" transform="translate(-1143.973 -687.197)" fill="#f7a491"/>
    <path id="Path_20300" data-name="Path 20300" d="M1596.14,951.949c-.144-.773-.224-1.228-.224-1.228l-13.828-.344s.805,4.078,1.792,9.065c.345,1.745.713,3.6,1.076,5.432a12.962,12.962,0,0,0,6.6-3.3,17.408,17.408,0,0,0,5-7.423C1596.389,953.276,1596.247,952.524,1596.14,951.949Z" transform="translate(-1143.973 -687.197)" fill="#f47458"/>
    <path id="Path_20301" data-name="Path 20301" d="M1563.316,838.247s6.518-.752,10.6,4.522,8.489,21.581-1.66,30.447-20.176-1.17-21.663-11.811S1548.531,837.864,1563.316,838.247Z" transform="translate(-1120.68 -606.092)" fill="#f7a491"/>
    <path id="Path_20302" data-name="Path 20302" d="M1539.379,906.224c1.212,2.35,3.245,3.651,4.542,2.907s1.366-3.254.155-5.6-3.245-3.651-4.542-2.907S1538.168,903.873,1539.379,906.224Z" transform="translate(-1112.466 -651.066)" fill="#f7a491"/>
    <path id="Path_20303" data-name="Path 20303" d="M1595.781,831.619s8.708,15.508,14.937,16.224,7.047,8.957,7.047,8.957-2.227-18.987-8.394-22.649S1595.781,831.619,1595.781,831.619Z" transform="translate(-1153.874 -601.207)" fill="#13375b"/>
    <path id="Path_20304" data-name="Path 20304" d="M1643.481,893.284c-.507,2.754.513,5.28,2.276,5.641s3.6-1.578,4.11-4.332-.512-5.279-2.276-5.641S1643.987,890.53,1643.481,893.284Z" transform="translate(-1188.271 -642.75)" fill="#f7a491"/>
    <g id="Group_15350" data-name="Group 15350" transform="translate(261.873 383.364)">
      <path id="Path_20305" data-name="Path 20305" d="M1432.2,1799.767s13.984,16.768,14.077,18.227-.556,17.383-2.219,18.842-6.549,2.494-4.978,4.135c1.187,1.24,10.32.975,16.373.642,1.767-.1,3.982-14.195,4.682-16.267,1.016-3.009,3.488-9.787,2.564-11.885-.45-1.022-2.6-3.122-5.64-5.083-3.192-2.062-15.4-19.052-15.4-19.052Z" transform="translate(-1297.465 -1677.186)" fill="#f48c7f"/>
      <path id="Path_20306" data-name="Path 20306" d="M1469.748,1857.769s-9.39,26.439-13.066,27.716c-.976.339-5.659,1.2-6.543,3.27a8.969,8.969,0,0,0,0,2.708h19.573s2.475-11.649,3.454-16.768c0,0,5.181-12.506,4.605-13.642S1469.748,1857.769,1469.748,1857.769Z" transform="translate(-1310.351 -1726.676)" fill="#f7cc7f"/>
      <path id="Path_20307" data-name="Path 20307" d="M1003.328,1835.083s-11.42,16.078-10.415,21.164c.538,2.724,2.933,6.288,1.559,8.851a6.891,6.891,0,0,1-2.945,3.2l-35.623.573c-1.94.031-.658-1.215.907-2.363,2.561-1.88,4.628-3.122,12.808-7.071.533-.257,2.476-1.49,3.176-1.917a24.643,24.643,0,0,0,5.1-4.493c2.558-2.842,13.805-26,13.805-26Z" transform="translate(-952.357 -1704.449)" fill="#f7a491"/>
      <path id="Path_20308" data-name="Path 20308" d="M966.1,1935.059c9.421,2.413,16.385.772,20.281-.8,1,2.842,2.336,6.406,1.63,8.462-.865,2.517-2.1,3.086-3.184,3.114-8.605.226-31.522.533-38.083.618a1.07,1.07,0,0,1-.833-1.759C947.537,1942.76,965.4,1935.487,966.1,1935.059Z" transform="translate(-945.657 -1781.987)" fill="#f7cc7f"/>
      <path id="Path_20309" data-name="Path 20309" d="M1228.547,1415.823s14.141,16.14,17.747,18.7,38.219,66.293,38.219,66.293l-12.331,9s-30.934-38.571-45.462-59.2c-12.283-17.444-7.759-16.338-14.982-26.956a14.186,14.186,0,0,1,2.169-18.494q.978-.885,2.131-1.848c10.693-8.912,83.985-18.941,83.985-18.941l46.879,4.591s-38.3,26.858-39.731,27.573-52.892,8.22-53.964,8.22S1228.547,1415.823,1228.547,1415.823Z" transform="translate(-1136.269 -1384.374)" fill="#13375b"/>
      <path id="Path_20310" data-name="Path 20310" d="M1246.162,1397.879s8.041,24.124-4.021,35.381-83.716,10.007-107.3,10.007c0,0-9.649,26.446-10.722,30.735s-47.889,59.683-47.889,59.683l-12.866-8.22s50.391-97.922,54.322-102.211,60.04-21.443,73.978-25.374S1246.162,1397.879,1246.162,1397.879Z" transform="translate(-1030.766 -1392.876)" fill="#355389"/>
    </g>
    <path id="Path_20311" data-name="Path 20311" d="M1585.953,946.989l-6.694.216a2.928,2.928,0,0,1,3.013-2.727C1585.859,944.258,1585.953,946.989,1585.953,946.989Z" transform="translate(-1141.928 -682.922)" fill="#fff"/>
    <rect id="Rectangle_1091" data-name="Rectangle 1091" width="12.889" height="200.164" transform="translate(179.466 348.031)" fill="#50bfa5" opacity="0.5" style="mix-blend-mode: multiply;isolation: isolate"/>
    <path id="Path_20312" data-name="Path 20312" d="M449.72,815.072c.624,2.936-.557,5.675-2.639,6.118s-4.276-1.578-4.9-4.514.557-5.675,2.638-6.118S449.1,812.136,449.72,815.072Z" transform="translate(-319.611 -586.053)" fill="#f7a491"/>
    <rect id="Rectangle_1092" data-name="Rectangle 1092" width="222.62" height="468.659" transform="translate(587.901 83.089)" fill="#6e90bd"/>
    <path id="Path_20313" data-name="Path 20313" d="M420.616,700.569a9.087,9.087,0,0,0-2.452-4.521,5.592,5.592,0,0,0-7.4.281,14.385,14.385,0,0,1-2.189,2.346c-2.04,1.308-5.182.021-6.915,1.714a7.449,7.449,0,0,0-1.187,1.94c-1.253,2.354-3.507,4.069-4.678,6.465a8.42,8.42,0,0,0-.455,6.181,10.423,10.423,0,0,0,4.449,5.456,19.889,19.889,0,0,0,6.693,2.5,7.368,7.368,0,0,0,3.47.1,8.184,8.184,0,0,0,3.174-2.133c1.473-1.371,3.009-2.842,3.561-4.777a3.954,3.954,0,0,1,.872-2.046c.994-.858,2.533-.277,3.462-1.354.682-.791.518-1.713.547-2.7A31.052,31.052,0,0,0,420.616,700.569Z" transform="translate(-285.582 -502.382)" fill="#13375b"/>
    <rect id="Rectangle_1093" data-name="Rectangle 1093" width="861.069" height="6.009" transform="translate(0.14 547.835)" fill="#2d8c70"/>
    <rect id="Rectangle_1094" data-name="Rectangle 1094" width="173.699" height="196.019" transform="translate(612.361 102.999)" fill="#9bc1f9"/>
    <rect id="Rectangle_1095" data-name="Rectangle 1095" width="161.356" height="182.948" transform="translate(618.5 109.429)" fill="#c5ddf9"/>
    <path id="Path_20314" data-name="Path 20314" d="M2481.824,578.109h19.162l63.728-182.948h-19.162Z" transform="translate(-1794.553 -285.732)" fill="#fff" style="mix-blend-mode: soft-light;isolation: isolate"/>
    <path id="Path_20315" data-name="Path 20315" d="M2327.9,395.161h-39.5L2233.482,552.84v25.269h30.693Z" transform="translate(-1614.982 -285.732)" fill="#fff" style="mix-blend-mode: soft-light;isolation: isolate"/>
    <g id="Group_15352" data-name="Group 15352" transform="translate(466.454 270.316)">
      <g id="Group_15351" data-name="Group 15351" transform="translate(17.11 20.519)">
        <path id="Path_20316" data-name="Path 20316" d="M2339.695,1699.9h5.818l-12.4-107.779h-5.818Z" transform="translate(-2166.379 -1442.062)" fill="#355389"/>
        <path id="Path_20317" data-name="Path 20317" d="M2119.713,1699.9H2113.9l12.4-107.779h5.818Z" transform="translate(-2012.076 -1442.062)" fill="#355389"/>
        <path id="Path_20318" data-name="Path 20318" d="M1972.01,1699.9h5.818l-12.4-107.779h-5.818Z" transform="translate(-1900.515 -1442.062)" fill="#355389"/>
        <path id="Path_20319" data-name="Path 20319" d="M1752.029,1699.9h-5.818l12.4-107.779h5.818Z" transform="translate(-1746.211 -1442.062)" fill="#0e2e35"/>
        <path id="Path_20320" data-name="Path 20320" d="M1980.582,1212.011h79.354a19.1,19.1,0,0,0,18.564-16.84l13.114-128.089a14.927,14.927,0,0,0-15.116-16.841h-79.354a19.1,19.1,0,0,0-18.564,16.841l-13.114,128.089A14.927,14.927,0,0,0,1980.582,1212.011Z" transform="translate(-1904.685 -1050.241)" fill="#e25a44"/>
        <path id="Path_20321" data-name="Path 20321" d="M1901.01,1212.011h79.354a19.1,19.1,0,0,0,18.564-16.84l13.114-128.089a14.927,14.927,0,0,0-15.116-16.841h-79.354a19.1,19.1,0,0,0-18.565,16.841l-13.114,128.089A14.927,14.927,0,0,0,1901.01,1212.011Z" transform="translate(-1847.148 -1050.241)" fill="#f47458"/>
        <path id="Path_20322" data-name="Path 20322" d="M1865.109,1573.329h112.477a17.9,17.9,0,0,0,17.4-15.781h0a13.988,13.988,0,0,0-14.166-15.781H1868.34a17.9,17.9,0,0,0-17.4,15.781h0A13.988,13.988,0,0,0,1865.109,1573.329Z" transform="translate(-1821.88 -1405.653)" fill="#e25a44"/>
        <path id="Path_20323" data-name="Path 20323" d="M1763.711,1573.329h112.477a17.9,17.9,0,0,0,17.4-15.781h0a13.988,13.988,0,0,0-14.166-15.781H1766.942a17.9,17.9,0,0,0-17.4,15.781h0A13.988,13.988,0,0,0,1763.711,1573.329Z" transform="translate(-1748.561 -1405.653)" fill="#f47458"/>
      </g>
      <path id="Path_20324" data-name="Path 20324" d="M1922.529,1320.39l-11.689,55.839,20.171-1.955,9.708-51.073Z" transform="translate(-1848.14 -1225.06)" fill="#f7a491"/>
      <path id="Path_20325" data-name="Path 20325" d="M1940.555,1220.218l21.65,1.172s1.614-14.948,1.983-22.1c.448-8.676.287-19.889-.773-19.7-2.976.523-7.019,1.942-9.544,5.059C1945.133,1195.437,1940.555,1220.218,1940.555,1220.218Z" transform="translate(-1869.627 -1123.249)" fill="#5184ce"/>
      <path id="Path_20326" data-name="Path 20326" d="M1954.79,1197c-.52,2.625-14.235,75.6-14.235,75.6,32.464,17.8,57.244,2.613,57.244,2.613s-1.236-49.058.426-55.864c1.1-4.5,5.092-34.155,2.189-35.154a89.964,89.964,0,0,0-14.057-3.9c-4.012-.627-19.671-1.68-22.523-.883A35.751,35.751,0,0,0,1954.79,1197Z" transform="translate(-1869.627 -1122.914)" fill="#eafcfc"/>
      <path id="Path_20327" data-name="Path 20327" d="M1988.171,980.6s-13.133-.2-12.046,10.675c0,0-9.769,3.8-3.257,12.6,0,0-6.948,9.467,5.147,18.559,0,0,3.212,12.717,16.905,6.638,0,0,4.05,3.021,9.653-1.022s6.333-6.436,6.333-6.436,12.39-2.349,10.688-13.745c0,0,6.507-5.549-3.322-12.521,0,0,.179-15.631-13.1-13.525C2005.171,981.828,1997.413,969.9,1988.171,980.6Z" transform="translate(-1891.373 -976.143)" fill="#13375b"/>
      <path id="Path_20328" data-name="Path 20328" d="M2108.088,1070.388c.356,2.773,2.164,4.826,4.038,4.586s3.106-2.683,2.75-5.457-2.164-4.827-4.038-4.586S2107.733,1067.615,2108.088,1070.388Z" transform="translate(-1990.722 -1040.33)" fill="#f7a491"/>
      <path id="Path_20329" data-name="Path 20329" d="M1995.276,1099c1.151,2.548,3.481,3.982,5.2,3.2s2.185-3.474,1.033-6.023-3.481-3.982-5.2-3.2S1994.124,1096.455,1995.276,1099Z" transform="translate(-1908.736 -1060.472)" fill="#f7a491"/>
      <path id="Path_20330" data-name="Path 20330" d="M2049.552,1131.488c.015.2-1.1,7.34-1.69,11.117a2.991,2.991,0,0,0,1.922,3.267c3.575,1.323,10.538,3.023,14.92-1.584a1.971,1.971,0,0,0,.526-1.574L2063.412,1126Z" transform="translate(-1947.191 -1084.501)" fill="#f7a491"/>
      <path id="Path_20331" data-name="Path 20331" d="M2051.951,1135.485c3.795,1.573,8.4,1.27,13.338-2.139a20.51,20.51,0,0,0,1.758-1.358l-.651-5.99-13.861,5.489C2052.542,1131.584,2052.285,1133.306,2051.951,1135.485Z" transform="translate(-1950.175 -1084.501)" fill="#f48c7f"/>
      <path id="Path_20332" data-name="Path 20332" d="M2015.687,1022.29a16.622,16.622,0,0,1,11.3,2.176c5.519,3.428,14.478,16.906,6.988,28.621s-20.213,5.979-24.692-3.3S2002.9,1026.694,2015.687,1022.29Z" transform="translate(-1916.872 -1009.35)" fill="#f7a491"/>
      <path id="Path_20333" data-name="Path 20333" d="M2063.729,1128.025l-7.372,2.228a3.366,3.366,0,0,1,2.537-3.925C2062.812,1125.02,2063.729,1128.025,2063.729,1128.025Z" transform="translate(-1953.318 -1084.5)" fill="#fff"/>
      <path id="Path_20334" data-name="Path 20334" d="M2005.631,1018.356s5.6-3,9.77-2.6,17.761,10.275,19.738,8.621-.572-10.394-2.148-11.66a66.984,66.984,0,0,0-8.415-5.152,57.37,57.37,0,0,0-7.232.285c-.98.25-8.048,3.624-8.048,3.624Z" transform="translate(-1916.682 -998.844)" fill="#13375b"/>
      <path id="Path_20335" data-name="Path 20335" d="M1872.821,1867.14s.375,8.864.378,8.882c.168,1.127.853,3.916.838,4.939-.054,3.84-17.38-1.432-13.538-3.073a17.046,17.046,0,0,0,2.7-4.686,34.589,34.589,0,0,0,.7-6.077Z" transform="translate(-1811.338 -1620.392)" fill="#f7a491"/>
      <path id="Path_20336" data-name="Path 20336" d="M1824.931,1893.133a61.334,61.334,0,0,0,6.223-.208c2.053-.267,3.9-3.982,5.479-3.728,1.735.281,4.9,9.969,4.9,9.969s-24.925,7.009-31.262,6.75C1807.759,1905.813,1817.791,1897.961,1824.931,1893.133Z" transform="translate(-1775.135 -1636.344)" fill="#f47458"/>
      <path id="Path_20337" data-name="Path 20337" d="M1746.7,1895.255s.375,8.864.379,8.882c.167,1.127.852,3.917.838,4.939-.054,3.84-16.964-.916-13.122-2.558.348-.148,1.941-3.935,2.281-5.2a34.607,34.607,0,0,0,.7-6.077Z" transform="translate(-1720.437 -1640.721)" fill="#f7a491"/>
      <path id="Path_20338" data-name="Path 20338" d="M1699.48,1922.322a61.3,61.3,0,0,0,6.223-.208c2.053-.266,3.9-3.982,5.479-3.727,1.735.28,4.9,9.969,4.9,9.969s-24.925,7.009-31.261,6.749C1682.308,1935,1692.34,1927.149,1699.48,1922.322Z" transform="translate(-1684.424 -1657.449)" fill="#f47458"/>
      <path id="Path_20339" data-name="Path 20339" d="M1820.493,1514.946l-48.3.033s-21.817-.652-25.294,6.881-4.063,100.464-4.063,100.464,11.087-1.583,11.686-2.221l14.933-51.068a40.427,40.427,0,0,0,1.462-14.979l-1.2-13.348,19.927,1.091s22.6-.277,30.073-7.744S1820.493,1514.946,1820.493,1514.946Z" transform="translate(-1726.658 -1365.74)" fill="#0e2e35"/>
      <path id="Path_20340" data-name="Path 20340" d="M1936.6,1495.784l-53.341,2.353s-22.358,1.734-25.835,9.267,1.35,93.569,1.35,93.569,11.087-1.583,11.686-2.221c.464-.494,7.207-31.12,10.226-44.915a48.473,48.473,0,0,0,1.029-13.339l-.719-11.7,6.788.7a78.756,78.756,0,0,0,35.259-4.323c4.713-1.732,9-3.822,11.4-6.222C1941.92,1511.492,1936.6,1495.784,1936.6,1495.784Z" transform="translate(-1808.603 -1351.884)" fill="#184655"/>
      <path id="Path_20341" data-name="Path 20341" d="M2173.544,1330.084c-.119-.334-.408-.35-.7-.368a73.053,73.053,0,0,1-8.559-.912,6.181,6.181,0,0,1-1.367-.4,3.6,3.6,0,0,0-2.369-.162,4.806,4.806,0,0,1-1.323.1c-1.442-.052-5.513-1.581-7.615-2.017a1.241,1.241,0,0,1-.957-.956c-1.822-8.29-5.7-26.883-6.089-32.969-.5-7.783-4.754-42.937-4.754-42.937l-14.463,3.547s5.089,26.01,6.326,38.583c.956,9.709,9.974,30.531,12.818,36.526,1.342,4.438,4.658,4.665,5.427,4.783a1.782,1.782,0,0,1,1.117.644,8.037,8.037,0,0,0,1.759,1.631,4.236,4.236,0,0,1,1.2,1.267c.581.909,1.1,1.855,1.606,2.8.338.63.706.837,1.241.708a1.126,1.126,0,0,0,.869-1.243,5.678,5.678,0,0,0-.768-2.851,1.537,1.537,0,0,1,.179-2.043,6.457,6.457,0,0,1,1.115-1.163,1.856,1.856,0,0,1,1.483-.488,23.676,23.676,0,0,0,3.108.681l.862.2c.03.006.47.115.47.115.073.021,1.593.236,2.115.253.42.014,1.1.063,1.676.109a9.334,9.334,0,0,0,1.675-.2,2.026,2.026,0,0,0,1.356-.495c.16-.135.314-.287.243-.527a.533.533,0,0,0-.455-.365,20.355,20.355,0,0,1-2.094-.42c.529.016,2.186.03,2.715.032a2.489,2.489,0,0,0,1.847-.744C2173.432,1330.618,2173.663,1330.42,2173.544,1330.084Z" transform="translate(-2003.245 -1173.778)" fill="#f7a491"/>
      <path id="Path_20342" data-name="Path 20342" d="M2141.992,1232.668l-20.952,10.129s-3.289-15.388-5.745-24.9c-2.112-8.178,8.33-22.729,11.808-20.738C2134.881,1201.616,2141.992,1232.668,2141.992,1232.668Z" transform="translate(-1995.776 -1135.822)" fill="#5184ce"/>
    </g>
    <rect id="Rectangle_1096" data-name="Rectangle 1096" width="51.581" height="5.086" transform="translate(734.479 316.352)" fill="#13375b"/>
    <g id="Group_15353" data-name="Group 15353" transform="translate(641.437 156.802)">
      <path id="Path_20343" data-name="Path 20343" d="M2316.309,567.926h6.74a6.48,6.48,0,0,1,4.217,1.182,4.4,4.4,0,0,1,1.406,3.569,5.736,5.736,0,0,1-1.2,3.64q-1.209,1.564-4.62,1.564h-4.31v6.6h-2.229Zm2.229,1.874v6.206h4.065a3.757,3.757,0,0,0,3.013-.964,3.508,3.508,0,0,0,.779-2.321,2.491,2.491,0,0,0-1.025-2.294,5.291,5.291,0,0,0-2.768-.627Z" transform="translate(-2316.309 -567.457)" fill="#13375b"/>
      <path id="Path_20344" data-name="Path 20344" d="M2370.947,584.484V567.926h7.339q.426,0,1.1.044a6.667,6.667,0,0,1,1.362.245,4.744,4.744,0,0,1,2.054,1.226,3.991,3.991,0,0,1,.937,2.926,4.409,4.409,0,0,1-.806,2.7,3.565,3.565,0,0,1-2.005,1.411v.065a2.666,2.666,0,0,1,2.049,1.716,12.132,12.132,0,0,1,.36,2.724,2.336,2.336,0,0,0,.022.332v.316a11.812,11.812,0,0,0,.109,1.586,2.848,2.848,0,0,0,.294.959.865.865,0,0,0,.109.131.848.848,0,0,0,.115.18h-2.343a.25.25,0,0,1-.071-.109.433.433,0,0,1-.065-.093,2.318,2.318,0,0,1-.354-1q-.071-.561-.114-1.629v-.4a8.275,8.275,0,0,0-.469-2.7q-.425-1.09-2.654-1.09h-4.735v7.029Zm2.229-14.684v5.8h4.958a3.427,3.427,0,0,0,2.142-.561,3,3,0,0,0,.959-1.248,3.391,3.391,0,0,0,.156-.624,3.911,3.911,0,0,0,.046-.559,2.425,2.425,0,0,0-.937-2.185,4.858,4.858,0,0,0-2.7-.627Z" transform="translate(-2355.816 -567.457)" fill="#13375b"/>
      <path id="Path_20345" data-name="Path 20345" d="M2429.127,567.926h2.229v16.558h-2.229Z" transform="translate(-2397.885 -567.457)" fill="#13375b"/>
      <path id="Path_20346" data-name="Path 20346" d="M2453.925,571.364v13.12H2451.7V567.926h2.452l8.816,13.12v-13.12h2.234v16.558h-2.458Z" transform="translate(-2414.204 -567.457)" fill="#13375b"/>
      <path id="Path_20347" data-name="Path 20347" d="M2524.219,577.768h2.3a7.328,7.328,0,0,1-.2,1.117,6.851,6.851,0,0,1-.469,1.275,6.555,6.555,0,0,1-2.1,2.43,7.048,7.048,0,0,1-4.31,1.117q-.354,0-1.471-.115a7.024,7.024,0,0,1-2.386-.714,7.306,7.306,0,0,1-2.768-2.452,8.829,8.829,0,0,1-1.248-5.154q0-.447.088-1.719a9.5,9.5,0,0,1,.626-2.7,8.362,8.362,0,0,1,2.272-3.193,7.073,7.073,0,0,1,4.822-1.428,7.4,7.4,0,0,1,4.533,1.139,5.608,5.608,0,0,1,2.229,3.525q.092.49.136.915H2524q-.021-.267-.065-.561a3.929,3.929,0,0,0-.179-.578,4.178,4.178,0,0,0-1.362-1.763,4.755,4.755,0,0,0-3.013-.8,4.57,4.57,0,0,0-4.174,2,9.329,9.329,0,0,0-1.27,5.067,8.042,8.042,0,0,0,1.384,4.6,4.721,4.721,0,0,0,4.217,2.076,4.418,4.418,0,0,0,3.367-1.247A4.636,4.636,0,0,0,2524.219,577.768Z" transform="translate(-2457.496 -566.233)" fill="#13375b"/>
      <path id="Path_20348" data-name="Path 20348" d="M2576.045,567.926h2.229v16.558h-2.229Z" transform="translate(-2504.118 -567.457)" fill="#13375b"/>
      <path id="Path_20349" data-name="Path 20349" d="M2598.611,567.926h6.74a6.481,6.481,0,0,1,4.217,1.182,4.4,4.4,0,0,1,1.406,3.569,5.738,5.738,0,0,1-1.2,3.64q-1.209,1.564-4.62,1.564h-4.31v6.6h-2.229Zm2.229,1.874v6.206h4.065a3.757,3.757,0,0,0,3.013-.964,3.509,3.509,0,0,0,.779-2.321,2.491,2.491,0,0,0-1.024-2.294,5.292,5.292,0,0,0-2.768-.627Z" transform="translate(-2520.435 -567.457)" fill="#13375b"/>
      <path id="Path_20350" data-name="Path 20350" d="M2653.25,567.926h2.229v16.558h-2.229Z" transform="translate(-2559.944 -567.457)" fill="#13375b"/>
      <path id="Path_20351" data-name="Path 20351" d="M2672.193,580.2l-1.564,4.283h-2.387l6.271-16.558h2.386l6.271,16.558h-2.387L2679.2,580.2Zm.6-1.874h5.8l-2.9-8.151Z" transform="translate(-2570.785 -567.457)" fill="#13375b"/>
      <path id="Path_20352" data-name="Path 20352" d="M2739.721,582.61v1.874H2729.08V567.926h2.229V582.61Z" transform="translate(-2614.775 -567.457)" fill="#13375b"/>
    </g>
    <path id="Path_20353" data-name="Path 20353" d="M1484.431,1218.916c-1.295-.941,4.05-6.131,3.5-7.61s-8.564,3.932-9.614,3.025c-1.933-1.67,8.414-6.466,7.573-7.291s-11.755,3.6-11.865,1.257,11.8-3.4,11.287-4.689-10.983,1.986-12.511-.548c-.817-1.354,18.61-3.323,19.75-5.157s-6.467-5.588-5.8-7.391,13.608,8.913,14.81,8.737,27.679-2.5,35.623-5.457c-.747-2.829-3.166-18.9-3.925-21.54,5.656.07,10.457-2.387,16.07-2.639,2.088,9.061,4.47,33.279,3.115,35.538-4.127,6.879-40.72,3.714-47.644,3.631s-8.845,2.828-12.707,3.961S1485.726,1219.858,1484.431,1218.916Z" transform="translate(-1064.932 -845.721)" fill="#f7a491"/>
    <path id="Path_20354" data-name="Path 20354" d="M1690.2,1080.509s-3.722-24.211-7.179-32.243-14.679-14.835-20.878-9.793,4.036,45.648,4.036,45.648Z" transform="translate(-1200.419 -749.645)" fill="#96d9c9"/>
  </g>
</svg>
