<svg xmlns="http://www.w3.org/2000/svg" width="13" height="16.65" viewBox="0 0 13 16.65">
  <g id="student" transform="translate(-17 -321.325)">
    <path id="Path_21200" data-name="Path 21200" d="M141.3,149.8h4.29a9.662,9.662,0,0,0-1.972-5.8Z" transform="translate(-115.63 188.18)" fill="#2d7567"/>
    <path id="Path_21201" data-name="Path 21201" d="M76.5,149.8h4.29L78.472,144A9.715,9.715,0,0,0,76.5,149.8Z" transform="translate(-59.463 188.18)" fill="#2d7567"/>
    <path id="Path_21202" data-name="Path 21202" d="M101.827,136a3.893,3.893,0,0,1-6.555.013,5.053,5.053,0,0,0-.773.6l2.5,6.235h3.144l2.5-6.248A7.534,7.534,0,0,0,101.827,136Z" transform="translate(-75.065 195.114)" fill="#2d7567"/>
    <path id="Path_21203" data-name="Path 21203" d="M89.171,64.027,82.83,62.535a.647.647,0,0,0-.226,0l-6.328,1.492c-.067.013-.067.04,0,.053l1.079.253c.027.013.067-.013.08-.027a.345.345,0,0,1,.226-.12l5.063-.293h.013a.173.173,0,0,1,.173.147.162.162,0,0,1-.16.16l-4.716.266c-.027,0-.027.013,0,.013l4.6,1.079a.646.646,0,0,0,.226,0L89.2,64.067C89.238,64.067,89.238,64.04,89.171,64.027Z" transform="translate(-59.225 258.8)" fill="#2d7567"/>
    <path id="Path_21204" data-name="Path 21204" d="M101.04,81.685V80.1l-4.157.986a.647.647,0,0,1-.226,0L92.5,80.1v1.585a.98.98,0,0,0,.48.746,6.847,6.847,0,0,0,.027,1.559c.306,2.571,1.839,4.3,3.81,4.3,2.145,0,3.757-2.052,3.89-5a6.334,6.334,0,0,0-.027-.879l-.013-.067A.887.887,0,0,0,101.04,81.685Zm-1.013,1.585c-.12,2.558-1.439,4.343-3.211,4.343-1.612,0-2.878-1.492-3.131-3.7a7.793,7.793,0,0,1-.053-.946,9.67,9.67,0,0,0,6.408,0A2.257,2.257,0,0,0,100.027,83.271Z" transform="translate(-73.332 243.567)" fill="#2d7567"/>
    <path id="Path_21205" data-name="Path 21205" d="M83.68,73.926c.013,0,.013-.013.027-.013l5.063-.306a.057.057,0,0,0,.053-.053.061.061,0,0,0-.067-.053l-5.063.306a.164.164,0,0,0-.147.093.189.189,0,0,0-.027.08v2.758h-.013a.492.492,0,0,0-.147.067.48.48,0,0,0-.16.36.547.547,0,0,0,.093.293.348.348,0,0,0,.28.147.33.33,0,0,0,.28-.147.512.512,0,0,0,.093-.293.48.48,0,0,0-.16-.36.3.3,0,0,0-.147-.067h-.027V73.98A.144.144,0,0,0,83.68,73.926Z" transform="translate(-65.271 249.287)" fill="#2d7567"/>
    <path id="Path_21206" data-name="Path 21206" d="M82.74,105.745h.52l-.027-.52.08.52h.027l-.053-.839.12.826a.2.2,0,0,0,.12-.253l-.147-.866c-.013-.053-.04-.053-.067-.027a.386.386,0,0,1-.533,0,.037.037,0,0,0-.067.027l-.147.866C82.54,105.625,82.62,105.745,82.74,105.745Z" transform="translate(-64.717 222.358)" fill="#2d7567"/>
  </g>
</svg>
