<svg xmlns="http://www.w3.org/2000/svg" width="40.592" height="40.536" viewBox="0 0 40.592 40.536">
  <g id="upload" transform="translate(0 -0.358)">
    <g id="Group_13772" data-name="Group 13772" transform="translate(0 25.116)">
      <g id="Group_13771" data-name="Group 13771">
        <path id="Path_20312" data-name="Path 20312" d="M37.421,312.642v11.02a1.587,1.587,0,0,1-1.586,1.586H4.757a1.587,1.587,0,0,1-1.586-1.586v-11.02H0v11.02a4.762,4.762,0,0,0,4.757,4.757H35.835a4.762,4.762,0,0,0,4.757-4.757v-11.02Z" transform="translate(0 -312.642)" fill="#2d7567"/>
      </g>
    </g>
    <g id="Group_13774" data-name="Group 13774" transform="translate(10.443 0.358)">
      <g id="Group_13773" data-name="Group 13773">
        <path id="Path_20313" data-name="Path 20313" d="M141.569.358l-9.853,9.853,2.242,2.242,6.025-6.025V31.142h3.171V6.428l6.025,6.025,2.242-2.242Z" transform="translate(-131.716 -0.358)" fill="#2d7567"/>
      </g>
    </g>
  </g>
</svg>
