<svg xmlns="http://www.w3.org/2000/svg" width="14.846" height="8.722" viewBox="0 0 14.846 8.722">
  <g id="video-camera_on" data-name="video-camera on" transform="translate(0 -96.512)">
    <g id="Group_12443" data-name="Group 12443" transform="translate(0 96.512)">
      <g id="Group_12442" data-name="Group 12442" transform="translate(0 0)">
        <path id="Path_19667" data-name="Path 19667" d="M8.4,96.512H1.624A1.629,1.629,0,0,0,0,98.136v5.474a1.629,1.629,0,0,0,1.624,1.624H8.4a1.629,1.629,0,0,0,1.624-1.624V98.136A1.619,1.619,0,0,0,8.4,96.512Z" transform="translate(0 -96.512)" fill="#4cab99"/>
      </g>
    </g>
    <g id="Group_12445" data-name="Group 12445" transform="translate(10.834 97.379)">
      <g id="Group_12444" data-name="Group 12444" transform="translate(0 0)">
        <path id="Path_19668" data-name="Path 19668" d="M344.314,123.873a.827.827,0,0,0-.276.114l-2.534,1.462v3.768l2.55,1.462a.966.966,0,0,0,1.332-.357.992.992,0,0,0,.13-.487v-5.019A.978.978,0,0,0,344.314,123.873Z" transform="translate(-341.504 -123.847)" fill="#4cab99"/>
      </g>
    </g>
  </g>
</svg>
