<svg id="academic_calendar" data-name="academic calendar" xmlns="http://www.w3.org/2000/svg" width="13" height="13" viewBox="0 0 13 13">
  <path id="Path_20524" data-name="Path 20524" d="M61.762.381a.381.381,0,1,0-.762,0V.813h.762Z" transform="translate(-59.451)" fill="#2d7567"/>
  <path id="Path_20525" data-name="Path 20525" d="M151.762.381a.381.381,0,1,0-.762,0V.813h.762Z" transform="translate(-147.166)" fill="#2d7567"/>
  <path id="Path_20526" data-name="Path 20526" d="M241.762.381a.381.381,0,1,0-.762,0V.813h.762Z" transform="translate(-234.881)" fill="#2d7567"/>
  <path id="Path_20527" data-name="Path 20527" d="M331.762.381a.381.381,0,1,0-.762,0V.813h.762Z" transform="translate(-322.596)" fill="#2d7567"/>
  <path id="Path_20528" data-name="Path 20528" d="M421.762.381a.381.381,0,1,0-.762,0V.813h.762Z" transform="translate(-410.311)" fill="#2d7567"/>
  <path id="Path_20529" data-name="Path 20529" d="M361,381h.762v.762H361Z" transform="translate(-351.834 -371.326)" fill="#2d7567"/>
  <path id="Path_20530" data-name="Path 20530" d="M241,381h.762v.762H241Z" transform="translate(-234.881 -371.326)" fill="#2d7567"/>
  <path id="Path_20531" data-name="Path 20531" d="M121,262h.762v.762H121Z" transform="translate(-117.928 -255.348)" fill="#2d7567"/>
  <path id="Path_20532" data-name="Path 20532" d="M12.619,32H11.451v1.143a.381.381,0,1,1-.762,0V32H9.166v1.143a.381.381,0,0,1-.762,0V32H6.881v1.143a.381.381,0,0,1-.762,0V32H4.6v1.143a.381.381,0,1,1-.762,0V32H2.311v1.143a.381.381,0,1,1-.762,0V32H.381A.381.381,0,0,0,0,32.381v2.412H13V32.381A.381.381,0,0,0,12.619,32Z" transform="translate(0 -31.188)" fill="#2d7567"/>
  <path id="Path_20533" data-name="Path 20533" d="M241,262h.762v.762H241Z" transform="translate(-234.881 -255.348)" fill="#2d7567"/>
  <path id="Path_20534" data-name="Path 20534" d="M361,262h.762v.762H361Z" transform="translate(-351.834 -255.348)" fill="#2d7567"/>
  <path id="Path_20535" data-name="Path 20535" d="M0,180.252a.381.381,0,0,0,.381.381H12.619a.381.381,0,0,0,.381-.381V172H0ZM8.4,173.9a.381.381,0,0,1,.381-.381h1.523a.381.381,0,0,1,.381.381v1.523a.381.381,0,0,1-.381.381H8.785a.381.381,0,0,1-.381-.381Zm0,3.021a.381.381,0,0,1,.381-.381h1.523a.381.381,0,0,1,.381.381v1.523a.381.381,0,0,1-.381.381H8.785a.381.381,0,0,1-.381-.381ZM5.357,173.9a.381.381,0,0,1,.381-.381H7.262a.381.381,0,0,1,.381.381v1.523a.381.381,0,0,1-.381.381H5.738a.381.381,0,0,1-.381-.381Zm0,3.021a.381.381,0,0,1,.381-.381H7.262a.381.381,0,0,1,.381.381v1.523a.381.381,0,0,1-.381.381H5.738a.381.381,0,0,1-.381-.381ZM2.311,173.9a.381.381,0,0,1,.381-.381H4.215a.381.381,0,0,1,.381.381v1.523a.381.381,0,0,1-.381.381H2.691a.381.381,0,0,1-.381-.381Zm.086,3.887a.381.381,0,0,1,.536-.053l.212.174.774-.952a.381.381,0,1,1,.591.481l-1.016,1.249a.381.381,0,0,1-.537.054l-.508-.416a.381.381,0,0,1-.053-.536Z" transform="translate(0 -167.633)" fill="#2d7567"/>
</svg>
