<svg xmlns="http://www.w3.org/2000/svg" width="16.667" height="15.334" viewBox="0 0 16.667 15.334">
  <path id="attendance" d="M5.667,4A1.667,1.667,0,1,0,7.334,5.667,1.667,1.667,0,0,0,5.667,4Zm5.267,0A1.667,1.667,0,1,0,12.6,5.667,1.667,1.667,0,0,0,10.934,4ZM5.667,7.667a2.66,2.66,0,0,0-1.692.612,2.493,2.493,0,0,1,.5,4.106,3.5,3.5,0,0,1,.994.742,4.023,4.023,0,0,1,1.144-.762A2.66,2.66,0,0,1,7,8.027,2.66,2.66,0,0,0,5.667,7.667Zm5.334,0a2.659,2.659,0,0,0-1.335.359,2.66,2.66,0,0,1,.393,4.338,4.086,4.086,0,0,1,.818.484,3.99,3.99,0,0,1,1.149-.625,2.494,2.494,0,0,1,.667-3.945A2.66,2.66,0,0,0,11,7.667Zm-2.667.667a2,2,0,1,0,2,2,2,2,0,0,0-2-2Zm-5.5.333A1.833,1.833,0,1,0,4.667,10.5,1.833,1.833,0,0,0,2.833,8.667Zm11,0a1.833,1.833,0,0,0-1,3.368,3.895,3.895,0,0,1,1.716.154,1.834,1.834,0,0,0-.714-3.522Zm-11,4A2.736,2.736,0,0,0,0,15.286v1.286a.333.333,0,0,0,.145.275,5.06,5.06,0,0,0,2.688.487,9.221,9.221,0,0,0,1.505-.111c0-.014-.005-.026-.005-.04V15.67a3.442,3.442,0,0,1,.684-2.05A2.925,2.925,0,0,0,2.833,12.667Zm5.5,0A3.185,3.185,0,0,0,5,15.67v1.513a.309.309,0,0,0,.14.255A6.12,6.12,0,0,0,8.334,18a12.06,12.06,0,0,0,1.488-.085,3.99,3.99,0,0,1,.561-4.61A3.552,3.552,0,0,0,8.334,12.667Zm5,0A3.333,3.333,0,1,0,16.667,16,3.339,3.339,0,0,0,13.334,12.667Zm0,.667A2.667,2.667,0,1,1,10.667,16,2.662,2.662,0,0,1,13.334,13.334Zm1.413,1.117-1.8,2.1-1.083-.813-.4.534,1.583,1.187,2.2-2.57Z" transform="translate(0 -4)" fill="#2d7567"/>
</svg>
