<svg xmlns="http://www.w3.org/2000/svg" width="13" height="17.068" viewBox="0 0 13 17.068">
  <g id="exams" transform="translate(-17 -550.088)">
    <g id="Group_19167" data-name="Group 19167" transform="translate(19.42 552.377)">
      <g id="Group_19166" data-name="Group 19166" transform="translate(0)">
        <path id="Path_21211" data-name="Path 21211" d="M126.067,64.632l-.317.732h.631Z" transform="translate(-125.75 -64.632)" fill="#2d7567"/>
      </g>
    </g>
    <g id="Group_19169" data-name="Group 19169" transform="translate(18.003 564.88)">
      <g id="Group_19168" data-name="Group 19168">
        <path id="Path_21212" data-name="Path 21212" d="M94.638,417.618l-8.881,2.276H97.391Z" transform="translate(-85.757 -417.618)" fill="#2d7567"/>
      </g>
    </g>
    <g id="Group_19171" data-name="Group 19171" transform="translate(17 550.088)">
      <g id="Group_19170" data-name="Group 19170">
        <path id="Path_21213" data-name="Path 21213" d="M70.16,0H57.694a.267.267,0,0,0-.267.267V16.775l9.884-2.533a.268.268,0,0,1,.236.053l2.88,2.381V.267A.267.267,0,0,0,70.16,0ZM61.68,2.574h.631V1.925h.5v.649h.631v.444h-.631v.649h-.5V3.018H61.68ZM59.89,1.539h.545L61.525,4.06h-.6l-.235-.545H59.634L59.4,4.06h-.6ZM58.8,8.412h8.754v.533H58.8Zm4.974,5H58.8v-.533h4.974Zm5.563-1.489H58.8V11.39H69.338Zm0-1.489H58.8V9.9H69.338Zm0-2.978H58.8V6.922H69.338Zm0-1.489H58.8V5.433H69.338Z" transform="translate(-57.427)" fill="#2d7567"/>
      </g>
    </g>
  </g>
</svg>
