<svg id="homweork" xmlns="http://www.w3.org/2000/svg" width="14.963" height="14.642" viewBox="0 0 14.963 14.642">
  <path id="Path_21208" data-name="Path 21208" d="M10.413-490.421a.853.853,0,0,0-.3.264l-.115.175v13.587l.1.158a1.042,1.042,0,0,0,.255.255l.158.1,3.994.013a27.375,27.375,0,0,0,4.13-.06c.072-.038.609-.541,1.192-1.116l1.052-1.048V-481.8l-.2.285-.2.285-1.231.494c-.677.268-1.239.481-1.248.477s.072-.588.179-1.282l.192-1.265,1.256-1.712,1.256-1.712-.009-1.878-.013-1.874-.115-.174a.847.847,0,0,0-.3-.264l-.187-.089H10.6Zm8.422,4v.341H11.682v-.681h7.153Zm0,2.044v.341H11.682v-.681h7.153Zm-1.363,2.044v.341H11.682v-.681h5.791Zm0,2.044v.341H11.682v-.681h5.791Z" transform="translate(-10 490.51)" fill="#2d7567"/>
  <path id="Path_21209" data-name="Path 21209" d="M567.222-400.408c-.034.013-1.124,1.465-2.419,3.236l-2.355,3.211-.141.928c-.077.507-.136.928-.132.937a15.013,15.013,0,0,0,1.835-.771c.081-.081,4.582-6.212,4.675-6.366.124-.2-.307-.775-.779-1.022A1.141,1.141,0,0,0,567.222-400.408Z" transform="translate(-553.745 401.796)" fill="#2d7567"/>
</svg>
