<svg xmlns="http://www.w3.org/2000/svg" width="13" height="7.638" viewBox="0 0 13 7.638">
  <g id="live_class" data-name="live class" transform="translate(-17 -442.551)">
    <g id="Group_12443" data-name="Group 12443" transform="translate(17 442.551)">
      <g id="Group_12442" data-name="Group 12442">
        <path id="Path_19667" data-name="Path 19667" d="M7.353,96.512H1.422A1.426,1.426,0,0,0,0,97.934v4.793a1.426,1.426,0,0,0,1.422,1.422H7.353a1.426,1.426,0,0,0,1.422-1.422V97.934A1.417,1.417,0,0,0,7.353,96.512Z" transform="translate(0 -96.512)" fill="#2d7567"/>
      </g>
    </g>
    <g id="Group_12445" data-name="Group 12445" transform="translate(26.487 443.311)">
      <g id="Group_12444" data-name="Group 12444" transform="translate(0 0)">
        <path id="Path_19668" data-name="Path 19668" d="M343.965,123.87a.725.725,0,0,0-.242.1l-2.219,1.28v3.3l2.233,1.28a.846.846,0,0,0,1.166-.313.869.869,0,0,0,.114-.427V124.7A.856.856,0,0,0,343.965,123.87Z" transform="translate(-341.504 -123.847)" fill="#2d7567"/>
      </g>
    </g>
  </g>
</svg>
