<svg xmlns="http://www.w3.org/2000/svg" xmlns:xlink="http://www.w3.org/1999/xlink" width="756.246" height="696.584" viewBox="0 0 756.246 696.584">
  <defs>
    <clipPath id="clip-path">
      <rect id="Rectangle_1028" data-name="Rectangle 1028" width="455.292" height="271.07" fill="none"/>
    </clipPath>
  </defs>
  <g id="Student" transform="translate(-320.695 -115.792)">
    <g id="Group_14638" data-name="Group 14638" transform="translate(320.695 285.295)">
      <path id="Path_19943" data-name="Path 19943" d="M399.634,200.716a77.818,77.818,0,0,0-9.063,5.263c-43.015,29.111-65.592,84.327-69.388,134.566q-.586,7.75-.466,15.531c.957,60.394,37,120.292,92.317,144.554s127.088,8.008,162.566-40.877c16.964-23.375,25.179-55.337,13.118-81.582-16.863-36.7-61.6-47.932-82.446-81.33-18.162-29.093-2.935-70.622-32.628-93.616C452.824,187.1,422.168,189.561,399.634,200.716Z" transform="translate(-320.695 -191.742)" fill="#b5ddd4"/>
      <g id="Group_14637" data-name="Group 14637" transform="translate(30.143 9.094)">
        <path id="Path_19944" data-name="Path 19944" d="M588.509,331.95c0,5.945-56.93,10.768-127.155,10.768S334.2,337.9,334.2,331.95s56.928-10.768,127.153-10.768S588.509,326,588.509,331.95Z" transform="translate(-334.202 -41.397)" fill="#84af98"/>
        <g id="Group_14636" data-name="Group 14636" transform="translate(5.01)">
          <g id="Group_14604" data-name="Group 14604" transform="translate(0 92.341)">
            <g id="Group_14602" data-name="Group 14602">
              <path id="Path_19945" data-name="Path 19945" d="M365.386,397.779h-4.77V309.955l-10.807-46.567h4.769l10.808,46.326Z" transform="translate(-319.988 -204.927)" fill="#5f505e"/>
              <path id="Path_19946" data-name="Path 19946" d="M386.661,395.457h-4.77V309.151l-10.808-45.763h4.77l10.808,45.526Z" transform="translate(-293.782 -204.927)" fill="#5f505e"/>
              <rect id="Rectangle_1006" data-name="Rectangle 1006" width="4.77" height="82.213" transform="translate(77.302 110.638)" fill="#5f505e"/>
              <rect id="Rectangle_1007" data-name="Rectangle 1007" width="4.77" height="82.213" transform="translate(134.197 110.638)" fill="#5f505e"/>
              <g id="Group_14601" data-name="Group 14601">
                <path id="Path_19947" data-name="Path 19947" d="M406.621,308.223H364.039c-7.568,0-15.192-6.352-17.013-14.129l-10.213-43.615c-1.723-7.363,2.794-13.286,10.081-13.286h40.984c7.287,0,14.8,5.923,16.792,13.286l11.824,43.615C418.6,301.872,414.188,308.223,406.621,308.223Z" transform="translate(-336.447 -237.193)" fill="#a59547"/>
                <path id="Path_19948" data-name="Path 19948" d="M404.35,308.223H364.6c-7.063,0-14.178-6.352-15.879-14.129l-9.532-43.615c-1.609-7.363,2.609-13.286,9.407-13.286h38.257c6.8,0,13.81,5.923,15.674,13.286l11.034,43.615C415.534,301.872,411.414,308.223,404.35,308.223Z" transform="translate(-333.485 -237.193)" fill="#927a35"/>
              </g>
            </g>
            <g id="Group_14603" data-name="Group 14603" transform="translate(35.702 101.534)">
              <path id="Path_19949" data-name="Path 19949" d="M462.506,294.867H358.535a6.089,6.089,0,0,1-6.09-6.088h0a6.09,6.09,0,0,1,6.09-6.091H462.506a6.088,6.088,0,0,1,6.088,6.091h0A6.087,6.087,0,0,1,462.506,294.867Z" transform="translate(-352.444 -282.688)" fill="#a59547"/>
              <path id="Path_19950" data-name="Path 19950" d="M457.8,294.867H362.357a6.089,6.089,0,0,1-6.091-6.088h0a6.09,6.09,0,0,1,6.091-6.091H457.8a6.088,6.088,0,0,1,6.088,6.091h0A6.087,6.087,0,0,1,457.8,294.867Z" transform="translate(-347.736 -282.688)" fill="#927a35"/>
            </g>
          </g>
          <g id="Group_14605" data-name="Group 14605" transform="translate(26.842 62.582)">
            <path id="Path_19951" data-name="Path 19951" d="M370.4,226.174s-19.443-9.53-21.682,10.079c-1.547,13.574,4.508,65.507,13.366,68.026s13.281-21.8,13.281-21.8Z" transform="translate(-348.474 -223.859)" fill="#5f505e"/>
            <path id="Path_19952" data-name="Path 19952" d="M375.636,248.972s-17.85-9.094-25.777,6.218c-.623,5.825,1.989,13.674,6.229,16.5,0,0,13.348-7.4,18.593-7.4Z" transform="translate(-346.88 -196.227)" fill="#776774"/>
          </g>
          <g id="Group_14628" data-name="Group 14628" transform="translate(34.412)">
            <g id="Group_14612" data-name="Group 14612">
              <g id="Group_14606" data-name="Group 14606" transform="translate(56.29 65.678)">
                <path id="Path_19953" data-name="Path 19953" d="M377.088,241.333l1.768-15.225s7.264-2.75,12.567,1.571,21.008,44.535,21.008,44.535l-18.649,18.495Z" transform="translate(-377.088 -225.246)" fill="#4c404b"/>
                <path id="Path_19954" data-name="Path 19954" d="M381.45,263.142c-.112-.685,8.331-23.855,28.752-19.731s12.763,14.274,12.763,14.274l-33.577,18.158Z" transform="translate(-371.717 -203.475)" fill="#776774"/>
              </g>
              <g id="Group_14607" data-name="Group 14607" transform="translate(0 61.737)">
                <path id="Path_19955" data-name="Path 19955" d="M374.893,226.083s-14.953-3.432-22.307,1.225c-3.31,2.1,5.579,20.421,10.367,41,5.847,25.143,8.258,53.172,8.258,53.172l62.016-9.356s-13.7-50.788-14.2-69.232-4.8-17.5-16.6-14.712S374.893,226.083,374.893,226.083Z" transform="translate(-351.866 -221.774)" fill="#5f505e"/>
                <path id="Path_19956" data-name="Path 19956" d="M361.675,226.571s9.695,25.848,20.49,23.195,11.989-26.286,11.989-26.286Z" transform="translate(-339.783 -223.48)" fill="#f47567"/>
              </g>
              <g id="Group_14610" data-name="Group 14610" transform="translate(3.943)">
                <path id="Path_19957" data-name="Path 19957" d="M392.211,219.147c1.544,2.946-.859,7.251-5.365,9.61s-9.414,1.886-10.958-1.06.859-7.251,5.367-9.612S390.669,216.2,392.211,219.147Z" transform="translate(-326.796 -170.238)" fill="#f47567"/>
                <path id="Path_19958" data-name="Path 19958" d="M405.5,234.569c1.042,16.7-7.4,30.629-20.416,31.441s-25.667-11.8-26.712-28.5,8.8-29.682,21.675-31.709C405.588,201.785,404.457,217.869,405.5,234.569Z" transform="translate(-347.888 -184.283)" fill="#ff917b"/>
                <g id="Group_14608" data-name="Group 14608" transform="translate(4.309)">
                  <path id="Path_19959" data-name="Path 19959" d="M414.115,231.532c-1.835,1.6-3.272,2.714-3.272,2.714l-1.895,14.306c-.638-6.584-1.277-13.049-2.814-16.062,0,0-31.881,1.857-34.595,2.1,0,0-1.377,11.273-5.108,16.6h-6.2s-5.785-16.939-4.468-25.538,6.4-17.917,8.878-16.9c2.493,1.018,1.317,6.845,1.317,6.845s3.312-2.774,7.88-6.244a.07.07,0,0,0,.04-.02c8.438-6.385,21.108-15.145,24.938-13.248,5.707,2.812-.379,11.491-.777,12.069.817-.3,17.975-6.742,20.689-2.314,2.754,4.51-9.039,15.741-9.039,15.741s10.775-2.473,12.092.281C422.633,223.672,417.645,228.461,414.115,231.532Z" transform="translate(-355.564 -195.817)" fill="#29150f"/>
                  <path id="Path_19960" data-name="Path 19960" d="M404.009,231.532c1.2-2.355,2.314-5.126,1.955-6.682-.678-3.093-12.449.678-12.449.678s11.77-13.268,9.936-16.461c-1.817-3.212-20.809,3.892-20.809,3.892s4.468-8.918,1.036-10.994c-2.214-1.337-12.768,3.691-19.91,7.363,8.438-6.385,21.108-15.145,24.938-13.248,5.707,2.812-.379,11.491-.777,12.069.817-.3,17.975-6.742,20.688-2.314,2.754,4.51-9.039,15.741-9.039,15.741s10.775-2.473,12.092.281C412.528,223.672,407.54,228.461,404.009,231.532Z" transform="translate(-345.458 -195.817)" fill="#593a2e"/>
                </g>
                <path id="Path_19961" data-name="Path 19961" d="M371.4,227.223c-1,3.174-5.744,4.506-10.6,2.977s-7.979-5.338-6.981-8.512,5.745-4.508,10.6-2.979S372.4,224.049,371.4,227.223Z" transform="translate(-353.633 -168.4)" fill="#ff917b"/>
                <g id="Group_14609" data-name="Group 14609" transform="translate(24.516 47.659)">
                  <path id="Path_19962" data-name="Path 19962" d="M368.443,224.707c0,1.228-.422,2.223-.942,2.223s-.944-1-.944-2.223.422-2.223.944-2.223S368.443,223.479,368.443,224.707Z" transform="translate(-362.23 -210.629)" fill="#333"/>
                  <path id="Path_19963" data-name="Path 19963" d="M377.692,223.938c0,1.228-.422,2.223-.944,2.223s-.942-1-.942-2.223.422-2.223.942-2.223S377.692,222.71,377.692,223.938Z" transform="translate(-350.837 -211.576)" fill="#333"/>
                  <path id="Path_19964" data-name="Path 19964" d="M380.94,228.674s-8.653,1.935-13.513-2.406c0,0-.859,5.247,4.959,6.269A8.289,8.289,0,0,0,380.94,228.674Z" transform="translate(-361.213 -205.968)" fill="#fff"/>
                  <path id="Path_19965" data-name="Path 19965" d="M375.266,217.833a5.066,5.066,0,0,1,6.093.837" transform="translate(-351.502 -217.172)" fill="none" stroke="#29150f" stroke-linecap="round" stroke-linejoin="round" stroke-width="0.75"/>
                  <path id="Path_19966" data-name="Path 19966" d="M371.769,218.285a6.3,6.3,0,0,0-7.151,1.477" transform="translate(-364.618 -216.463)" fill="none" stroke="#29150f" stroke-linecap="round" stroke-linejoin="round" stroke-width="0.75"/>
                  <path id="Path_19967" data-name="Path 19967" d="M373.532,222.878a14.677,14.677,0,0,1,.245,6.253" transform="translate(-353.638 -210.143)" fill="none" stroke="#db4242" stroke-linecap="round" stroke-linejoin="round" stroke-width="0.75"/>
                </g>
              </g>
              <g id="Group_14611" data-name="Group 14611" transform="translate(1.291 53.183)">
                <path id="Path_19968" data-name="Path 19968" d="M364.116,252.01c-.252-.614-5.528-9.4-6.077-17.615s2.154-15.589,4.256-14.669-.047,12.837-.047,12.837,2.055-12.951,4.8-12.112-.6,15.522-.6,15.522,2.959-10.8,4.972-10.4-1.1,15.111-1.1,15.111,1.3-9.1,3.841-8.909-.839,11.507-.839,11.507,6.392,6.372,2.627,14.114Z" transform="translate(-345.642 -219.647)" fill="#fca590"/>
                <path id="Path_19969" data-name="Path 19969" d="M370.918,234.148s-19.825,42.711-18.4,51.375c.788,4.8,5.738,7.327,9.838,7.517s9.786-1.765,12.322-13.4c3.118-14.3,8.077-40.1,8.077-40.1Z" transform="translate(-352.444 -201.786)" fill="#fca590"/>
              </g>
            </g>
            <g id="Group_14627" data-name="Group 14627" transform="translate(19.345 140.222)">
              <path id="Path_19970" data-name="Path 19970" d="M432.529,294.72l-55.78,3.54,45.182-28.213Z" transform="translate(-340.561 -244.605)" fill="#d8c5bf"/>
              <g id="Group_14619" data-name="Group 14619">
                <g id="Group_14618" data-name="Group 14618" transform="translate(133.428 73.142)">
                  <path id="Path_19971" data-name="Path 19971" d="M433.231,291.42c.143,1.261,11.958,16.966,11.958,16.966l-12.909,10.2-11.96-14.513Z" transform="translate(-420.32 -291.42)" fill="#ff917b"/>
                  <g id="Group_14617" data-name="Group 14617" transform="translate(11.199 9.68)">
                    <path id="Path_19972" data-name="Path 19972" d="M431.951,326.506a4.245,4.245,0,0,1-1.8-1.339c-3.153-3.656-4.809-12.848-4.809-12.848l12.509-10.844s16.16-6.146,23-5.693a4.536,4.536,0,0,1,2.238.6C467.324,299.254,436.274,327.972,431.951,326.506Z" transform="translate(-425.338 -295.757)" fill="#5f505e"/>
                    <path id="Path_19973" data-name="Path 19973" d="M429.3,326.493a4.245,4.245,0,0,1-1.8-1.339c5.408-3.7,21.751-15.58,30.7-29.386a4.534,4.534,0,0,1,2.239.6C464.67,299.241,433.619,327.959,429.3,326.493Z" transform="translate(-422.684 -295.744)" fill="#837984"/>
                    <g id="Group_14616" data-name="Group 14616" transform="translate(12.809 1.743)">
                      <g id="Group_14613" data-name="Group 14613" transform="translate(0 2.266)">
                        <path id="Path_19974" data-name="Path 19974" d="M432.634,305.716l-.027.009a1,1,0,0,1-1.2-.687l-.118-.4a1.03,1.03,0,0,1-.031-.4,15.087,15.087,0,0,1,.25-5.923,1,1,0,1,1,1.935.473,13.189,13.189,0,0,0-.1,5.765A.993.993,0,0,1,432.634,305.716Z" transform="translate(-431.077 -297.554)" fill="#837984"/>
                      </g>
                      <g id="Group_14614" data-name="Group 14614" transform="translate(3.961 0.998)">
                        <path id="Path_19975" data-name="Path 19975" d="M434.507,304.84a1,1,0,0,1-1.225-.674l0-.013a11.243,11.243,0,0,1,.1-6.474,1,1,0,0,1,1.9.612,9.208,9.208,0,0,0-.085,5.314,1,1,0,0,1-.679,1.234Z" transform="translate(-432.852 -296.985)" fill="#837984"/>
                      </g>
                      <g id="Group_14615" data-name="Group 14615" transform="translate(7.881)">
                        <path id="Path_19976" data-name="Path 19976" d="M435.96,303.742a.914.914,0,0,1-.174.031,1,1,0,0,1-1.089-.895,18.3,18.3,0,0,1,.3-5.546,1,1,0,0,1,1.953.411,16.331,16.331,0,0,0-.27,4.941A.994.994,0,0,1,435.96,303.742Z" transform="translate(-434.609 -296.538)" fill="#837984"/>
                      </g>
                    </g>
                  </g>
                </g>
                <path id="Path_19977" data-name="Path 19977" d="M360.534,279.864s6.332,40.393,34.378,32.932,66.955-25.984,66.955-25.984l36.181,72.61,19.1-18.12s-33.175-78.427-44.932-81.752c-16.912-4.78-49.668,10.958-49.668,10.958Z" transform="translate(-360.534 -258.647)" fill="#ccb3ac"/>
              </g>
              <g id="Group_14626" data-name="Group 14626" transform="translate(73.001 25.444)">
                <g id="Group_14625" data-name="Group 14625" transform="translate(44.653 78.42)">
                  <path id="Path_19978" data-name="Path 19978" d="M429.089,305.186c-.2,1.254,6.956,19.557,6.956,19.557L420.869,331.1,413.252,313.9Z" transform="translate(-413.252 -305.186)" fill="#ff917b"/>
                  <g id="Group_14624" data-name="Group 14624" transform="translate(6.948 16.373)">
                    <path id="Path_19979" data-name="Path 19979" d="M419.105,335.951a4.251,4.251,0,0,1-1.377-1.777c-2.055-4.367-1.176-13.665-1.176-13.665l14.962-7.084s17.218-1.576,23.683.7a4.52,4.52,0,0,1,2,1.178C460.5,319.212,422.875,338.524,419.105,335.951Z" transform="translate(-416.365 -312.065)" fill="#5f505e"/>
                    <path id="Path_19980" data-name="Path 19980" d="M418.353,335.272a4.25,4.25,0,0,1-1.377-1.777c6.2-2.113,25.139-9.157,37.469-20.05a4.521,4.521,0,0,1,2,1.178C459.752,318.533,422.122,337.845,418.353,335.272Z" transform="translate(-415.613 -311.386)" fill="#837984"/>
                    <g id="Group_14623" data-name="Group 14623" transform="translate(14.198)">
                      <g id="Group_14620" data-name="Group 14620" transform="translate(0 0.136)">
                        <path id="Path_19981" data-name="Path 19981" d="M423.731,320.526H423.7a1,1,0,0,1-.971-.984l-.007-.415a1.015,1.015,0,0,1,.076-.395,15.15,15.15,0,0,1,1.835-5.64,1,1,0,0,1,1.739.98,13.168,13.168,0,0,0-1.649,5.524A1,1,0,0,1,423.731,320.526Z" transform="translate(-422.727 -312.583)" fill="#837984"/>
                      </g>
                      <g id="Group_14621" data-name="Group 14621" transform="translate(4.341)">
                        <path id="Path_19982" data-name="Path 19982" d="M425.67,320.174a1,1,0,0,1-1-.98v-.016a11.223,11.223,0,0,1,1.841-6.207,1,1,0,1,1,1.663,1.1,9.209,9.209,0,0,0-1.511,5.1,1,1,0,0,1-.984,1.007Z" transform="translate(-424.672 -312.522)" fill="#837984"/>
                      </g>
                      <g id="Group_14622" data-name="Group 14622" transform="translate(8.265 0.062)">
                        <path id="Path_19983" data-name="Path 19983" d="M427.43,319.522a.922.922,0,0,1-.176-.016,1,1,0,0,1-.808-1.156,18.231,18.231,0,0,1,1.783-5.26,1,1,0,0,1,1.768.919,16.327,16.327,0,0,0-1.587,4.689A1,1,0,0,1,427.43,319.522Z" transform="translate(-426.43 -312.55)" fill="#837984"/>
                      </g>
                    </g>
                  </g>
                </g>
                <path id="Path_19984" data-name="Path 19984" d="M393.244,285.19l9.652,9.588L439.6,372l21.088-9.945s-25.322-95.109-40.765-91.929S393.244,285.19,393.244,285.19Z" transform="translate(-393.244 -270.048)" fill="#d8c5bf"/>
              </g>
            </g>
          </g>
          <g id="Group_14635" data-name="Group 14635" transform="translate(13.374 90.868)">
            <g id="Group_14633" data-name="Group 14633" transform="translate(50.826)">
              <g id="Group_14631" data-name="Group 14631" transform="translate(0 50.383)">
                <rect id="Rectangle_1008" data-name="Rectangle 1008" width="105.559" height="3.199" fill="#bcaf8e"/>
                <g id="Group_14630" data-name="Group 14630">
                  <rect id="Rectangle_1009" data-name="Rectangle 1009" width="40.653" height="3.199" fill="#d3cca5"/>
                  <g id="Group_14629" data-name="Group 14629" transform="translate(2.703 0.803)">
                    <path id="Path_19985" data-name="Path 19985" d="M383.1,260.3a.826.826,0,1,1-.826-.828A.827.827,0,0,1,383.1,260.3Z" transform="translate(-347.917 -259.468)" fill="#bcaf8e"/>
                    <rect id="Rectangle_1010" data-name="Rectangle 1010" width="6.089" height="1.036" transform="translate(25.673 0.375)" fill="#bcaf8e"/>
                    <rect id="Rectangle_1011" data-name="Rectangle 1011" width="6.09" height="1.036" transform="translate(15.143 0.279)" fill="#bcaf8e"/>
                    <rect id="Rectangle_1012" data-name="Rectangle 1012" width="6.09" height="1.036" transform="translate(0 0.279)" fill="#bcaf8e"/>
                  </g>
                </g>
              </g>
              <g id="Group_14632" data-name="Group 14632" transform="translate(39.948)">
                <path id="Path_19986" data-name="Path 19986" d="M454.538,287.433l-71.425-.085,15.638-50.776,71.564-.039Z" transform="translate(-383.113 -236.533)" fill="#e6e6be"/>
                <path id="Path_19987" data-name="Path 19987" d="M453.474,286.516l-69.5-.082,15.132-49.124,69.628-.034Z" transform="translate(-382.049 -235.617)" fill="#d3cca5"/>
              </g>
            </g>
            <g id="Group_14634" data-name="Group 14634" transform="translate(0 53.571)">
              <path id="Path_19988" data-name="Path 19988" d="M384.534,404h0a2.576,2.576,0,0,1-2.575-2.575V265.065a2.575,2.575,0,0,1,2.575-2.575h0a2.575,2.575,0,0,1,2.575,2.575V401.424A2.576,2.576,0,0,1,384.534,404Z" transform="translate(-293.76 -258.13)" fill="#4c404b"/>
              <path id="Path_19989" data-name="Path 19989" d="M350.076,404h0a2.576,2.576,0,0,1-2.575-2.575V265.065a2.575,2.575,0,0,1,2.575-2.575h0a2.575,2.575,0,0,1,2.575,2.575V401.424A2.576,2.576,0,0,1,350.076,404Z" transform="translate(-336.204 -258.13)" fill="#4c404b"/>
              <path id="Path_19990" data-name="Path 19990" d="M429.26,404h0a2.576,2.576,0,0,1-2.575-2.575V265.065a2.575,2.575,0,0,1,2.575-2.575h0a2.575,2.575,0,0,1,2.576,2.575V401.424A2.576,2.576,0,0,1,429.26,404Z" transform="translate(-238.668 -258.13)" fill="#4c404b"/>
              <rect id="Rectangle_1013" data-name="Rectangle 1013" width="199.018" height="8.719" fill="#d28148"/>
            </g>
          </g>
        </g>
      </g>
    </g>
    <g id="Group_14667" data-name="Group 14667" transform="translate(778.371 402.06)">
      <path id="Path_19991" data-name="Path 19991" d="M808.99,300.128A75.579,75.579,0,0,0,782.8,274.757c-32.956-19.55-77.177-21.088-109.964-.33-30.466,19.289-50.226,53.986-83.506,67.866-15.957,6.655-34.532,8.264-47.7,19.461-19.477,16.557-18.9,47.4-9.309,71.1,18.948,46.807,67.1,79.377,117.484,82.747s101.043-21.13,132.368-60.735c28.219-35.673,46.963-91.069,34.742-136.314A70.149,70.149,0,0,0,808.99,300.128Z" transform="translate(-525.703 -225.084)" fill="#b5ddd4"/>
      <path id="Path_19992" data-name="Path 19992" d="M782.694,379.376c0,6.4-57.515,11.59-128.463,11.59s-128.463-5.189-128.463-11.59,57.515-11.59,128.463-11.59S782.694,372.975,782.694,379.376Z" transform="translate(-525.769 -91.663)" fill="#84af98"/>
      <g id="Group_14666" data-name="Group 14666" transform="translate(29.424)">
        <g id="Group_14664" data-name="Group 14664">
          <g id="Group_14640" data-name="Group 14640" transform="translate(81.071 234.224)">
            <g id="Group_14639" data-name="Group 14639" transform="translate(0 37.194)">
              <path id="Path_19993" data-name="Path 19993" d="M684.256,379.1c0,4.345-24.4,7.871-54.489,7.871s-54.488-3.526-54.488-7.871a2.305,2.305,0,0,1,.761-1.469c4.1-4.363,24.13-11.016,48.791-11.873q1.2-.027,2.4-.058c.935-.018,1.868-.018,2.8-.018s1.868,0,2.8.018c25.748.478,46.579,7.434,50.659,11.931A2.254,2.254,0,0,1,684.256,379.1Z" transform="translate(-575.279 -365.678)" fill="#59442c"/>
              <path id="Path_19994" data-name="Path 19994" d="M683.075,377.627c-4.345,3.013-26.741,5.318-53.728,5.318s-49.38-2.306-53.727-5.318c4.1-4.363,24.13-11.016,48.791-11.873q1.2-.027,2.4-.058c.935-.018,1.868-.018,2.8-.018s1.868,0,2.8.018C658.164,366.173,679,373.13,683.075,377.627Z" transform="translate(-574.859 -365.678)" fill="#2f1a10"/>
            </g>
            <rect id="Rectangle_1014" data-name="Rectangle 1014" width="23.765" height="41.537" transform="translate(42.607)" fill="#2f1a10"/>
          </g>
          <g id="Group_14641" data-name="Group 14641" transform="translate(28.619 80.259)">
            <path id="Path_19995" data-name="Path 19995" d="M724.951,282.3c4.2.783,48.072,7.722,38.893,69.959-8.331,56.5-61.014,92.888-121.234,94.247-71.885,1.623-102.989-41.77-86.523-77.71s69.182-26.839,79.957-42.361S659.052,270,724.951,282.3Z" transform="translate(-551.777 -280.024)" fill="#907b31"/>
            <path id="Path_19996" data-name="Path 19996" d="M686.547,284.56s52.9-7.994,57.245,21.2-12.973,72.887-38.415,78.212-28.3,17.443-35.208,28.8-47.427,39.7-91,10.86-19.912-78.859,10.119-80.549C627.39,340.944,642.358,320.3,686.547,284.56Z" transform="translate(-547.485 -275.669)" fill="#715a24"/>
          </g>
          <g id="Group_14663" data-name="Group 14663">
            <g id="Group_14643" data-name="Group 14643" transform="translate(88.208 77.077)">
              <path id="Path_19997" data-name="Path 19997" d="M594.688,316.017s-13.578-13.049-3.2-27.453l16.832,6.349Z" transform="translate(-567.264 -266.322)" fill="#896867"/>
              <g id="Group_14642" data-name="Group 14642">
                <path id="Path_19998" data-name="Path 19998" d="M656.16,279.837l-2.515,27.082S635.9,312.713,618.8,317.8c-4.725,1.431-9.414,2.783-13.645,3.946-1.163.324-2.305.629-3.392.935a94.19,94.19,0,0,1-12.313,2.7c-10.463.953-10.978-46.789-10.978-46.789l11.549,3.66s2.022,18.867,6.2,20.2c.877.286,3.241-.382,6.479-1.62,2.955-1.1,6.615-2.707,10.579-4.5,12.6-5.68,28.131-13.4,32.494-14.524A58.767,58.767,0,0,1,656.16,279.837Z" transform="translate(-578.477 -278.598)" fill="#ff917b"/>
                <path id="Path_19999" data-name="Path 19999" d="M605.95,308.007c-4.725,1.431-9.414,2.783-13.645,3.946-1.163.324-2.305.629-3.392.935,2.457-9.188.933-21.842.933-21.842,2.955-1.1,6.615-2.707,10.579-4.5,3.736,2.7,7.662,5.468,8.137,5.66C609.057,292.4,607.477,300.631,605.95,308.007Z" transform="translate(-565.622 -268.804)" fill="#f47567"/>
              </g>
              <path id="Path_20000" data-name="Path 20000" d="M642.791,279.153l-2.515,27.082s-28.19,15.979-47.744,21.374c4.3-8.191,1.348-22.38-3.2-27.453,12.293-4.669,37.337-17.553,43.073-19.021A58.772,58.772,0,0,1,642.791,279.153Z" transform="translate(-565.107 -277.914)" fill="#af9590"/>
            </g>
            <g id="Group_14651" data-name="Group 14651" transform="translate(0 117.218)">
              <path id="Path_20001" data-name="Path 20001" d="M625.977,321.8s-32.945-26.1-45.028-25.188c-12.853.975-17.776,10.552-15.2,19.568s12.56,25.763,12.56,25.763l57.713,14.172V329.047Z" transform="translate(-506.761 -296.585)" fill="#e07127"/>
              <g id="Group_14647" data-name="Group 14647" transform="translate(0 24.161)">
                <g id="Group_14646" data-name="Group 14646" transform="translate(0 104.388)">
                  <g id="Group_14644" data-name="Group 14644" transform="translate(0 26.126)">
                    <path id="Path_20002" data-name="Path 20002" d="M593.236,385.143c-.056,2.439-.417,4.345-1.37,4.821-3.127,1.6-50.889-9.49-52.812-13.951-.478-1.123.781-2.305,3.086-3.448,6.881-3.433,23.061-6.557,29.732-6.671,8.9-.154,19.994,5.013,19.994,5.013S593.408,379.463,593.236,385.143Z" transform="translate(-538.953 -365.891)" fill="#2f1a10"/>
                    <path id="Path_20003" data-name="Path 20003" d="M593.236,381.459c-.056,2.439-.417,4.345-1.37,4.821-3.127,1.6-50.889-9.49-52.812-13.951-.478-1.123.781-2.305,3.086-3.448C550.049,373.836,566.363,381.249,593.236,381.459Z" transform="translate(-538.953 -362.207)" fill="#5b432c"/>
                  </g>
                  <g id="Group_14645" data-name="Group 14645" transform="translate(32.919)">
                    <path id="Path_20004" data-name="Path 20004" d="M581.091,362.854c0,.591-1.6,5.49-3.316,10.579-1.962,5.832-4.077,11.893-4.077,11.893-8.253-.44-15.113-1.946-19.994-5.013l2.459-8.539,5.031-17.591Z" transform="translate(-553.703 -354.184)" fill="#ff917b"/>
                    <path id="Path_20005" data-name="Path 20005" d="M579.734,362.854c0,.591-1.6,5.49-3.316,10.579-6.137.819-15.589,1.373-21.612-1.658l5.031-17.591Z" transform="translate(-552.346 -354.184)" fill="#f47567"/>
                  </g>
                </g>
                <path id="Path_20006" data-name="Path 20006" d="M693.707,346.673s-19.495,28.656-34.744,24.529-50.273-12.322-52.192-12.06-23.8,70.341-23.8,70.341c-11.714.152-22.36-.828-29.881-5.106,0,0,22.021-99.519,32.577-104.795s51.953,5.544,51.953,5.544-3.29-8.086,3.144-16.665S693.707,346.673,693.707,346.673Z" transform="translate(-521.544 -307.41)" fill="#f8932a"/>
              </g>
              <g id="Group_14650" data-name="Group 14650" transform="translate(57.108 0.024)">
                <path id="Path_20007" data-name="Path 20007" d="M583.251,350.839s22.726,10.224,32.247-8.315L598.012,327.7l-17.7,12.112Z" transform="translate(-545.119 -258.284)" fill="#e07127"/>
                <g id="Group_14649" data-name="Group 14649" transform="translate(29.76 69.423)">
                  <path id="Path_20008" data-name="Path 20008" d="M613.877,347.333c-5.414,6.251-10.826,10.73-16.258,12.692L590.3,349.962l-8.673-11.911L600.687,327.7c.609.458,5.146,7.3,8.728,12.77C611.875,344.226,613.877,347.333,613.877,347.333Z" transform="translate(-573.256 -327.702)" fill="#ff917b"/>
                  <path id="Path_20009" data-name="Path 20009" d="M609.416,340.472c-3.43-.536-14.732-1.393-19.115,9.489l-8.673-11.911L600.687,327.7C601.3,328.16,605.834,335,609.416,340.472Z" transform="translate(-573.256 -327.702)" fill="#f47567"/>
                  <g id="Group_14648" data-name="Group 14648" transform="translate(0 19.128)">
                    <path id="Path_20010" data-name="Path 20010" d="M626.1,353.795c-13.761,11.15-44.178,10.882-47.7,7.546-.647-.627-.667-1.638-.19-2.9h.018c2.078-5.526,13.362-15.837,19.974-18.829,8.1-3.66,20.354-3.334,20.354-3.334a102.881,102.881,0,0,1,5.318,8.918c.533.991,1.011,1.982,1.428,2.935C626.463,350.782,627.036,353.032,626.1,353.795Z" transform="translate(-577.877 -336.273)" fill="#2f1a10"/>
                    <path id="Path_20011" data-name="Path 20011" d="M626.1,349.033c-13.761,11.15-44.178,10.882-47.7,7.546-.647-.627-.667-1.638-.19-2.9h.018c10.177-5.2,32.363-15.417,45.646-13.245.533.991,1.011,1.982,1.428,2.935C626.463,346.021,627.036,348.27,626.1,349.033Z" transform="translate(-577.877 -331.511)" fill="#5b432c"/>
                    <path id="Path_20012" data-name="Path 20012" d="M625.013,341.745c1.163,2.649,1.736,4.9.8,5.662-13.761,11.15-44.178,10.882-47.7,7.546C578.11,354.953,610.435,339.154,625.013,341.745Z" transform="translate(-577.59 -329.885)" fill="#7c6a52"/>
                  </g>
                </g>
                <path id="Path_20013" data-name="Path 20013" d="M566.04,306.531c-1.5,4.432-2.127,12.422-.685,16.872,1.6,4.932,5.417,10.534,10.983,21.066,11.54,21.836,26.337,44.682,26.337,44.682,9.269-13.752,20.782-16.631,32.247-8.315,0,0-30.017-59.854-36.117-70.361s-14.928-14.08-18.294-13.87-7.367.953-10.909,4.772C567.343,303.81,566.611,304.837,566.04,306.531Z" transform="translate(-564.542 -296.595)" fill="#f9ab4e"/>
              </g>
            </g>
            <g id="Group_14652" data-name="Group 14652" transform="translate(119.216 57.598)">
              <path id="Path_20014" data-name="Path 20014" d="M689.515,327.657c-2.765,6.385-44.2,65.257-44.2,65.257L592.371,354.7s29.638-38.976,36.289-52.087,9.282-12.409,12.179-11.7c2.078.5,7.51,2.555,11.054,3.089,1.393.21,2.477.19,2.955-.248.018,0,.038-.02.056-.038,1.64-1.62,5.8-11.036,5.8-11.036l15.018-12.808,8.043,6.863s-1.772,3.544-3.546,7.528c-2,4.5-4,9.568-3.448,10.693a6.475,6.475,0,0,0,1.1,1.314c3.22,3.165,12.045,9.719,13.723,13.341C693.555,313.858,692.278,321.292,689.515,327.657Z" transform="translate(-592.371 -269.87)" fill="#ff917b"/>
              <path id="Path_20015" data-name="Path 20015" d="M649.277,276.733s-1.772,3.544-3.546,7.528c-5.87,5.03-17,12.978-25.366,9.492.018,0,.038-.02.056-.038,1.64-1.62,5.8-11.036,5.8-11.036l15.018-12.808Z" transform="translate(-557.889 -269.87)" fill="#f47567"/>
            </g>
            <path id="Path_20016" data-name="Path 20016" d="M689.515,316.22c-2.765,6.385-44.2,65.257-44.2,65.257l-52.946-38.212s29.638-38.976,36.289-52.087,9.282-12.409,12.179-11.7c2.078.5,7.51,2.555,11.054,3.089-3.22,3.834-4.919,11.48-1.723,12.554,6.84,2.294,19.133-3.223,27.7-10.286,3.22,3.165,12.045,9.719,13.723,13.341C693.555,302.421,692.278,309.855,689.515,316.22Z" transform="translate(-473.155 -200.835)" fill="#ccb3ab"/>
            <g id="Group_14658" data-name="Group 14658" transform="translate(88.201 49.746)">
              <g id="Group_14653" data-name="Group 14653" transform="translate(10.838 1.985)">
                <path id="Path_20017" data-name="Path 20017" d="M630.59,296.434l-1.981.806-45.279-4.852,2.455-22.908,2.22-2.24,45.2,4.843Z" transform="translate(-583.33 -267.241)" fill="#f79427"/>
                <rect id="Rectangle_1015" data-name="Rectangle 1015" width="45.538" height="23.039" transform="translate(2.455 2.24) rotate(6.116)" fill="#e07127"/>
              </g>
              <g id="Group_14656" data-name="Group 14656" transform="translate(47.081 4.624)">
                <path id="Path_20018" data-name="Path 20018" d="M623.572,328.3c-4.43,2.122-19.334-12.145-5.82-32.9l15.926,9.313Z" transform="translate(-583.997 -235.2)" fill="#af9590"/>
                <g id="Group_14654" data-name="Group 14654" transform="translate(9.796 29.416)">
                  <path id="Path_20019" data-name="Path 20019" d="M657.689,330.089c-3.354,1.658-7.987,3.812-13.152,5.948-3.716,1.562-7.717,3.107-11.721,4.479-1.372.475-2.745.933-4.1,1.352-7.242,2.267-14.219,3.754-19.249,3.354-12.54-.973.248-59.635.248-59.635l12.444-3.984.134,33.258s2.25-.973,5.622-2.477c2.573-1.163,5.794-2.631,9.148-4.214a167.876,167.876,0,0,0,17-8.88c8.786-5.642,15.419-4.861,15.419-4.861C688.047,299.349,670.457,323.8,657.689,330.089Z" transform="translate(-603.959 -281.604)" fill="#ff917b"/>
                  <path id="Path_20020" data-name="Path 20020" d="M633.829,294.347l-2.515,27.027c-3.716,1.562-7.717,3.107-11.721,4.479-1.372.475-2.745.933-4.1,1.352,5.927-11.511-.8-29.484-.8-29.484,2.573-1.163,5.794-2.631,9.148-4.214Z" transform="translate(-590.736 -266.941)" fill="#f47567"/>
                </g>
                <path id="Path_20021" data-name="Path 20021" d="M645.707,326.115c-7.043,5.039-15.625,8.838-25.192,12.114,4.626-15.276-1.8-28.613-5.821-32.9,7.4-3.316,20.126-9.206,26.15-13.094,8.786-5.642,15.419-4.861,15.419-4.861C674.824,292.29,657.283,317.833,645.707,326.115Z" transform="translate(-580.94 -245.13)" fill="#dbc6bd"/>
                <g id="Group_14655" data-name="Group 14655">
                  <path id="Path_20022" data-name="Path 20022" d="M627.568,297.839s-4.745,8.329-4.593,8.976a46.671,46.671,0,0,1-7.851-4.992c-2.993-2.553-3.145-10.634-3.145-10.634a12.523,12.523,0,0,0-3.316-1.107c-.991,0-5.832,2.1-6.747,1.183-.629-.629.114-1.524.63-2,.132-.114.248-.21.324-.286a1.965,1.965,0,0,1-1.163.23,1.387,1.387,0,0,1-1.087-.667c-.915-1.317,3.64-5.49,5.2-5.872,1.562-.4,7.7,0,7.7,0s-4.042-2.611-5.49-2.991c-1.428-.4-8.557.609-8.463-1.163.1-1.658,6.863-2.669,9.13-3.374,2-.629,6.86,1.888,8.043,2.515-1.81-1.1-12.217-7.452-10.311-8.938,2.116-1.62,14.752,3.888,17.439,6.423C626.559,277.655,627.568,297.839,627.568,297.839Z" transform="translate(-599.57 -268.424)" fill="#ff917b"/>
                  <path id="Path_20023" data-name="Path 20023" d="M611.962,277.451c-4.06-1.752-7.414.058-10.6,2.25.132-.114.248-.21.323-.286a1.964,1.964,0,0,1-1.163.23,11.3,11.3,0,0,1,11.721-2.859A.363.363,0,1,1,611.962,277.451Z" transform="translate(-598.39 -258.861)" fill="#f47567"/>
                </g>
              </g>
              <g id="Group_14657" data-name="Group 14657">
                <path id="Path_20024" data-name="Path 20024" d="M602.57,275.538c-.8,2.02-6.954-.114-8.233.172s-5.756,2-5.756,2,12.79.877,12.217,3.468a2.593,2.593,0,0,1-.837,1.524,2.341,2.341,0,0,1-1.658.44,1.159,1.159,0,0,1,.647.457,1.261,1.261,0,0,1,.152.971c-.286,1.486-6.823,2.268-6.823,2.268s1.486,3.24-.877,8.539c-2.419,5.412-8.938,3.049-8.938,3.049l-3.984-4.745s-.228-18.41,1.926-20.983c2.133-2.573,14.122-7.128,16.676-6.233,2.477.859-8.519,5.87-9.262,6.213.5-.114,5.013-1.219,7.432-.933C597.826,272.05,602.99,274.489,602.57,275.538Z" transform="translate(-578.474 -266.352)" fill="#ff917b"/>
                <path id="Path_20025" data-name="Path 20025" d="M592.992,274.849a1.16,1.16,0,0,1,.647.457,29.083,29.083,0,0,0-3.908-.935c-2.267-.344-4.535-.306-6.8-.5a.146.146,0,0,1-.038-.286,20.924,20.924,0,0,1,11.759.819A2.341,2.341,0,0,1,592.992,274.849Z" transform="translate(-573.163 -258.056)" fill="#f47567"/>
              </g>
            </g>
            <g id="Group_14662" data-name="Group 14662" transform="translate(154.73)">
              <g id="Group_14659" data-name="Group 14659">
                <path id="Path_20026" data-name="Path 20026" d="M682.607,296.038s3.87,12.808-10.291,10.217l-50.181-10.712s-18.718-3.43-8.407-13.551a22.637,22.637,0,0,1-2.953-3.22c-2.8-3.736-5.28-9.719,4.593-12.578,0,0-4.631-13.036,11.322-11.569,0,0,2.192-15.093,15.874-5.24,0,0,7.985-11.779,14.942-.286,0,0,8.615-4.881,12.9,1.314a14.525,14.525,0,0,1,2.209,6.823s14.239-1.81,8.6,12.179c0,0,11.949,3.774,3.011,13.569C684.227,282.982,693.223,289.729,682.607,296.038Z" transform="translate(-608.284 -244.062)" fill="#2f1a10"/>
                <path id="Path_20027" data-name="Path 20027" d="M670.41,250.412c-6.671-3.069-13.609.819-13.609.819-8.1-8.2-14.027,1.011-14.027,1.011-10.407-8.063-14.656,5.184-14.656,5.184-13.647.132-9.434,11.223-9.434,11.223-6.822,1.964-7.967,6.709-7.909,10.121-2.8-3.736-5.28-9.719,4.593-12.578,0,0-4.631-13.036,11.322-11.569,0,0,2.192-15.093,15.874-5.24,0,0,7.985-11.779,14.942-.286C657.506,249.1,666.12,244.216,670.41,250.412Z" transform="translate(-608.284 -244.062)" fill="#44331c"/>
              </g>
              <path id="Path_20028" data-name="Path 20028" d="M627.11,274.786c-1.082,2.926-5.535,3.975-9.945,2.346s-7.11-5.325-6.028-8.251,5.535-3.977,9.945-2.346S628.192,271.86,627.11,274.786Z" transform="translate(-605.064 -217.327)" fill="#f47567"/>
              <g id="Group_14660" data-name="Group 14660" transform="translate(12.952 17.021)">
                <path id="Path_20029" data-name="Path 20029" d="M665,280.049a40.932,40.932,0,0,1-.705,5.566c-3.24,16.943-20.222,27.406-36.574,25.94-12.121-1.087-15.743-16.486-12.5-33.43.21-1.143.475-2.25.781-3.316a34.5,34.5,0,0,1,10.159-16.848,23.269,23.269,0,0,1,17.4-6.2c12.464,1.087,19.211,8.958,21.041,19.383A36.079,36.079,0,0,1,665,280.049Z" transform="translate(-614.087 -251.688)" fill="#ff917b"/>
                <path id="Path_20030" data-name="Path 20030" d="M665.735,272.108l-1.792,4.479-4.118,10.331a58.105,58.105,0,0,1-7.814-14.161s-8.233,1.982-10.5-2.8c0,0-8.005,2.8-10.826-1.828,0,0-8.481,5.66-11.3,0,0,0-.953,3.792-4.441,3.22A34.5,34.5,0,0,1,625.1,254.5c8.862.551,32.972,2.1,32.972,2.1l5.47,11.092Z" transform="translate(-613.034 -248.227)" fill="#f47567"/>
              </g>
              <path id="Path_20031" data-name="Path 20031" d="M659.519,292.867s-4.577-11.605-5.017-20.077c0,0-6.392,3.678-11.114-3.046,0,0-9.023,4.888-12.277-1.042,0,0-9.05,6.3-11.855-.56,0,0-.924,4.258-3.08,4.115s-4.053-12.208,10.784-18.412,25.656-.433,31.481,3.772,8.63,14.663,7.994,20.1c-.35,3.006-.312,11.027-2.1,14.281C662.889,294.636,659.519,292.867,659.519,292.867Z" transform="translate(-600.363 -235.365)" fill="#2f1a10"/>
              <path id="Path_20032" data-name="Path 20032" d="M649.115,273.28c.223,3.111-3.4,5.905-8.09,6.244s-8.673-1.913-8.9-5.024,3.4-5.905,8.088-6.244S648.889,270.169,649.115,273.28Z" transform="translate(-578.927 -214.301)" fill="#ff917b"/>
              <g id="Group_14661" data-name="Group 14661" transform="translate(16.366 43.822)">
                <path id="Path_20033" data-name="Path 20033" d="M625.89,269.732c-.292,1.214-1.06,2.071-1.716,1.913s-.955-1.268-.665-2.482,1.06-2.071,1.716-1.915S626.18,268.518,625.89,269.732Z" transform="translate(-606.034 -259.346)" fill="#333"/>
                <path id="Path_20034" data-name="Path 20034" d="M618.831,268.8c-.062,1.247-.661,2.23-1.337,2.2s-1.169-1.071-1.107-2.319.661-2.23,1.337-2.2S618.893,267.554,618.831,268.8Z" transform="translate(-614.675 -260.27)" fill="#333"/>
                <path id="Path_20035" data-name="Path 20035" d="M619.72,267.492a8.823,8.823,0,0,0-.092,6.443" transform="translate(-611.373 -259.023)" fill="none" stroke="#db4242" stroke-linecap="round" stroke-linejoin="round" stroke-width="0.75"/>
                <path id="Path_20036" data-name="Path 20036" d="M624.375,264.109c1.915-.295,5.524.7,6.546,2.348" transform="translate(-604.829 -263.253)" fill="none" stroke="#2f1a10" stroke-linecap="round" stroke-linejoin="round" stroke-width="0.75"/>
                <path id="Path_20037" data-name="Path 20037" d="M615.617,265.308a5.394,5.394,0,0,1,5.867-1.234" transform="translate(-615.617 -263.697)" fill="none" stroke="#2f1a10" stroke-linecap="round" stroke-linejoin="round" stroke-width="0.75"/>
                <path id="Path_20038" data-name="Path 20038" d="M619.613,275.6s8.108,2.591,12.991-4.164" transform="translate(-610.695 -254.165)" fill="none" stroke="#db4242" stroke-linecap="round" stroke-linejoin="round" stroke-width="0.75"/>
              </g>
            </g>
          </g>
        </g>
        <g id="Group_14665" data-name="Group 14665" transform="translate(108.526 149.633)">
          <path id="Path_20039" data-name="Path 20039" d="M684.781,364.3c-20.717,37.09-97.2,39.949-97.2,39.949,4.727-.857,9.358-4.135,13.683-8.653,11.989-12.522,21.633-34.572,24.547-41.567,6.557-15.8,20.05-13.665,39.757-15.8,15.058-1.638,26.875-16.6,31.619-23.576,1.469-2.154,2.25-3.544,2.25-3.544S705.5,327.213,684.781,364.3Z" transform="translate(-587.581 -311.109)" fill="#907b31"/>
          <path id="Path_20040" data-name="Path 20040" d="M689.635,312.7c-2.058,7.72-11.665,23.023-26.931,26.567-21.633,5.013-33.735,3.363-37.891,9.632-3.64,5.508-14.444,35.635-31.1,44.745,11.989-12.522,21.633-34.572,24.547-41.567,6.557-15.8,20.05-13.665,39.757-15.8C673.073,334.635,684.891,319.674,689.635,312.7Z" transform="translate(-580.029 -309.153)" fill="#a39d4f"/>
        </g>
      </g>
    </g>
    <g id="Group_14668" data-name="Group 14668" transform="translate(972.36 279.063)">
      <path id="Path_20041" data-name="Path 20041" d="M709.05,239.431a48.189,48.189,0,1,1-32.021-45.115L660.871,239.7l47.867-5.463A50.893,50.893,0,0,1,709.05,239.431Z" transform="translate(-612.691 -185.781)" fill="#f9ab4e"/>
      <path id="Path_20042" data-name="Path 20042" d="M685.97,228.874,638.1,234.34l16.156-45.39A48.19,48.19,0,0,1,685.97,228.874Z" transform="translate(-581.389 -188.95)" fill="#ef8425"/>
    </g>
    <g id="Group_14690" data-name="Group 14690" transform="translate(422.353 469.323)">
      <path id="Path_20043" data-name="Path 20043" d="M501.577,358.733c15.6-10.315,30.044-22.733,48.329-27.9,54.3-15.35,97.341,37.3,126.655,74.507,17.649,22.4,39.422,52.337,31.285,82.645-20.316,75.679-141.409,67.482-199.051,54.149-41.966-9.708-100.938-30.655-118.214-74.519-10.2-25.906,3.537-53.5,23.67-70.209,21.2-17.6,47.816-18.39,71.564-29.589A126.723,126.723,0,0,0,501.577,358.733Z" transform="translate(-340.525 -207.814)" fill="#b5ddd4"/>
      <g id="Group_14684" data-name="Group 14684">
        <path id="Path_20044" data-name="Path 20044" d="M509.644,395.833c-1.02-1.308-20.673-48.525-20.673-48.525s-9.181.491-15.216,16.756-28.821,87.376-28.821,87.376l22.057,13.745,13.7-5.666Z" transform="translate(-269.32 -184.15)" fill="#ef8425"/>
        <path id="Path_20045" data-name="Path 20045" d="M594.018,470.387H481.284s-16.091-32.59-18.495-61.369c-1.665-19.829,0-55.968,4.957-58.689,2.145-1.183,8.8-3.292,15.665-5.475.205,11.634,11.487,30.111,26.763,34.753,13.835,4.2,39.23-18.365,50.346-28.982,10.246,6.677,20.345,13.484,22.324,16.868C585.99,372.913,594.018,470.387,594.018,470.387Z" transform="translate(-248.096 -187.171)" fill="#f79429"/>
        <g id="Group_14669" data-name="Group 14669" transform="translate(235.316 120.821)">
          <path id="Path_20046" data-name="Path 20046" d="M548.795,370.971c-11.116,10.616-36.512,33.182-50.346,28.982-15.276-4.642-26.558-23.119-26.763-34.753,7.177-2.33,14.576-4.734,17.294-6.251H489c.647-.35,1.015-.665,1.053-.924.333-2.274-3.736-21.954-3.736-21.954l33.235-7.733a66.681,66.681,0,0,0,2.053,14.04c1.685,6.454,4.736,13.538,10.3,17.421C536.4,362.944,542.617,366.939,548.795,370.971Z" transform="translate(-471.685 -328.338)" fill="#ff917b"/>
          <path id="Path_20047" data-name="Path 20047" d="M481.977,358.025c.332-2.274-3.736-21.954-3.736-21.954l33.235-7.733a66.678,66.678,0,0,0,2.053,14.04C488.378,368.407,481.939,358.284,481.977,358.025Z" transform="translate(-463.609 -328.338)" fill="#f47567"/>
        </g>
        <g id="Group_14674" data-name="Group 14674" transform="translate(194.754)">
          <path id="Path_20048" data-name="Path 20048" d="M483.011,332.07C481.1,337.232,473.035,339,465,336.029s-13-9.574-11.083-14.736,9.974-6.934,18.008-3.957S484.924,326.907,483.011,332.07Z" transform="translate(-453.51 -222.849)" fill="#f47567"/>
          <path id="Path_20049" data-name="Path 20049" d="M482.321,297.521l-18.539,3.814s-10.817,26.54-3.241,44.312C466.145,358.785,482.321,297.521,482.321,297.521Z" transform="translate(-448.167 -245.476)" fill="#29150f"/>
          <path id="Path_20050" data-name="Path 20050" d="M557.083,354.787A64.965,64.965,0,0,1,552.94,368.2c-10.931,25.487-41.471,41.937-64.165,37.536-26.484-5.142-33.956-36.7-27.574-69.571a74.163,74.163,0,0,1,4.678-15.2c10.413-24.266,32.682-39.3,54.821-34.994C547.169,291.105,563.463,321.919,557.083,354.787Z" transform="translate(-446.68 -260.617)" fill="#ff917b"/>
          <g id="Group_14670" data-name="Group 14670" transform="translate(73.332)">
            <path id="Path_20051" data-name="Path 20051" d="M496.607,298.571s7.485-10.108,15.6-8.845,15.419,10.949,15.419,10.949S515,294.25,508.119,295.147c0,0,11.652,3.984,13.756,15.076C521.875,310.223,510.785,299.272,496.607,298.571Z" transform="translate(-473.757 -255.212)" fill="#190b09"/>
            <path id="Path_20052" data-name="Path 20052" d="M522.466,308.74c-7.481,12.266-20.488,17.975-29.051,12.75s-9.445-19.4-1.964-31.667,16.761-20.166,29.053-12.75C533.634,285,529.947,296.476,522.466,308.74Z" transform="translate(-486.368 -274.201)" fill="#190b09"/>
          </g>
          <g id="Group_14671" data-name="Group 14671" transform="translate(12.489 20.585)">
            <path id="Path_20053" data-name="Path 20053" d="M560.406,357.1a112.431,112.431,0,0,1-4.921,14.112c-5.068,3.718-14.759,4.586-14.759,4.586,0-.924-7.769-43.057-7.972-44.167,0,1.386-36.9-10.875-66.937-8.454-.315-.221-.609-.444-.906-.647a16.042,16.042,0,0,1-4.16-4.624v-.018c-9.063-15.591,20.789-38.471,53.9-33.865.594.074,1.165.165,1.759.277,1.183.2,2.366.426,3.551.7,13.353,3.051,23.416,8.784,30.444,16.35C563.53,315.431,566.213,335.832,560.406,357.1Z" transform="translate(-459.106 -283.425)" fill="#29150f"/>
            <path id="Path_20054" data-name="Path 20054" d="M550.4,301.356c-22.583-9.746-71.245-23.842-89.648,16.535-9.063-15.591,20.789-38.471,53.9-33.865.594.074,1.165.165,1.759.277,1.183.2,2.366.426,3.551.7C533.308,288.056,543.371,293.79,550.4,301.356Z" transform="translate(-459.106 -283.425)" fill="#44331c"/>
          </g>
          <g id="Group_14673" data-name="Group 14673" transform="translate(20.447 70.821)">
            <path id="Path_20055" data-name="Path 20055" d="M483.5,322.689c0,2.413-.884,4.367-1.973,4.367s-1.973-1.955-1.973-4.367.884-4.368,1.973-4.368S483.5,320.278,483.5,322.689Z" transform="translate(-441.871 -290.676)" fill="#333"/>
            <path id="Path_20056" data-name="Path 20056" d="M467.279,321.18c0,2.41-.884,4.368-1.975,4.368s-1.973-1.957-1.973-4.368.884-4.368,1.973-4.368S467.279,318.767,467.279,321.18Z" transform="translate(-461.86 -292.535)" fill="#333"/>
            <g id="Group_14672" data-name="Group 14672">
              <path id="Path_20057" data-name="Path 20057" d="M470.769,319.033a23.3,23.3,0,0,0-.975,13.174" transform="translate(-454.553 -289.799)" fill="none" stroke="#db4242" stroke-linecap="round" stroke-linejoin="round" stroke-width="0.75"/>
              <path id="Path_20058" data-name="Path 20058" d="M480.259,309.93a15,15,0,0,1,11.69,3.16" transform="translate(-441.009 -301.228)" fill="none" stroke="#29150f" stroke-linecap="round" stroke-linejoin="round" stroke-width="1"/>
              <path id="Path_20059" data-name="Path 20059" d="M462.672,306.215a13.716,13.716,0,0,1,11.386,2.792" transform="translate(-462.672 -305.934)" fill="none" stroke="#29150f" stroke-linecap="round" stroke-linejoin="round" stroke-width="1"/>
              <path id="Path_20060" data-name="Path 20060" d="M472.752,332.8a24.178,24.178,0,0,0,18.528-4.56" transform="translate(-450.256 -278.456)" fill="none" stroke="#db4242" stroke-linecap="round" stroke-linejoin="round" stroke-width="0.75"/>
            </g>
          </g>
          <path id="Path_20061" data-name="Path 20061" d="M524.714,327.53c1.04,5.405-4.935,11.1-13.348,12.719s-16.075-1.451-17.115-6.858,4.937-11.1,13.348-12.719S523.674,322.122,524.714,327.53Z" transform="translate(-403.472 -217.492)" fill="#ff917b"/>
        </g>
        <g id="Group_14678" data-name="Group 14678" transform="translate(220.201 173.796)">
          <path id="Path_20062" data-name="Path 20062" d="M526.935,352.082a23.744,23.744,0,0,1,17.856,7.744c5.026,5.388,13.415,15.448,26.134,33.735,23.545,33.845,32.008,51.136,24.65,60.7s-93.513,7.231-93.513,7.231L494.291,438.4l43.307-8.742s-23.105-34.958-26-49.362C509.186,368.271,511.331,352.5,526.935,352.082Z" transform="translate(-428.725 -352.075)" fill="#fca338"/>
          <g id="Group_14677" data-name="Group 14677" transform="translate(0 63.761)">
            <path id="Path_20063" data-name="Path 20063" d="M538.845,426.08s-6.456,2.923-19.515,1.442c-13.076-1.5-16.164-10.264-16.164-10.264s-9.228,2.294-11.837-1.036a4.027,4.027,0,0,1-.147-4.718,4.239,4.239,0,0,1-1.629.538,5.283,5.283,0,0,1-4.216-1.406c-2.942-2.515-.3-6.657-.074-7.01h-.018a5,5,0,0,1-1.759.332,4.439,4.439,0,0,1-4.086-2.866c-2.091-4.254,8.952-10.063,9.84-10.525-1.091.315-18.626,5.492-20.421,5.733-1.83.223-5.474.149-3.162-4.124,2.294-4.254,21.048-14.167,36.233-10.875,15.167,3.312,28.6,21.9,28.6,21.9Z" transform="translate(-464.912 -380.644)" fill="#ff917b"/>
            <g id="Group_14676" data-name="Group 14676" transform="translate(18.574 9.207)">
              <g id="Group_14675" data-name="Group 14675">
                <path id="Path_20064" data-name="Path 20064" d="M474.994,398.545h.018c5.4-6.03,11.688-9.822,19.642-12.6a.6.6,0,0,0-.315-1.165c-8.287,1.647-16.183,7.177-21.1,14.094Z" transform="translate(-473.235 -384.77)" fill="#f47567"/>
                <path id="Path_20065" data-name="Path 20065" d="M495.005,389.537c-7.289,3.125-13.263,6.843-17.812,13a3.887,3.887,0,0,1,.388-.723,4.237,4.237,0,0,1-1.629.538c4.144-6.66,10.913-12.373,18.626-13.835C495.153,388.408,495.615,389.258,495.005,389.537Z" transform="translate(-469.887 -380.163)" fill="#f47567"/>
              </g>
            </g>
          </g>
        </g>
        <g id="Group_14683" data-name="Group 14683" transform="translate(0 170.934)">
          <rect id="Rectangle_1016" data-name="Rectangle 1016" width="374.651" height="14.394" transform="translate(16.392 110.101)" fill="#d68149"/>
          <g id="Group_14682" data-name="Group 14682">
            <g id="Group_14680" data-name="Group 14680" transform="translate(39.191 98.768)">
              <rect id="Rectangle_1017" data-name="Rectangle 1017" width="226.689" height="11.333" fill="#3d313b"/>
              <rect id="Rectangle_1018" data-name="Rectangle 1018" width="72.05" height="11.333" transform="translate(154.639)" fill="#4f414d"/>
              <g id="Group_14679" data-name="Group 14679" transform="translate(162.414 3.364)">
                <rect id="Rectangle_1019" data-name="Rectangle 1019" width="17.979" height="4.606" transform="translate(7.439)" fill="#3d313b"/>
                <rect id="Rectangle_1020" data-name="Rectangle 1020" width="17.979" height="4.606" transform="translate(38.719)" fill="#3d313b"/>
                <path id="Path_20066" data-name="Path 20066" d="M460.921,398.718a2.174,2.174,0,1,1-2.171-2.049A2.113,2.113,0,0,1,460.921,398.718Z" transform="translate(-456.58 -396.414)" fill="#3d313b"/>
              </g>
            </g>
            <g id="Group_14681" data-name="Group 14681">
              <path id="Path_20067" data-name="Path 20067" d="M560.075,448.212l-6.184,4.759H389.035l-22.79-95.785,5.978-6.394H541.155Z" transform="translate(-366.246 -350.792)" fill="#5f505e"/>
              <path id="Path_20068" data-name="Path 20068" d="M553.891,449.442H389.035l-22.79-95.785H534.267Z" transform="translate(-366.246 -347.263)" fill="#4f414d"/>
              <path id="Path_20069" data-name="Path 20069" d="M450.367,379.815c0,5.321-11.639,9.634-25.993,9.634s-26-4.314-26-9.634,11.639-9.637,26-9.637S450.367,374.492,450.367,379.815Z" transform="translate(-326.666 -326.913)" fill="#5f505e"/>
            </g>
          </g>
        </g>
      </g>
      <g id="Group_14689" data-name="Group 14689" transform="translate(330.421 10.529)">
        <g id="Group_14686" data-name="Group 14686" transform="translate(0 46.464)">
          <path id="Path_20070" data-name="Path 20070" d="M541.467,331.716c-1.375,4.055-8.338,5.358-15.553,2.912s-11.951-7.715-10.576-11.77,8.338-5.356,15.553-2.91S542.84,327.663,541.467,331.716Z" transform="translate(-513.313 -276.364)" fill="#3f3744"/>
          <path id="Path_20071" data-name="Path 20071" d="M564.046,313.487l-6.433,13.936L556.7,329.4l-1.748,3.781-.914,1.977-1.748,3.781-.914,1.977-1.748,3.781-.895,1.983-1.748,3.781-.914,1.977-1.566,3.376L514.3,345.572l.73-3.66.436-2.139.812-4.1.437-2.139.812-4.1.436-2.139.812-4.1.436-2.139.832-4.091.417-2.145,3.029-15.09Z" transform="translate(-514.299 -299.738)" fill="#5f5260"/>
          <g id="Group_14685" data-name="Group 14685" transform="translate(0.73 15.09)">
            <path id="Path_20072" data-name="Path 20072" d="M554.443,319.095l-.914,1.976-36.656-12.426.416-2.145Z" transform="translate(-511.86 -306.5)" fill="#3f3744"/>
            <path id="Path_20073" data-name="Path 20073" d="M516.741,309.294l35.74,12.116-.914,1.977L516.3,311.433Z" transform="translate(-512.559 -303.058)" fill="#3f3744"/>
            <path id="Path_20074" data-name="Path 20074" d="M550.508,323.725l-.914,1.977-33.849-11.474.436-2.139Z" transform="translate(-513.249 -299.616)" fill="#3f3744"/>
            <path id="Path_20075" data-name="Path 20075" d="M548.535,326.04l-.894,1.983-32.455-11,.437-2.139Z" transform="translate(-513.938 -296.174)" fill="#3f3744"/>
            <path id="Path_20076" data-name="Path 20076" d="M546.582,328.362l-.914,1.977-31.041-10.523.436-2.139Z" transform="translate(-514.626 -292.732)" fill="#3f3744"/>
          </g>
        </g>
        <g id="Group_14688" data-name="Group 14688" transform="translate(0.844)">
          <path id="Path_20077" data-name="Path 20077" d="M583.448,325.644c-5.582,16.466-21.429,22.748-37.882,19.481-.692-.123-1.395-.275-2.091-.444-1.328-.339-2.662-.725-4-1.176a46.867,46.867,0,0,1-5.553-2.283c-.669-.315-1.308-.665-1.944-1.013-13.743-7.59-20.88-21.441-15.513-37.271a35.362,35.362,0,0,1,66.98,22.706Z" transform="translate(-514.677 -278.919)" fill="#f9ab4e"/>
          <g id="Group_14687" data-name="Group 14687" transform="translate(14.298 24.584)">
            <path id="Path_20078" data-name="Path 20078" d="M560.555,307.612c-1.919,5.787-9.893,11.7-18.72,13.9l-4.16,10.045c-.692-.123-1.395-.275-2.091-.444l4.731-11.4.531-.129c8.215-1.9,16-7.452,17.709-12.623a5.925,5.925,0,0,0-1.178-6.017,5.437,5.437,0,0,0-4-1.955c-5.961-.288-13.652,6.939-13.719,7.005l-1.569,1.489-.2-2.156c-.011-.094-.96-9.8-5.546-12.581a5.582,5.582,0,0,0-5.3-.087,5.712,5.712,0,0,0-3.444,3.606c-2.18,6.631,4.787,18.294,4.861,18.408l.21.359-2.636,12.625c-.669-.315-1.308-.665-1.944-1.013l2.352-11.257c-1.234-2.127-7.115-12.868-4.841-19.778a7.719,7.719,0,0,1,4.633-4.89,7.6,7.6,0,0,1,7.2.243c4.1,2.455,5.7,8.9,6.273,12.206,2.716-2.254,8.59-6.546,13.779-6.274a7.475,7.475,0,0,1,5.479,2.7A8.006,8.006,0,0,1,560.555,307.612Z" transform="translate(-521.084 -289.934)" fill="#ffe19f"/>
          </g>
          <path id="Path_20079" data-name="Path 20079" d="M520.647,291.91a20.79,20.79,0,0,1,6.59-6.361c5.28-3.272,15.734-8.168,28.2-3.258,14.022,5.519-3.857.591-17.318,4.069C526.015,289.484,515.316,300.2,520.647,291.91Z" transform="translate(-509.056 -277.327)" fill="#fcd772"/>
        </g>
      </g>
    </g>
    <g id="Group_14721" data-name="Group 14721" transform="translate(456.537 115.792)">
      <g id="Group_14719" data-name="Group 14719" transform="translate(88.33)">
        <path id="Path_20080" data-name="Path 20080" d="M694.757,115.832a142.24,142.24,0,0,0-53.98,12.056c-25.29,11.188-39.576,36.746-55.513,58.1-13.478,18.057-29.45,35.739-50.775,43.015-20.222,6.9-42.81,3.56-63.107,10.237-37.572,12.357-56.919,58.26-48.15,96.827s39.638,69.024,74.608,87.505c72.758,38.453,165.537,30.872,235.625-12.255,38.824-23.889,71.858-58.7,88.469-101.152,31.972-81.709-9.708-176.724-100.372-192.374A138.144,138.144,0,0,0,694.757,115.832Z" transform="translate(-421.141 -115.792)" fill="#b5ddd4"/>
        <g id="Group_14718" data-name="Group 14718" transform="translate(2.163 32.552)">
          <g id="Group_14694" data-name="Group 14694" transform="translate(21.474 31.621)">
            <g id="Group_14692" data-name="Group 14692">
              <rect id="Rectangle_1021" data-name="Rectangle 1021" width="375.065" height="239.449" fill="#f0fcf7"/>
              <rect id="Rectangle_1022" data-name="Rectangle 1022" width="375.065" height="20.292" fill="#61ad82"/>
              <g id="Group_14691" data-name="Group 14691" transform="translate(308.011 5.67)">
                <path id="Path_20081" data-name="Path 20081" d="M578.7,151.564a4.476,4.476,0,1,1-4.477-4.477A4.476,4.476,0,0,1,578.7,151.564Z" transform="translate(-569.745 -147.087)" fill="#f0fcf7"/>
                <path id="Path_20082" data-name="Path 20082" d="M588.472,151.564A4.476,4.476,0,1,1,584,147.087,4.476,4.476,0,0,1,588.472,151.564Z" transform="translate(-557.703 -147.087)" fill="#f0fcf7"/>
                <path id="Path_20083" data-name="Path 20083" d="M598.2,151.564a4.476,4.476,0,1,1-4.475-4.477A4.476,4.476,0,0,1,598.2,151.564Z" transform="translate(-545.716 -147.087)" fill="#f0fcf7"/>
              </g>
            </g>
            <g id="Group_14693" data-name="Group 14693" transform="translate(21.094 38.639)">
              <rect id="Rectangle_1023" data-name="Rectangle 1023" width="15.547" height="183.469" transform="translate(313.583 17.009)" fill="#cce5d6"/>
              <rect id="Rectangle_1024" data-name="Rectangle 1024" width="15.547" height="131.916" transform="translate(266.936 68.562)" fill="#cce5d6"/>
              <rect id="Rectangle_1025" data-name="Rectangle 1025" width="15.547" height="156.494" transform="translate(104.016 43.983)" fill="#cce5d6"/>
              <rect id="Rectangle_1026" data-name="Rectangle 1026" width="15.547" height="156.494" transform="translate(0 45.029)" fill="#cce5d6"/>
              <rect id="Rectangle_1027" data-name="Rectangle 1027" width="15.547" height="200.477" transform="translate(53.655)" fill="#cce5d6"/>
            </g>
          </g>
          <g id="Group_14717" data-name="Group 14717">
            <g id="Group_14716" data-name="Group 14716" clip-path="url(#clip-path)">
              <g id="Group_14715" data-name="Group 14715" transform="translate(31.051 15.907)">
                <path id="Path_20084" data-name="Path 20084" d="M638.644,253.121c-.946,5.887-10.248,7.595-17.662,16.062-7.432,8.449,9.358,10.23,10.393,16.845,1.036,6.595-.2,15.68-11.556,19.8-11.34,4.124-109.316,19.207-119.382,2.926s2.325-27.747,6.722-31.381c4.4-3.653-16.789-5.834-16.716-17.734.071-9.632,20.059-11.248,17.115-16.627-2.924-5.379-18.352-3.926-17.115-11.5,1.216-7.577,25.4-11.1,25.819-15.845.2-2.417-1.361-10.721-2.18-20.914v-.036c-.781-9.8,1.707-24.795,4.6-34.407,0-.018,10.65-10.021,21.862-12.837a146.912,146.912,0,0,1,30.182-3.8L604.429,165.9l3.542-9.813a.544.544,0,0,1,.038.163.335.335,0,0,1,.053.219c.219,1.018.817,3.834,1.473,7.595,1.634,9.686,3.615,25.748.308,33.836-4.943,12.047,13.846,14.172,19.061,18.461,5.233,4.287.745,11.755-8.4,17.533C611.37,239.693,640.642,240.818,638.644,253.121Z" transform="translate(-369.078 -129.902)" fill="#2d1b0f"/>
                <path id="Path_20085" data-name="Path 20085" d="M602.442,232.838l-23.9-29.1-59.65-4.3L497.873,316.377l95.9.757Z" transform="translate(-359.84 -61.214)" fill="#5f5260"/>
                <g id="Group_14701" data-name="Group 14701" transform="translate(138.033)">
                  <g id="Group_14695" data-name="Group 14695" transform="translate(21.009 88.967)">
                    <path id="Path_20086" data-name="Path 20086" d="M570.558,233.663s-36.869,45.881-43.5,45.881-19.769-52.913-19.769-52.913,7.068-.527,11.666-5.979c1.58-1.872,2.689-4.961,3.47-8.577,2.453-11.411,1.562-28.091,1.562-28.091l37.706-6.615c-.692,0-6.124,16.1-5.417,31.345C556.747,219.4,560.253,229.684,570.558,233.663Z" transform="translate(-507.287 -177.369)" fill="#ff917b"/>
                    <path id="Path_20087" data-name="Path 20087" d="M547.92,208.714c-10.175,2.888-23.53,5.524-33.851,3.361,2.453-11.411,1.562-28.091,1.562-28.091l37.706-6.615C552.645,177.369,547.213,193.469,547.92,208.714Z" transform="translate(-498.933 -177.369)" fill="#f47567"/>
                  </g>
                  <g id="Group_14700" data-name="Group 14700">
                    <path id="Path_20088" data-name="Path 20088" d="M561.946,171.924c.814,4.316-4.115,8.869-11.009,10.17s-13.143-1.145-13.957-5.461,4.115-8.871,11.009-10.17S561.134,167.608,561.946,171.924Z" transform="translate(-449.811 -102.267)" fill="#f47567"/>
                    <path id="Path_20089" data-name="Path 20089" d="M523,176.39c-.732,4.332-6.932,6.894-13.85,5.727s-11.933-5.629-11.2-9.958,6.932-6.9,13.85-5.727S523.728,172.058,523,176.39Z" transform="translate(-497.873 -102.223)" fill="#f47567"/>
                    <g id="Group_14696" data-name="Group 14696" transform="translate(14.821 12.737)">
                      <path id="Path_20090" data-name="Path 20090" d="M588.253,194.892c-1.667,27.094-20.557,50.621-45.443,50.621-23.663,0-39.438-28.642-37.77-55.736s21.644-47.909,44.622-46.5S589.918,167.8,588.253,194.892Z" transform="translate(-504.016 -143.213)" fill="#ff917b"/>
                      <path id="Path_20091" data-name="Path 20091" d="M587.1,190.658l-10.326-10.746s-29.015,2.845-42.761-17.062c0,0-3.546,13.5-23.311,23.463l-5.128,7.345s-8.057-41.388,20.264-47.474,59.354,5.45,63.507,23.737S587.1,190.658,587.1,190.658Z" transform="translate(-504.514 -141.57)" fill="#f47567"/>
                    </g>
                    <g id="Group_14697" data-name="Group 14697" transform="translate(8.349)">
                      <path id="Path_20092" data-name="Path 20092" d="M590.868,207.611,584.543,185.5s-34.106.545-47.751-24.02c0,0-12.556,25.656-25.112,31.671l-3.636,16.372c-.8-.31-3.689-7.778-5.015-17.772a68.572,68.572,0,0,1,.163-20.369.106.106,0,0,1,.02-.074c2.27-12.991,9.556-25.511,27.31-30.508,20.224-5.7,41.265-4.305,54.094,6.651a33.239,33.239,0,0,1,10.449,16.245.534.534,0,0,1,.036.163.335.335,0,0,1,.053.219,40.356,40.356,0,0,1,1.473,7.595C597.646,181.337,596.01,193.239,590.868,207.611Z" transform="translate(-500.709 -137.505)" fill="#2d1b0f"/>
                      <path id="Path_20093" data-name="Path 20093" d="M585.522,147.447c-14.281-2.453-38.25-4-56.984,7.633-11.029,6.831-20.242,18.225-24.6,36.668a95.691,95.691,0,0,0-1.852,10.576c-.781-9.8-.873-21.333,2.015-30.946a.106.106,0,0,1,.02-.074c2.27-12.991,9.556-25.511,27.31-30.508C551.652,135.092,572.694,136.491,585.522,147.447Z" transform="translate(-501.614 -137.505)" fill="#44331c"/>
                    </g>
                    <g id="Group_14699" data-name="Group 14699" transform="translate(28.339 51.328)">
                      <path id="Path_20094" data-name="Path 20094" d="M533.987,171.489c0,2.323-.942,4.207-2.1,4.207s-2.1-1.884-2.1-4.207.942-4.207,2.1-4.207S533.987,169.166,533.987,171.489Z" transform="translate(-486.912 -152.155)" fill="#333"/>
                      <path id="Path_20095" data-name="Path 20095" d="M517.726,170.321c0,2.323-.942,4.207-2.1,4.207s-2.1-1.884-2.1-4.207.942-4.207,2.1-4.207S517.726,168,517.726,170.321Z" transform="translate(-506.94 -153.594)" fill="#333"/>
                      <path id="Path_20096" data-name="Path 20096" d="M540.013,176.6c-.574.23-20.851,2.9-20.851,2.9s2.709,10.764,11.159,9.8S540.013,176.6,540.013,176.6Z" transform="translate(-499.989 -140.675)" fill="#fff"/>
                      <g id="Group_14698" data-name="Group 14698">
                        <path id="Path_20097" data-name="Path 20097" d="M521.52,167.95a87.452,87.452,0,0,0,.275,13.846" transform="translate(-497.274 -151.333)" fill="none" stroke="#db4242" stroke-linecap="round" stroke-linejoin="round" stroke-width="0.75"/>
                        <path id="Path_20098" data-name="Path 20098" d="M529.673,161.656a8.311,8.311,0,0,1,8.885,1.806" transform="translate(-487.042 -159.808)" fill="none" stroke="#2d1b0f" stroke-linecap="round" stroke-linejoin="round" stroke-width="1"/>
                        <path id="Path_20099" data-name="Path 20099" d="M510.571,163.026a9.552,9.552,0,0,1,10.786-1.484" transform="translate(-510.571 -160.504)" fill="none" stroke="#2d1b0f" stroke-linecap="round" stroke-linejoin="round" stroke-width="1"/>
                      </g>
                    </g>
                  </g>
                </g>
                <g id="Group_14702" data-name="Group 14702" transform="translate(72.894 136.358)">
                  <path id="Path_20100" data-name="Path 20100" d="M559.012,198.6s-12.429,71.881-16.607,118.8l-37.141.707-36.579.708s37.686-97.613,49.661-107.442a28.447,28.447,0,0,1,3.87-2.618C535.554,201.217,559.012,198.6,559.012,198.6Z" transform="translate(-468.686 -198.604)" fill="#f3dfc3"/>
                  <path id="Path_20101" data-name="Path 20101" d="M518.347,205.772a28.449,28.449,0,0,1,3.87-2.618c-3.343,8.4-7.014,20.224-8.376,31.055-1.837,14.719-6.414,57.874-8.577,78.3l-36.579.707S506.372,215.6,518.347,205.772Z" transform="translate(-468.686 -192.999)" fill="#e5cdb7"/>
                </g>
                <g id="Group_14710" data-name="Group 14710" transform="translate(0 108.454)">
                  <g id="Group_14707" data-name="Group 14707">
                    <g id="Group_14705" data-name="Group 14705" transform="translate(3.341)">
                      <g id="Group_14703" data-name="Group 14703">
                        <path id="Path_20102" data-name="Path 20102" d="M480.212,223.311s-17.073-30.129-36.344-37.21l4.535,19.677Z" transform="translate(-429.703 -186.101)" fill="#bcb3a6"/>
                        <path id="Path_20103" data-name="Path 20103" d="M488.03,220.088s-18.6-29.265-40.866-31.37l-9.643,11.563,42.25,33.49,5.878-3.794Z" transform="translate(-437.521 -182.877)" fill="#dbd8cc"/>
                      </g>
                      <g id="Group_14704" data-name="Group 14704" transform="translate(48.128 6.583)">
                        <path id="Path_20104" data-name="Path 20104" d="M483.793,189.051l6.1,19.433-3.052,7.064-1.934-11.357Z" transform="translate(-428.653 -189.051)" fill="#dbd8cc"/>
                        <path id="Path_20105" data-name="Path 20105" d="M459.086,229.566l2.381-9.889s21.456-26.482,52.759-30.627l1.716,16.961Z" transform="translate(-459.086 -189.05)" fill="#f2f1e7"/>
                      </g>
                    </g>
                    <path id="Path_20106" data-name="Path 20106" d="M487.493,224.348s-23.866-31.606-51.469-31.053l30.089,81.43s18.365,1.114,42.167,24.71Z" transform="translate(-436.024 -177.249)" fill="#927a35"/>
                    <g id="Group_14706" data-name="Group 14706" transform="translate(51.469 18.606)">
                      <path id="Path_20107" data-name="Path 20107" d="M479.873,298.019c-1.654,1.576-20.787-75.088-20.787-75.088s20.095-22.13,61.244-28.493l16.544,82.723S498.115,280.624,479.873,298.019Z" transform="translate(-459.086 -194.438)" fill="#b99a4c"/>
                      <path id="Path_20108" data-name="Path 20108" d="M465.965,218.188c10.592-9.929,22.434-16.187,36.19-16.819l4.852,21.967c-13.33,1.591-24.277,8.949-34.148,17.156Z" transform="translate(-450.613 -185.901)" fill="#ddd083"/>
                    </g>
                  </g>
                  <g id="Group_14709" data-name="Group 14709" transform="translate(32.497 71.126)">
                    <path id="Path_20109" data-name="Path 20109" d="M462.681,268.425s-5.457-32.044,26.562-25.52l1.455,11.8Z" transform="translate(-436.121 -188.337)" fill="#d1ad93"/>
                    <g id="Group_14708" data-name="Group 14708">
                      <path id="Path_20110" data-name="Path 20110" d="M491.91,297.708l-9.233-14.754-1.672-2.654c-6.015-7.541-33.015-44.191-30.218-50.768,2.781-6.579,18.771,18.461,18.771,18.461s-9.92-27.6-5.887-29.91c4.035-2.325,17.716,32.236,17.716,32.236s-3.015-27.366,0-28.292,4.87,5.088,4.87,5.088,1.437-2.87,4.089-2.471c2.636.382,7.633,27.529,7.633,27.529s5,5.7,5.633,17.062c.072,1.053.091,2.163.072,3.307h.02s5.2,13.846,5.832,14.464C510.153,287.64,491.91,297.708,491.91,297.708Z" transform="translate(-450.585 -217.971)" fill="#ff917b"/>
                      <path id="Path_20111" data-name="Path 20111" d="M474.2,269.414l-9.233-14.754c9-.219,16.718-8.322,20.934-13.719.072,1.053.092,2.163.072,3.307h.02s5.2,13.846,5.832,14.464C492.44,259.346,474.2,269.414,474.2,269.414Z" transform="translate(-432.873 -189.677)" fill="#f47567"/>
                      <path id="Path_20112" data-name="Path 20112" d="M467.321,222.149a127.875,127.875,0,0,0,3.452,25.257.585.585,0,0,1-1.127.308,92.983,92.983,0,0,1-3.29-26.257Z" transform="translate(-431.211 -213.676)" fill="#f47567"/>
                    </g>
                    <path id="Path_20113" data-name="Path 20113" d="M489.048,242.078s-7.519,15.939-26.562,26.286l13.281,13.324,34.271-17.071Z" transform="translate(-435.926 -188.276)" fill="#f3dfc3"/>
                  </g>
                </g>
                <g id="Group_14711" data-name="Group 14711" transform="translate(209.13 142.533)">
                  <path id="Path_20114" data-name="Path 20114" d="M616.626,314h-40.9l-46,1.672s.373-90.081,9.565-114.3c0,0,23.313,11.212,36.724,21.387,4.124,3.109,7.3,6.142,8.595,8.722C590.1,242.42,616.626,314,616.626,314Z" transform="translate(-529.73 -201.371)" fill="#f3dfc3"/>
                  <path id="Path_20115" data-name="Path 20115" d="M595.986,302.2H548.773c-3.488-27.4-2.971-79.85,1.446-87.481,1.453-2.544,3.252-3.615,5.16-3.763,4.124,3.109,7.3,6.142,8.594,8.722C569.462,230.616,595.986,302.2,595.986,302.2Z" transform="translate(-509.09 -189.567)" fill="#e5cdb7"/>
                </g>
                <g id="Group_14714" data-name="Group 14714" transform="translate(265.87 80.796)">
                  <path id="Path_20116" data-name="Path 20116" d="M587.917,267.463s3.544-17.577-5.113-23.143-12.214,10.2-12.214,10.2l7.577,10.978Z" transform="translate(-536.14 -88.196)" fill="#d1ad93"/>
                  <g id="Group_14713" data-name="Group 14713" transform="translate(27.763)">
                    <path id="Path_20117" data-name="Path 20117" d="M572.418,262.945c.275-.473,3.31-18.126,12.23-24.5s20.2-22.07,22.5-21.436S596.6,257.6,596.6,257.6Z" transform="translate(-561.652 -120.395)" fill="#d84848"/>
                    <path id="Path_20118" data-name="Path 20118" d="M575.821,308.685s87.595-135.669,90.368-134.975-84.715,138.211-84.715,138.211Z" transform="translate(-557.46 -173.708)" fill="#2d1b0f"/>
                    <g id="Group_14712" data-name="Group 14712" transform="translate(0 82.971)">
                      <path id="Path_20119" data-name="Path 20119" d="M630.536,257.138c-1.509,8.505-40.667,35.306-40.667,35.306l-.743.835-9.94,11.121-11.592-21.568,6.521-8.124-.255-.29a18.767,18.767,0,0,1,1.908-4.669c6.233-10.831,21.043-10.195,21.043-10.195s-4.979-19.751-2.345-22.713c1.745-1.982,4.526.58,4.78.817-.236-.328-3.109-4.524.6-6.615,3.47-1.944,12.446,20.316,13.047,21.769-.346-1.506-5.923-26.547-2.107-32.215,3.961-5.852,10.029,25.293,10.029,25.293s1.527-33.124,5.47-34.943C630.246,209.113,632.063,248.617,630.536,257.138Z" transform="translate(-567.594 -210.885)" fill="#ff917b"/>
                      <path id="Path_20120" data-name="Path 20120" d="M589.126,260.791l-9.94,11.121-11.592-21.568,6.521-8.124-.255-.29a18.767,18.767,0,0,1,1.908-4.669C577.358,244.753,581.078,255.794,589.126,260.791Z" transform="translate(-567.594 -178.397)" fill="#d84848"/>
                      <path id="Path_20121" data-name="Path 20121" d="M582.542,223.387l.02.018c4.924,7.014,7.341,15.154,9.684,23.44a.639.639,0,0,1-1.234.328c-2.328-8.632-4.908-17.372-9.976-24.8Z" transform="translate(-551.037 -196.74)" fill="#d84848"/>
                    </g>
                  </g>
                  <path id="Path_20122" data-name="Path 20122" d="M555.154,267.471c1.071-.029,35.1-29.421,35.1-29.421s2.729,32.178,16.674,35.793L592.09,285.055Z" transform="translate(-555.154 -94.453)" fill="#f3dfc3"/>
                </g>
              </g>
            </g>
          </g>
        </g>
      </g>
      <g id="Group_14720" data-name="Group 14720" transform="translate(0 117.987)">
        <path id="Path_20123" data-name="Path 20123" d="M466.94,254.953,452.216,220.9l-19.241,11.243-12.732-37.985L403,219.853l-17.621-46.269" transform="translate(-376.865 -162.592)" fill="none" stroke="#fca338" stroke-miterlimit="10" stroke-width="2"/>
        <path id="Path_20124" data-name="Path 20124" d="M385.812,168.659c-.187,1.355-4.249,24.188-4.249,24.188L406.4,182.389Z" transform="translate(-381.563 -168.659)" fill="#fca338"/>
      </g>
    </g>
  </g>
</svg>
