<svg xmlns="http://www.w3.org/2000/svg" width="13" height="12.676" viewBox="0 0 13 12.676">
  <g id="time_table" data-name="time table" transform="translate(-10 -22.2)">
    <path id="Path_21217" data-name="Path 21217" d="M10,34.876V23.826h1.625v-.975a.649.649,0,0,1,.65-.65h1.3a.649.649,0,0,1,.65.65v.975h4.55V22.85a.649.649,0,0,1,.65-.65h1.3a.649.649,0,0,1,.65.65v.975H23v11.05H10Zm.975-.975h11.05V26.426H10.975Zm.65-2.275h1.95v1.625h-1.95Zm2.6,0h1.95v1.625h-1.95Zm2.6,0h1.95v1.625h-1.95Zm2.6,0h1.95v1.625h-1.95Zm-7.8-2.276h1.95v1.625h-1.95Zm2.6,0h1.95v1.625h-1.95Zm2.6,0h1.95v1.625h-1.95Zm2.6,0h1.95v1.625h-1.95Zm-5.2-2.274h1.95V28.7h-1.95Zm2.6,0h1.95V28.7h-1.95Zm2.6,0h1.95V28.7h-1.95Zm.487-4.225a.487.487,0,0,0-.487.488v.975a.488.488,0,0,0,.487.488h.325a.487.487,0,0,0,.487-.488v-.976a.488.488,0,0,0-.487-.488h-.325Zm-7.149,0a.487.487,0,0,0-.487.488v.975a.488.488,0,0,0,.487.488h.325a.489.489,0,0,0,.488-.488v-.976a.489.489,0,0,0-.488-.488h-.325Z" fill="#2d7567"/>
  </g>
</svg>
