<svg xmlns="http://www.w3.org/2000/svg" width="803.809" height="543.793" viewBox="0 0 803.809 543.793">
  <g id="Vice-Principal" transform="translate(-37.533 -52.95)">
    <g id="Group_19097" data-name="Group 19097" transform="translate(37.533 52.95)">
      <path id="Path_21095" data-name="Path 21095" d="M639.935,259.732c-.052-.225-.115-.438-.165-.667C615.607,148.676,433.285,171.49,433.285,171.49c-46.814,4.447-81.581,15.377-107.357,28.69C285.221,221.2,258.4,259.7,253.173,302.962c-3.058,25.317-15.6,63.241-55.957,76.941C118.6,406.589,146.2,467.544,153.9,488.894c6.712,18.595,44.633,40.595-10.6,88.707s5.78,130.5,5.78,130.5l490.847.73Z" transform="translate(-120.175 -169.539)" fill="#b5ddd4"/>
      <path id="Path_21096" data-name="Path 21096" d="M2541.943,915.692V1222.3l26.9.04C2588.167,1222.38,2613.273,1009.594,2541.943,915.692Z" transform="translate(-1785.582 -682.655)" fill="#b5ddd4"/>
    </g>
    <g id="Group_19107" data-name="Group 19107" transform="translate(528.432 64.197)">
      <g id="Group_19098" data-name="Group 19098" transform="translate(28.86 1.228)" opacity="0.5">
        <rect id="Rectangle_1194" data-name="Rectangle 1194" width="236.601" height="530.478" transform="translate(236.601 530.478) rotate(180)" fill="#9bc1f9"/>
        <path id="Path_21097" data-name="Path 21097" d="M2031.223,234.212V753.995l-218.184,1.1-1.605-520.881Z" transform="translate(-1802.984 -226.49)" fill="#c5ddf9"/>
        <path id="Path_21098" data-name="Path 21098" d="M1966.624,753.317h-26.1l-86.806-519.1h26.1Z" transform="translate(-1832.061 -226.49)" fill="#fff" style="mix-blend-mode: soft-light;isolation: isolate"/>
        <path id="Path_21099" data-name="Path 21099" d="M2103.361,234.212h53.8L2231.976,677.6v71.055h-41.809Z" transform="translate(-2003.737 -226.49)" fill="#fff" style="mix-blend-mode: soft-light;isolation: isolate"/>
      </g>
      <g id="Group_19101" data-name="Group 19101" transform="translate(0 1.769)">
        <g id="Group_19099" data-name="Group 19099">
          <path id="Path_21100" data-name="Path 21100" d="M1714.694,215.879c-.252.35-.632.838-1.187,1.511l-.022.029c.022.08,7.047,25.521,1.514,27.453-5.074,1.772-5.5-16.881-3.444-24.7a38.467,38.467,0,0,0-2.965,5.469,47.234,47.234,0,0,0-3.045,12.153c1.031,1.69,7.332,12.3,4.177,14.489-2.56,1.772-4.237-5.207-4.7-9.817-.37,4.167-.53,8.573-.548,12.946,3.41.836,13.7,3.792,13.9,9.075.217,5.9-8.633,4.162-13.9-6.787.029,4.349.188,8.616.409,12.534,2.452,2.211,12.529,11.716,10.9,17.209-1.645,5.563-7.967-.809-10.634-12.96.5,6.958,1.124,12.241,1.4,13.909.092.55.194,1.257.3,2.09h0c.04.3.081.628.123.965h0s15.665,21.108,11.179,25.967c-3.18,3.445-7.941-10.656-10.443-19.156.866,9.024,1.626,20.794.9,24.424l-.057-.011c.554,8.137.934,22.933-3.55,23.68-6.2,1.033,0-15.5,0-15.5s-7.567,3.02-8.267,0c-1.173-5.056,9.427-12.176,11.136-13.287-.02-4.494-.428-10.864-.939-16.648-.57,12.4-3.669,16.091-4.876,16.5-1.5.506-4.574-2.529-3.518-12.116a22.547,22.547,0,0,1,7.376-14.044c-.136-1.058-.268-1.97-.388-2.693-.267-1.6-.853-6.506-1.337-13.031-1.212,10.2-4.08,18.543-6.666,13.375-2.521-5.038,4.062-14.676,6.372-17.806-.267-4.549-.456-9.605-.456-14.74-1.924,5.041-10.358,14.521-11.41,9.1-1.035-5.334,9.435-10.885,11.429-11.889.06-4.4.272-8.788.7-12.91-2.341,4.156-9.482,12.67-10.33,8.074-.967-5.248,11.005-13.3,11.005-13.3l.017.02a43.9,43.9,0,0,1,2.776-10.219,39.142,39.142,0,0,1,2.8-5.235c-4.426,3-11.2,5.672-10.924,2.54.3-3.4,10.711-6.149,14.032-6.941.114-.163.19-.232.238-.23,1.19-1.464,2.443-2.846,3.72-4.146h1.452A59.194,59.194,0,0,0,1714.694,215.879Z" transform="translate(-1691.97 -211.215)" fill="#327f6b"/>
          <path id="Path_21101" data-name="Path 21101" d="M1788.849,224.731c-3.3,1.862-2.1-7.434-1-13.516h3.229C1791.678,216.3,1791.82,223.056,1788.849,224.731Z" transform="translate(-1757.114 -211.215)" fill="#327f6b"/>
        </g>
        <g id="Group_19100" data-name="Group 19100" transform="translate(21.114)">
          <path id="Path_21102" data-name="Path 21102" d="M1775.642,224.208c-4.39-.614-.444-7.242,5.743-12.993h6.48C1784.6,217.2,1779.629,224.766,1775.642,224.208Z" transform="translate(-1769.34 -211.215)" fill="#327f6b"/>
          <path id="Path_21103" data-name="Path 21103" d="M1835.941,211.215h6.642c3.406,4.248,5.98,9.479,3.664,14.17C1842.979,232.008,1838.572,220.118,1835.941,211.215Z" transform="translate(-1812.09 -211.215)" fill="#327f6b"/>
          <path id="Path_21104" data-name="Path 21104" d="M1779.362,211.215h1.1c-.282,1.966-.589,4.147-.908,6.507,2.659,5.245,16.237,32.925,9.766,38.863-7.155,6.567-9.7-27.052-9.7-27.052l-.377-9.469c-1.083,8.167-2.28,18.125-3.223,28.4,2.462,2.027,12.639,10.961,8.4,16.84-3.94,5.468-7.422-9.651-8.545-15.259-.6,6.8-1.091,13.709-1.352,20.3,2.6,1.208,13.566,6.662,10.558,11.424-2.913,4.611-8.965-5.623-10.654-8.679-.122,4.042-.151,7.938-.063,11.588,2.839,1.335,15.548,7.553,12.409,10.518-3.529,3.332-10.782-5.59-10.782-5.59s5.685,22.84-.5,20.39-2.052-21.759-2.248-22.249l.106-.622c-.12-3-.152-6.193-.111-9.517-1.147,2.94-3.364,7.837-4.7,5.728-1.571-2.481,3.225-7.542,4.764-9.065.117-4.53.355-9.255.676-14.031-2.232,5.637-6.9,13.78-9.263,9.961-2.656-4.283,7.326-15.361,9.883-18.085.595-7.017,1.327-13.967,2.081-20.392-3.138,8.213-13.364,25.589-16.668,19.658-3.44-6.175,14.286-25.52,17.865-29.327C1778.406,218.012,1778.913,214.344,1779.362,211.215Z" transform="translate(-1759.573 -211.215)" fill="#3c8f7c"/>
        </g>
        <path id="Path_21105" data-name="Path 21105" d="M1900.051,218.552c-2.68,7.15-7.977,19.208-13.176,19.068-7.012-.189,3-15.832,13.323-23.124.02-.506.038-.977.056-1.42a38.983,38.983,0,0,1,4.971,1.212c5.885,4.1,15.853,12.669,12.793,21.151-3.608,10-13.138-13.792-15.99-21.363-.139,3.543-.318,8.759-.458,15.052,4.206,6.449,21.75,34.34,15.449,41.58-7.138,8.2-14.186-28.884-14.186-28.884l-1.342-8.765c-.16,8.936-.22,19.568.009,30.482,3.438,2.279,15.014,10.632,11.159,17.487-3.514,6.249-8.9-8.229-11.1-14.921.185,7.359.507,14.794,1.024,21.876,3.512,1.2,15.542,5.783,12.875,11.285-2.545,5.251-9.975-4.216-12.605-7.852.367,4.384.815,8.6,1.358,12.54,3.851,1.325,17.844,6.454,14.811,10.042-3.508,4.15-12.7-4.869-12.7-4.869s9.187,24.7,2,22.749c-6.331-1.72-5.394-19.008-5.274-23.447-.591-3.582-1.09-7.452-1.509-11.515-.965,3.427-2.673,8.187-4.294,6.17-1.95-2.429,2.166-8.147,3.9-10.346-.427-4.874-.751-9.967-.992-15.13-1.9,6.49-5.831,15.116-8.8,11.341-3.37-4.28,5.569-17.08,8.446-20.977-.215-7.615-.279-15.183-.255-22.233-2.837,9.919-11.528,28.816-15.783,22.86-4.481-6.27,11.8-28.949,15.9-34.463C1899.762,228.069,1899.911,222.734,1900.051,218.552Z" transform="translate(-1823.329 -212.495)" fill="#3c8f7c"/>
        <path id="Path_21106" data-name="Path 21106" d="M1858.086,229.077c-3.763,4.405-7.651-10.044-9.371-17.606-.058,5.186-.122,12.13-.161,20.171,2.322,2.383,9.516,10.316,8.513,16.192-.974,5.7-6.522-6.179-8.536-10.754-.013,4.2-.019,8.633-.014,13.22,2.908,2.527,9.934,9.38,6.581,14.033-2.714,3.767-5.178-3.7-6.572-9.389.015,5.222.044,10.6.1,16.025,3.515,2.814,13.289,11.516,9.722,18.745-3.166,6.415-7.56-7.134-9.681-14.834.064,5.783.154,11.587.273,17.28,1.929,3.226,8.957,15.586,5.11,18.25-2.08,1.44-3.709-1.59-4.781-5.519.166,5.309.365,10.415.6,15.194,2.564,1.7,13.155,9.078,11.924,14.386-.769,3.315-9.074,0-9.074,0s6.805,18.148,0,17.014c-4.825-.8-4.519-16.43-3.932-25.458q-.152-2.49-.286-5.128c-1.006,3.78-2.713,6.517-4.644,4.2-3.4-4.066,2.892-13.715,4.156-15.565-.178-4.969-.324-10.155-.443-15.452-2.611,5.084-12.543,17.224-13.682,11.047-1.095-5.937,10.625-14.655,13.565-16.737-.1-5.272-.171-10.612-.224-15.918-1.885,4.018-8.32,16.885-13.121,16.213-5.569-.78,4.281-12.683,13.112-17.125-.05-5.2-.081-10.368-.1-15.4-.018.132-.036.262-.057.4-.53,3.411-6.463,16.287-9.106,12.024s9.106-16.267,9.106-16.267a.718.718,0,0,1,.048.107c-.01-4.857-.005-9.559.007-14.014-1.87,4.723-8.4,15.2-10.5,11.688-1.987-3.337,7.318-13.25,10.513-16.5.028-6.447.072-12.253.118-17.1-2.217,4.856-8.94,18.224-10.995,13.38-2.189-5.162,8.547-15.089,11.034-17.295,0-.476.01-.937.015-1.387h5.336C1856.6,217.054,1861.2,225.427,1858.086,229.077Z" transform="translate(-1788.599 -211.215)" fill="#327f6b"/>
      </g>
      <g id="Group_19104" data-name="Group 19104" transform="translate(197.885 1.769)">
        <g id="Group_19102" data-name="Group 19102" transform="translate(61.805)">
          <path id="Path_21107" data-name="Path 21107" d="M2551.157,215.879c.252.35.632.838,1.188,1.511l.021.029c-.022.08-7.046,25.521-1.514,27.453,5.074,1.772,5.5-16.881,3.444-24.7a38.518,38.518,0,0,1,2.965,5.469,47.24,47.24,0,0,1,3.045,12.153c-1.031,1.69-7.332,12.3-4.177,14.489,2.56,1.772,4.237-5.207,4.7-9.817.37,4.167.531,8.573.548,12.946-3.41.836-13.7,3.792-13.9,9.075-.218,5.9,8.632,4.162,13.9-6.787-.029,4.349-.188,8.616-.409,12.534-2.451,2.211-12.529,11.716-10.9,17.209,1.645,5.563,7.967-.809,10.634-12.96-.5,6.958-1.124,12.241-1.4,13.909-.091.55-.194,1.257-.3,2.09h0c-.04.3-.081.628-.123.965h0s-15.665,21.108-11.179,25.967c3.18,3.445,7.94-10.656,10.442-19.156-.866,9.024-1.626,20.794-.9,24.424l.056-.011c-.554,8.137-.934,22.933,3.55,23.68,6.2,1.033,0-15.5,0-15.5s7.567,3.02,8.268,0c1.173-5.056-9.427-12.176-11.136-13.287.019-4.494.428-10.864.938-16.648.57,12.4,3.669,16.091,4.876,16.5,1.5.506,4.574-2.529,3.519-12.116a22.547,22.547,0,0,0-7.377-14.044c.136-1.058.268-1.97.388-2.693.267-1.6.854-6.506,1.337-13.031,1.212,10.2,4.08,18.543,6.666,13.375,2.521-5.038-4.062-14.676-6.372-17.806.267-4.549.456-9.605.456-14.74,1.923,5.041,10.357,14.521,11.41,9.1,1.035-5.334-9.435-10.885-11.429-11.889-.061-4.4-.272-8.788-.7-12.91,2.341,4.156,9.483,12.67,10.33,8.074.968-5.248-11-13.3-11-13.3l-.018.02a43.868,43.868,0,0,0-2.777-10.219,39.082,39.082,0,0,0-2.8-5.235c4.425,3,11.2,5.672,10.925,2.54-.3-3.4-10.712-6.149-14.033-6.941-.113-.163-.189-.232-.237-.23-1.19-1.464-2.443-2.846-3.72-4.146h-1.452A59.148,59.148,0,0,1,2551.157,215.879Z" transform="translate(-2539.566 -211.215)" fill="#327f6b"/>
          <path id="Path_21108" data-name="Path 21108" d="M2526.044,224.731c3.3,1.862,2.094-7.434,1-13.516h-3.229C2523.215,216.3,2523.073,223.056,2526.044,224.731Z" transform="translate(-2523.465 -211.215)" fill="#327f6b"/>
        </g>
        <g id="Group_19103" data-name="Group 19103" transform="translate(39.962)">
          <path id="Path_21109" data-name="Path 21109" d="M2518.645,224.208c4.39-.614.444-7.242-5.743-12.993h-6.48C2509.689,217.2,2514.657,224.766,2518.645,224.208Z" transform="translate(-2489.902 -211.215)" fill="#327f6b"/>
          <path id="Path_21110" data-name="Path 21110" d="M2464.72,211.215h-6.642c-3.406,4.248-5.979,9.479-3.665,14.17C2457.683,232.008,2462.089,220.118,2464.72,211.215Z" transform="translate(-2453.528 -211.215)" fill="#327f6b"/>
          <path id="Path_21111" data-name="Path 21111" d="M2476.639,211.215h-1.1c.282,1.966.588,4.147.908,6.507-2.659,5.245-16.236,32.925-9.766,38.863,7.155,6.567,9.7-27.052,9.7-27.052l.377-9.469c1.083,8.167,2.28,18.125,3.223,28.4-2.461,2.027-12.639,10.961-8.4,16.84,3.94,5.468,7.422-9.651,8.545-15.259.6,6.8,1.09,13.709,1.351,20.3-2.6,1.208-13.566,6.662-10.558,11.424,2.913,4.611,8.966-5.623,10.654-8.679.122,4.042.152,7.938.064,11.588-2.84,1.335-15.549,7.553-12.409,10.518,3.528,3.332,10.781-5.59,10.781-5.59s-5.684,22.84.5,20.39,2.052-21.759,2.249-22.249l-.106-.622c.12-3,.152-6.193.111-9.517,1.148,2.94,3.364,7.837,4.7,5.728,1.571-2.481-3.226-7.542-4.764-9.065-.117-4.53-.354-9.255-.677-14.031,2.232,5.637,6.9,13.78,9.263,9.961,2.656-4.283-7.326-15.361-9.884-18.085-.594-7.017-1.326-13.967-2.08-20.392,3.139,8.213,13.365,25.589,16.668,19.658,3.441-6.175-14.286-25.52-17.865-29.327C2477.595,218.012,2477.088,214.344,2476.639,211.215Z" transform="translate(-2461.384 -211.215)" fill="#3c8f7c"/>
        </g>
        <path id="Path_21112" data-name="Path 21112" d="M2344.971,218.552c2.68,7.15,7.977,19.208,13.176,19.068,7.013-.189-3-15.832-13.322-23.124-.02-.506-.039-.977-.056-1.42a39.014,39.014,0,0,0-4.971,1.212c-5.885,4.1-15.854,12.669-12.792,21.151,3.607,10,13.138-13.792,15.99-21.363.139,3.543.318,8.759.458,15.052-4.206,6.449-21.75,34.34-15.449,41.58,7.138,8.2,14.186-28.884,14.186-28.884l1.342-8.765c.16,8.936.22,19.568-.009,30.482-3.439,2.279-15.014,10.632-11.159,17.487,3.514,6.249,8.9-8.229,11.1-14.921-.185,7.359-.508,14.794-1.025,21.876-3.512,1.2-15.541,5.783-12.874,11.285,2.545,5.251,9.975-4.216,12.606-7.852-.367,4.384-.815,8.6-1.359,12.54-3.85,1.325-17.844,6.454-14.811,10.042,3.509,4.15,12.7-4.869,12.7-4.869s-9.187,24.7-2,22.749c6.331-1.72,5.394-19.008,5.274-23.447.591-3.582,1.09-7.452,1.509-11.515.965,3.427,2.673,8.187,4.294,6.17,1.951-2.429-2.165-8.147-3.9-10.346.427-4.874.751-9.967.993-15.13,1.9,6.49,5.831,15.116,8.8,11.341,3.371-4.28-5.569-17.08-8.446-20.977.215-7.615.279-15.183.255-22.233,2.838,9.919,11.528,28.816,15.784,22.86,4.48-6.27-11.8-28.949-15.9-34.463C2345.26,228.069,2345.111,222.734,2344.971,218.552Z" transform="translate(-2325.573 -212.495)" fill="#3c8f7c"/>
        <path id="Path_21113" data-name="Path 21113" d="M2402.473,229.077c3.763,4.405,7.651-10.044,9.371-17.606.058,5.186.122,12.13.161,20.171-2.323,2.383-9.517,10.316-8.514,16.192.974,5.7,6.523-6.179,8.536-10.754.014,4.2.02,8.633.015,13.22-2.908,2.527-9.934,9.38-6.582,14.033,2.714,3.767,5.179-3.7,6.573-9.389-.015,5.222-.045,10.6-.1,16.025-3.515,2.814-13.289,11.516-9.721,18.745,3.166,6.415,7.559-7.134,9.681-14.834-.064,5.783-.153,11.587-.273,17.28-1.928,3.226-8.957,15.586-5.109,18.25,2.08,1.44,3.709-1.59,4.781-5.519-.166,5.309-.365,10.415-.6,15.194-2.564,1.7-13.156,9.078-11.925,14.386.769,3.315,9.074,0,9.074,0s-6.806,18.148,0,17.014c4.825-.8,4.519-16.43,3.931-25.458q.151-2.49.286-5.128c1.006,3.78,2.712,6.517,4.644,4.2,3.4-4.066-2.893-13.715-4.156-15.565.178-4.969.324-10.155.442-15.452,2.611,5.084,12.543,17.224,13.682,11.047,1.095-5.937-10.625-14.655-13.566-16.737.1-5.272.171-10.612.225-15.918,1.885,4.018,8.32,16.885,13.121,16.213,5.569-.78-4.281-12.683-13.112-17.125.05-5.2.081-10.368.1-15.4.019.132.036.262.058.4.529,3.411,6.463,16.287,9.106,12.024s-9.106-16.267-9.106-16.267a.636.636,0,0,0-.048.107c.009-4.857.005-9.559-.007-14.014,1.869,4.723,8.4,15.2,10.5,11.688,1.987-3.337-7.318-13.25-10.513-16.5-.028-6.447-.072-12.253-.118-17.1,2.217,4.856,8.939,18.224,10.994,13.38,2.19-5.162-8.546-15.089-11.034-17.295,0-.476-.01-.937-.015-1.387h-5.336C2403.96,217.054,2399.354,225.427,2402.473,229.077Z" transform="translate(-2375.84 -211.215)" fill="#327f6b"/>
      </g>
      <path id="Path_21114" data-name="Path 21114" d="M1801,205.552h-92.408V210.2h285v-4.648Z" transform="translate(-1703.401 -205.552)" fill="#13375b"/>
      <g id="Group_19106" data-name="Group 19106" transform="translate(101.719 4.648)">
        <g id="Group_19105" data-name="Group 19105" transform="translate(6.481)">
          <path id="Path_21115" data-name="Path 21115" d="M2038.412,292.765h.75V221.889a56.387,56.387,0,0,0,25.023,9.775,68.258,68.258,0,0,0,23.476-1.13,85.81,85.81,0,0,0,23.236-8.715v28.973h.75v-30.3l-.571.351a83.384,83.384,0,0,1-23.595,8.96c-12.635,2.717-31.3,3.37-48.475-8.946l-.593-.425Z" transform="translate(-2038.412 -220.435)" fill="#184655"/>
        </g>
        <path id="Path_21116" data-name="Path 21116" d="M2256.6,301.209h0a6.855,6.855,0,0,1,6.855,6.855v14.623h-13.71V308.064A6.855,6.855,0,0,1,2256.6,301.209Z" transform="translate(-2177.264 -275.982)" fill="#f47458"/>
        <path id="Path_21117" data-name="Path 21117" d="M2024.517,443.464h0a6.855,6.855,0,0,1,6.855,6.855v14.623h-13.71V450.319A6.855,6.855,0,0,1,2024.517,443.464Z" transform="translate(-2017.662 -373.808)" fill="#f47458"/>
      </g>
    </g>
    <g id="Group_19110" data-name="Group 19110" transform="translate(548.276 248.616)">
      <path id="Path_21118" data-name="Path 21118" d="M1993.518,827.394c6.921-2.966,14.668-5.972,21.764-3.453,4.469,1.587,7.909,5.141,11.175,8.579,3.581,3.77,7.386,8.059,7.474,13.258a19.017,19.017,0,0,1-1.225,6.191,35.854,35.854,0,0,1-5.389,11.043c-4.109,5.259-10.421,8.377-16.848,10.172-5.688,1.588-7.1,1.028-13,.773-3.983-.172-10.3-6.5-12.882-9.536-4.109-4.821-3.752-25.718.584-30.986a22.7,22.7,0,0,1,4.612-4,36.957,36.957,0,0,1,3.663-2.213Z" transform="translate(-1911.059 -814.578)" fill="#13375b"/>
      <path id="Path_21119" data-name="Path 21119" d="M1766.5,1102.368c-.5-1.463,6.6-2.617,6.985-4.093s-8.962-1.624-9.292-2.923c-.608-2.393,10.245-.467,10.035-1.586s-11.3-3.655-10.1-5.569,11.229,3.831,11.538,2.53-9.8-4.5-9.609-7.357c.1-1.525,16.584,7.666,18.5,6.843s-2.032-8.006-.5-9.065,5.85,14.592,6.9,15.118,23.315,13.335,31.246,15.388c.973-2.655,7.949-16.728,8.809-19.239,4.443,3.185,9.606,3.9,14.193,6.8-3.359,8.335-14.873,28.843-17.2,29.883-7.076,3.167-34.319-19.589-39.76-23.486s-8.573-2.653-12.26-3.892S1767.006,1103.831,1766.5,1102.368Z" transform="translate(-1761.375 -992.067)" fill="#f48c7f"/>
      <g id="Group_19108" data-name="Group 19108" transform="translate(127.882 119.022)">
        <path id="Path_21120" data-name="Path 21120" d="M2167.474,1278.691l-2.505-2.1c9.177-10.741,14.222-31.21,14.592-59.194a292.887,292.887,0,0,0-2.3-39.813l3.251-.453a296.233,296.233,0,0,1,2.334,40.266,174.373,174.373,0,0,1-3.307,33.522C2176.972,1262.98,2172.914,1272.325,2167.474,1278.691Z" transform="translate(-2164.969 -1177.128)" fill="#13375b"/>
      </g>
      <path id="Path_21121" data-name="Path 21121" d="M2124.934,1056.936c1.533,0,60.515-3.441,61.537,4.224s3.066,67.453-7.154,69.5-59.788-7.154-59.788-7.154Z" transform="translate(-2005.839 -974.922)" fill="#f47458"/>
      <path id="Path_21122" data-name="Path 21122" d="M1975.517,1088.89s15.062-10.907,19.615-18.719-3.1-2.726-10.919-4.782c-2.961-.778-2.212-17.972-7.808-12.383-9.183,9.169-16.683,27.379-16.683,27.379Z" transform="translate(-1895.941 -971.984)" fill="#466eb6"/>
      <path id="Path_21123" data-name="Path 21123" d="M2013.934,1028.438s15.88-3.107,23.127,2.893-1.552,59.343-1.545,68.186,4.976,33.827,4.976,33.827-48.131,8.348-55.776-4.926c0,0-2.176-50.576-1.852-56.936s7.46-32.37,9.433-35.156S2013.934,1028.438,2013.934,1028.438Z" transform="translate(-1911.833 -955.302)" fill="#86b1f2"/>
      <path id="Path_21124" data-name="Path 21124" d="M2050.928,951.482s.084.47.234,1.271c.72,3.841,3.494,16.583,5.367,20.085,2.264,4.233-7.752,17.735-17.393,16.087-2.87-.491,2.426-12.405,2.171-13.667-.487-2.416-1.148-5.712-1.824-9.091-.381-1.906-.767-3.839-1.13-5.656-1.031-5.163-1.872-9.385-1.872-9.385Z" transform="translate(-1948.729 -902.689)" fill="#f7a491"/>
      <path id="Path_21125" data-name="Path 21125" d="M2051.162,952.753c-.15-.8-.234-1.271-.234-1.271l-14.446-.356s.842,4.223,1.872,9.385c.361,1.806.745,3.728,1.124,5.624a13.586,13.586,0,0,0,6.9-3.42,18.011,18.011,0,0,0,5.225-7.685C2051.422,954.127,2051.274,953.349,2051.162,952.753Z" transform="translate(-1948.729 -902.689)" fill="#f47458"/>
      <path id="Path_21126" data-name="Path 21126" d="M2020.685,848.2s6.809-.778,11.077,4.681,8.869,22.343-1.734,31.522-21.079-1.211-22.632-12.227S2005.239,847.8,2020.685,848.2Z" transform="translate(-1928.208 -831.883)" fill="#f7a491"/>
      <path id="Path_21127" data-name="Path 21127" d="M2049.166,842.132s9.1,16.055,15.605,16.8,7.362,9.273,7.362,9.273-2.327-19.658-8.769-23.449S2049.166,842.132,2049.166,842.132Z" transform="translate(-1957.451 -827.618)" fill="#13375b"/>
      <path id="Path_21128" data-name="Path 21128" d="M1856.948,1114.745l44.489-10.715s15.734-20.912,30.886-38.943c4.662,4.387,7.344,11.219,12.038,15.562l-33.341,38.1a6.542,6.542,0,0,1-4.769,2.226l-47.366,1.127Z" transform="translate(-1825.266 -981.058)" fill="#f7a491"/>
      <path id="Path_21129" data-name="Path 21129" d="M2050.746,1079.269s21.155-17.253,25.708-25.065,1.176-20.9-6.643-22.954-33.33,33.309-33.33,33.309Z" transform="translate(-1948.729 -957.729)" fill="#466eb6"/>
      <path id="Path_21130" data-name="Path 21130" d="M2028.777,945.234l7.153-.786a3.128,3.128,0,0,1-3,3.146C2029.1,948.126,2028.777,945.234,2028.777,945.234Z" transform="translate(-1943.43 -898.097)" fill="#fff"/>
      <g id="Group_19109" data-name="Group 19109" transform="translate(0 131.429)">
        <path id="Path_21131" data-name="Path 21131" d="M1756.931,1223.56c-.467-.712.7-1.921,1.581-2.827.972-1,6.86-3.526,7.861-3.829s9.582.9,12.866,1.962a11.73,11.73,0,0,0,5.449.628c.861-.175,2.156-.408,3.161-.614l2.059,7.592c-7.711-.1-15.773.472-16.5.454-2.317-.058-6.561-2.461-7.546-2.814a6.973,6.973,0,0,0-4.319.549c-1.341.623-5.244,2.1-5.9,1.758S1756.931,1223.56,1756.931,1223.56Z" transform="translate(-1755.507 -1216.856)" fill="#f7a491"/>
      </g>
      <path id="Path_21132" data-name="Path 21132" d="M2091.741,899.615c-.6,2.837.538,5.485,2.55,5.913s4.132-1.525,4.736-4.362-.538-5.485-2.55-5.912S2092.345,896.778,2091.741,899.615Z" transform="translate(-1986.618 -864.225)" fill="#f7a491"/>
      <path id="Path_21133" data-name="Path 21133" d="M2074.788,801.629a8.791,8.791,0,0,1,2.369-4.37,5.405,5.405,0,0,1,7.155.271,13.878,13.878,0,0,0,2.115,2.267c1.971,1.264,5.008.02,6.683,1.657a7.2,7.2,0,0,1,1.147,1.875c1.211,2.275,3.389,3.933,4.521,6.248a8.134,8.134,0,0,1,.439,5.973,10.068,10.068,0,0,1-4.3,5.272,19.209,19.209,0,0,1-6.468,2.416,7.112,7.112,0,0,1-3.353.1,7.909,7.909,0,0,1-3.067-2.061c-1.423-1.325-2.907-2.747-3.442-4.617a3.814,3.814,0,0,0-.843-1.977c-.961-.83-2.448-.268-3.345-1.309-.66-.765-.5-1.656-.529-2.613A30.006,30.006,0,0,1,2074.788,801.629Z" transform="translate(-1974.425 -796.036)" fill="#13375b"/>
    </g>
    <g id="Group_19111" data-name="Group 19111" transform="translate(451.906 421.478)">
      <path id="Path_21134" data-name="Path 21134" d="M1897.637,1732.052s14.61,17.36,14.706,18.87-.581,18-2.318,19.507-6.842,2.582-5.2,4.281c1.24,1.284,10.781,1.01,17.1.665,1.846-.1,4.161-14.7,4.892-16.84,1.062-3.116,3.644-10.133,2.679-12.3-.47-1.058-2.72-3.233-5.891-5.262-3.335-2.135-16.092-19.725-16.092-19.725Z" transform="translate(-1756.878 -1605.146)" fill="#f48c7f"/>
      <path id="Path_21135" data-name="Path 21135" d="M1934.755,1784.071s-9.81,27.372-13.65,28.693c-1.02.351-5.912,1.241-6.835,3.385a9.187,9.187,0,0,0,0,2.8h20.448s2.586-12.06,3.608-17.359c0,0,5.413-12.947,4.812-14.124S1934.755,1784.071,1934.755,1784.071Z" transform="translate(-1768.231 -1648.352)" fill="#466eb6"/>
      <path id="Path_21136" data-name="Path 21136" d="M1506.1,1764.191s-11.93,16.645-10.881,21.91c.562,2.82,3.065,6.51,1.629,9.164a7.17,7.17,0,0,1-3.077,3.317l-37.216.593c-2.027.032-.688-1.258.947-2.447,2.675-1.945,4.834-3.232,13.381-7.32.557-.266,2.587-1.543,3.318-1.985a25.66,25.66,0,0,0,5.324-4.651c2.672-2.942,14.422-26.919,14.422-26.919Z" transform="translate(-1452.847 -1628.948)" fill="#f7a491"/>
      <path id="Path_21137" data-name="Path 21137" d="M1468.3,1855.113c9.843,2.5,17.118.8,21.188-.823,1.05,2.942,2.441,6.632,1.7,8.761-.9,2.606-2.19,3.195-3.326,3.224-8.99.234-32.931.551-39.786.64a1.107,1.107,0,0,1-.87-1.821C1448.908,1863.086,1467.567,1855.557,1468.3,1855.113Z" transform="translate(-1446.944 -1696.64)" fill="#466eb6"/>
      <path id="Path_21138" data-name="Path 21138" d="M1711.272,1382.075s14.773,16.709,18.541,19.356,39.928,68.631,39.928,68.631l-12.882,9.32s-32.317-39.932-47.494-61.291c-12.833-18.06-8.106-16.915-15.652-27.908a14.59,14.59,0,0,1,2.266-19.145q1.022-.916,2.227-1.913c11.171-9.226,87.74-19.609,87.74-19.609l48.975,4.753s-40.015,27.807-41.508,28.547-55.258,8.51-56.378,8.51S1711.272,1382.075,1711.272,1382.075Z" transform="translate(-1614.869 -1349.516)" fill="#eab054"/>
      <path id="Path_21139" data-name="Path 21139" d="M1746.951,1362.119s8.4,24.974-4.2,36.629-87.46,10.36-112.1,10.36c0,0-10.081,27.379-11.2,31.819s-50.031,61.788-50.031,61.788l-13.441-8.51s52.643-101.377,56.75-105.817,62.725-22.2,77.286-26.269S1746.951,1362.119,1746.951,1362.119Z" transform="translate(-1521.924 -1356.939)" fill="#f7cc7f"/>
    </g>
    <g id="Group_19112" data-name="Group 19112" transform="translate(443.133 331.3)">
      <path id="Path_21140" data-name="Path 21140" d="M1423.668,1060.78h73.726a4.808,4.808,0,0,1,4.448,2.957l22.7,54.866h40.646a2.048,2.048,0,0,1,2.058,2.038h0a2.048,2.048,0,0,1-2.058,2.038H1449.508a8.08,8.08,0,0,1-7.367-4.725l-22.858-50.459A4.767,4.767,0,0,1,1423.668,1060.78Z" transform="translate(-1418.855 -1060.78)" fill="#184655"/>
      <path id="Path_21141" data-name="Path 21141" d="M1561.134,1151.38a4.051,4.051,0,1,0,3.042-5.243A4.33,4.33,0,0,0,1561.134,1151.38Z" transform="translate(-1516.627 -1119.431)" fill="#fff"/>
    </g>
    <g id="Group_19114" data-name="Group 19114" transform="translate(160.054 281.216)">
      <path id="Path_21142" data-name="Path 21142" d="M857.313,1669.307h-5.618l11.976-104.085h5.618Z" transform="translate(-745.749 -1357.592)" fill="#355389"/>
      <path id="Path_21143" data-name="Path 21143" d="M1046.4,1669.307h5.618l-11.976-104.085h-5.618Z" transform="translate(-871.408 -1357.592)" fill="#355389"/>
      <path id="Path_21144" data-name="Path 21144" d="M552.564,1669.307h-5.618l11.976-104.085h5.618Z" transform="translate(-536.179 -1357.592)" fill="#355389"/>
      <path id="Path_21145" data-name="Path 21145" d="M741.65,1669.307h5.618l-11.976-104.085h-5.618Z" transform="translate(-661.838 -1357.592)" fill="#355389"/>
      <path id="Path_21146" data-name="Path 21146" d="M619.783,1257.447H543.149a18.444,18.444,0,0,1-17.928-16.263l-12.664-123.7a14.415,14.415,0,0,1,14.6-16.263h76.634a18.444,18.444,0,0,1,17.928,16.263l12.664,123.7A14.415,14.415,0,0,1,619.783,1257.447Z" transform="translate(-512.471 -1038.507)" fill="#eab054"/>
      <path id="Path_21147" data-name="Path 21147" d="M687.919,1257.447H611.285a18.444,18.444,0,0,1-17.928-16.263l-12.664-123.7a14.415,14.415,0,0,1,14.6-16.263h76.634a18.444,18.444,0,0,1,17.928,16.263l12.664,123.7A14.415,14.415,0,0,1,687.919,1257.447Z" transform="translate(-559.327 -1038.507)" fill="#f7cc7f"/>
      <path id="Path_21148" data-name="Path 21148" d="M680.745,1552.585H572.124a17.284,17.284,0,0,1-16.8-15.24h0A13.509,13.509,0,0,1,569,1522.1H677.625a17.285,17.285,0,0,1,16.8,15.24h0A13.508,13.508,0,0,1,680.745,1552.585Z" transform="translate(-541.884 -1327.941)" fill="#eab054"/>
      <path id="Path_21149" data-name="Path 21149" d="M767.571,1552.585H658.949a17.284,17.284,0,0,1-16.8-15.24h0a13.508,13.508,0,0,1,13.68-15.24H764.451a17.285,17.285,0,0,1,16.8,15.24h0A13.509,13.509,0,0,1,767.571,1552.585Z" transform="translate(-601.593 -1327.941)" fill="#f7cc7f"/>
      <path id="Path_21150" data-name="Path 21150" d="M937.121,1172.333c.5-1.463-6.6-2.617-6.985-4.093s8.962-1.623,9.291-2.922c.608-2.393-10.245-.467-10.034-1.586s11.3-3.655,10.1-5.57-11.229,3.831-11.538,2.53,9.8-4.5,9.609-7.357c-.1-1.525-16.584,7.665-18.5,6.843s2.032-8.006.5-9.064-5.85,14.592-6.9,15.117-23.315,13.335-31.246,15.388c-.973-2.655-7.949-16.728-8.808-19.239-4.443,3.186-9.607,3.9-14.194,6.8,3.36,8.335,14.873,28.843,17.2,29.883,7.076,3.167,34.32-19.589,39.76-23.486s8.573-2.653,12.26-3.892S936.616,1173.8,937.121,1172.333Z" transform="translate(-750.371 -1072.781)" fill="#f48c7f"/>
      <path id="Path_21151" data-name="Path 21151" d="M708.271,933.6a48.128,48.128,0,0,0-4.4-23.193c-3.059-6.365-10.628-9.978-17.531-9.987-21.918-.028-24.7,28.931-38.657,40.1-4.263,3.413-9.028,6.193-13.063,9.875-14.9,13.592-8.186,38.752,5.492,50.668,9.492,8.269,24.409,12.967,36.108,6.5,6.106-3.374,10.742-8.983,14.045-15.128,4.687-8.722,7.709-18.786,11.042-28.081C704.859,954.46,707.832,944.16,708.271,933.6Z" transform="translate(-590.669 -900.418)" fill="#13375b"/>
      <path id="Path_21152" data-name="Path 21152" d="M814.672,1150.263s-16.369-16.785-20.581-24.076,2.868-2.545,10.1-4.464c2.739-.726,2.046-16.777,7.223-11.559,8.494,8.559,19.174,23.526,19.174,23.526Z" transform="translate(-705.268 -1043.94)" fill="#96d9c9"/>
      <path id="Path_21153" data-name="Path 21153" d="M734.159,1087.227s-14.69-2.9-21.394,2.7,1.436,55.4,1.429,63.651-4.6,31.578-4.6,31.578,44.524,7.793,51.6-4.6c0,0,2.012-47.213,1.712-53.15s-6.9-30.218-8.726-32.818S734.159,1087.227,734.159,1087.227Z" transform="translate(-648.027 -1028.367)" fill="#50bfa5"/>
      <path id="Path_21154" data-name="Path 21154" d="M775.889,1015.39s-.077.439-.216,1.187c-.667,3.586-3.232,15.48-4.966,18.75-2.095,3.951,7.171,16.555,16.089,15.017,2.655-.458-2.244-11.58-2.009-12.758.451-2.256,1.062-5.332,1.687-8.487.353-1.779.71-3.584,1.046-5.28.954-4.819,1.732-8.761,1.732-8.761Z" transform="translate(-689.85 -979.254)" fill="#f7a491"/>
      <path id="Path_21155" data-name="Path 21155" d="M786.373,1016.577c.139-.747.216-1.187.216-1.187l13.364-.332s-.778,3.941-1.732,8.761c-.334,1.687-.689,3.48-1.04,5.25a12.526,12.526,0,0,1-6.381-3.193,16.821,16.821,0,0,1-4.833-7.174C786.132,1017.859,786.269,1017.133,786.373,1016.577Z" transform="translate(-700.549 -979.254)" fill="#f47458"/>
      <path id="Path_21156" data-name="Path 21156" d="M784.5,918.977s-6.3-.726-10.247,4.37-8.2,20.857,1.6,29.426,19.5-1.131,20.936-11.414S798.788,918.606,784.5,918.977Z" transform="translate(-689.465 -913.156)" fill="#f7a491"/>
      <path id="Path_21157" data-name="Path 21157" d="M853.575,977.859c-1.171,2.271-3.136,3.529-4.389,2.809s-1.321-3.145-.15-5.416,3.136-3.529,4.389-2.809S854.745,975.588,853.575,977.859Z" transform="translate(-743.346 -949.809)" fill="#f7a491"/>
      <path id="Path_21158" data-name="Path 21158" d="M772.233,913.311s-8.415,14.987-14.436,15.68-6.81,8.656-6.81,8.656,2.152-18.351,8.112-21.889S772.233,913.311,772.233,913.311Z" transform="translate(-676.494 -909.175)" fill="#13375b"/>
      <path id="Path_21159" data-name="Path 21159" d="M763.982,966.613c.49,2.661-.5,5.1-2.2,5.452s-3.483-1.525-3.972-4.187.495-5.1,2.2-5.452S763.492,963.952,763.982,966.613Z" transform="translate(-681.1 -943.031)" fill="#f7a491"/>
      <g id="Group_19113" data-name="Group 19113" transform="translate(59.026 151.954)">
        <path id="Path_21160" data-name="Path 21160" d="M893.856,1744.054s-13.515,16.2-13.6,17.615.537,16.8,2.145,18.209,6.329,2.409,4.811,4c-1.148,1.2-9.974.943-15.823.621-1.708-.094-3.849-13.719-4.525-15.721-.982-2.909-3.371-9.459-2.478-11.486.435-.988,2.517-3.018,5.45-4.912,3.085-1.993,14.886-18.413,14.886-18.413Z" transform="translate(-813.365 -1625.586)" fill="#f48c7f"/>
        <path id="Path_21161" data-name="Path 21161" d="M865.706,1792.612s9.075,25.552,12.627,26.785c.943.328,5.469,1.158,6.323,3.16a8.665,8.665,0,0,1,0,2.617H865.741s-2.392-11.258-3.338-16.2c0,0-5.007-12.086-4.451-13.184S865.706,1792.612,865.706,1792.612Z" transform="translate(-809.049 -1665.918)" fill="#f7cc7f"/>
        <path id="Path_21162" data-name="Path 21162" d="M1218.388,1774.055s11.037,15.538,10.066,20.454c-.52,2.632-2.835,6.077-1.507,8.554a6.66,6.66,0,0,0,2.847,3.1l34.427.553c1.875.03.636-1.174-.876-2.284-2.475-1.816-4.472-3.017-12.378-6.833-.515-.249-2.393-1.44-3.07-1.853a23.8,23.8,0,0,1-4.925-4.342c-2.472-2.747-13.342-25.128-13.342-25.128Z" transform="translate(-1056.944 -1647.805)" fill="#f7a491"/>
        <path id="Path_21163" data-name="Path 21163" d="M1265.809,1858.93c-9.1,2.332-15.835.747-19.6-.768-.971,2.746-2.258,6.191-1.576,8.178.836,2.433,2.026,2.983,3.077,3.01,8.316.218,30.464.515,36.805.6a1.034,1.034,0,0,0,.8-1.7C1283.747,1866.373,1266.488,1859.344,1265.809,1858.93Z" transform="translate(-1074.861 -1710.996)" fill="#f7cc7f"/>
        <path id="Path_21164" data-name="Path 21164" d="M838.712,1417.349s-13.666,15.6-17.152,18.069-36.936,64.068-36.936,64.068l11.917,8.7s29.9-37.276,43.936-57.215c11.872-16.859,7.5-15.79,14.48-26.052a13.71,13.71,0,0,0-2.1-17.873q-.945-.855-2.06-1.786c-10.334-8.613-81.166-18.305-81.166-18.305l-45.305,4.437s37.016,25.957,38.4,26.648,51.117,7.944,52.154,7.944S838.712,1417.349,838.712,1417.349Z" transform="translate(-717.188 -1386.955)" fill="#13375b"/>
        <path id="Path_21165" data-name="Path 21165" d="M704,1398.72s-7.771,23.313,3.885,34.193,80.907,9.671,103.7,9.671c0,0,9.326,25.558,10.361,29.7s46.282,57.68,46.282,57.68l12.434-7.944s-48.7-94.636-52.5-98.781-58.025-20.723-71.5-24.522S704,1398.72,704,1398.72Z" transform="translate(-701.466 -1393.884)" fill="#355389"/>
      </g>
      <path id="Path_21166" data-name="Path 21166" d="M814.7,1008.518l-8.393-.626a3.679,3.679,0,0,0,3.639,3.584C814.438,1011.942,814.7,1008.518,814.7,1008.518Z" transform="translate(-714.538 -974.326)" fill="#fff"/>
      <path id="Path_21167" data-name="Path 21167" d="M823,1195.056c.505-1.463-6.6-2.617-6.985-4.093s8.962-1.624,9.292-2.922c.608-2.393-10.244-.468-10.035-1.586s11.3-3.656,10.1-5.57-11.229,3.831-11.538,2.53,9.8-4.5,9.61-7.357c-.1-1.525-16.584,7.665-18.5,6.842s2.032-8.006.5-9.065-5.85,14.592-6.9,15.118-23.315,13.335-31.246,15.387c-.973-2.655-7.949-16.728-8.808-19.239-4.443,3.185-9.607,3.9-14.193,6.8,3.359,8.334,14.873,28.843,17.2,29.883,7.076,3.167,34.32-19.589,39.76-23.487s8.574-2.653,12.26-3.892S822.5,1196.518,823,1195.056Z" transform="translate(-671.895 -1088.406)" fill="#f7a491"/>
      <path id="Path_21168" data-name="Path 21168" d="M712.606,1133.875s-9.64-21.371-11.1-29.664,5.651-18.7,13.1-18.033,18.626,37.569,18.626,37.569Z" transform="translate(-642.332 -1028.141)" fill="#96d9c9"/>
    </g>
    <g id="Group_19115" data-name="Group 19115" transform="translate(365.118 393.035)">
      <rect id="Rectangle_1195" data-name="Rectangle 1195" width="224.937" height="196.234" transform="translate(240.768 199.229) rotate(180)" fill="#44a088"/>
      <rect id="Rectangle_1196" data-name="Rectangle 1196" width="129.536" height="193.446" transform="translate(240.58 5.989)" fill="#96d9c9"/>
      <rect id="Rectangle_1197" data-name="Rectangle 1197" width="354.636" height="35.53" transform="translate(370.116 41.519) rotate(180)" fill="#50bfa5" opacity="0.5" style="mix-blend-mode: multiply;isolation: isolate"/>
      <rect id="Rectangle_1198" data-name="Rectangle 1198" width="12.456" height="193.446" transform="translate(240.58 199.435) rotate(180)" fill="#50bfa5" opacity="0.5" style="mix-blend-mode: multiply;isolation: isolate"/>
      <rect id="Rectangle_1199" data-name="Rectangle 1199" width="384.762" height="5.989" transform="translate(384.762 5.989) rotate(180)" fill="#355389"/>
    </g>
    <g id="Group_19116" data-name="Group 19116" transform="translate(632.09 420.657)">
      <path id="Path_21169" data-name="Path 21169" d="M2160.136,1522.741h1.032a60.788,60.788,0,0,1,2.2-11.331c4.5-15.189,2.531-17.155,10.126-26.65s8.157-29.185,8.157-29.185,3.656-22.363,0-32.207-3.938-19.69-12.8-30.1c0,0-1.688,13.923-3.8,20.252s-4.113,12.377-2.549,27.566,2.536,16.455,2.894,20.393-.2,20.538.64,23.278-4.923,21.727-5.344,29.885C2160.568,1517.1,2160.34,1519.89,2160.136,1522.741Z" transform="translate(-2117.577 -1378.785)" fill="#215e4b"/>
      <path id="Path_21170" data-name="Path 21170" d="M2167.413,1675.41a16.456,16.456,0,0,1,8.561-8.756c11.813-5.274,19.783-5.157,25.268-17.815s5.485-29.957,7.384-33.543c0,0-5.063-.844-10.127,8.227s-8.5,15.822-11.422,21.1-7.143,3.8-10.729,7.806c-3.006,3.359-5.781,11.174-6.835,15.14a15.617,15.617,0,0,1-1.5,3.689c-.6,1.055-1.3,2.338-1.723,3.252a5.115,5.115,0,0,0-.278.9Z" transform="translate(-2121.62 -1531.453)" fill="#3c8f7c"/>
      <path id="Path_21171" data-name="Path 21171" d="M2062.924,1430.851c-.844,10.829,6.048,9.985,6.329,16.877s9.282,18.565,13.453,26.862c2.168,4.316,2.969,10.914,3.239,16.253h3.35c-1.3-13.513-6.779-22.92-10.056-30.458-4.22-9.7-4.852-14.135-1.266-21.729s-1.687-27.214,3.418-35.961,2.489-22.476,1.315-27.75.119-8.861,1.174-14.421-1.174-13.637-1.174-13.637c-.19,6.891-5.436,16.314-9.234,22.362s-10.97,22.5-10.126,29.957.422,8.016.422,8.016C2061.1,1417.209,2063.768,1420.022,2062.924,1430.851Z" transform="translate(-2050.467 -1346.888)" fill="#215e4b"/>
      <path id="Path_21172" data-name="Path 21172" d="M2056.429,1666.609c.431,1.293,1.812,4.594,3.076,8.8h2.055c-.935-5.354-2.548-11.568-5.272-15.129-5.485-7.173-16.455-10.267-17.72-15.47s.141-20.815-7.876-29.535c0,0,1.125,9.708,0,12.308s-10.688,14.7-5.063,24.821,18.283,8.86,22.221,11.111S2055.726,1664.5,2056.429,1666.609Z" transform="translate(-2023.869 -1531.453)" fill="#3c8f7c"/>
      <path id="Path_21173" data-name="Path 21173" d="M2100.273,1537.2c-.14,10.408,8.017,14.346,7.876,20.112s1.688,11.955,3.235,16.6c.979,2.938.437,11.117.264,18.794h2.264c.57-5.641,1.195-13.78.988-17.388-.281-4.922,1.969-8.861,2.25-17.439s2.11-16.315-1.688-27.144-3.094-23.769-18.987-35.723c0,0-2.812,12.658-.7,19.549S2100.414,1526.8,2100.273,1537.2Z" transform="translate(-2072.777 -1448.75)" fill="#3c8f7c"/>
      <path id="Path_21174" data-name="Path 21174" d="M2100.273,1537.2c-.14,10.408,8.017,14.346,7.876,20.112s1.688,11.955,3.235,16.6c.979,2.938.437,11.117.264,18.794h.939c.127-1.6.25-2.611.25-2.611l.469-19.409s-.937-15.189-2.625-27.566-14.2-48.109-14.2-48.109-2.812,12.658-.7,19.549S2100.414,1526.8,2100.273,1537.2Z" transform="translate(-2072.777 -1448.75)" fill="#327f6b"/>
      <path id="Path_21175" data-name="Path 21175" d="M2110.417,1779.38h-21.783a2.31,2.31,0,0,0-2.244,2.845l7.941,33.485a2.307,2.307,0,0,0,2.244,1.777h26.167a2.307,2.307,0,0,0,2.244-1.777l7.94-33.485a2.31,2.31,0,0,0-2.244-2.845Z" transform="translate(-2066.819 -1644.305)" fill="#f47458"/>
    </g>
    <g id="Group_19121" data-name="Group 19121" transform="translate(376.431 286.704)">
      <circle id="Ellipse_12" data-name="Ellipse 12" cx="7.012" cy="7.012" r="7.012" transform="translate(55.996 16.41)" fill="#f7cc7f"/>
      <g id="Group_19120" data-name="Group 19120">
        <path id="Rectangle_1200" data-name="Rectangle 1200" d="M1.182,0H1.4A1.181,1.181,0,0,1,2.584,1.181V7.113A1.181,1.181,0,0,1,1.4,8.293H1.181A1.181,1.181,0,0,1,0,7.113V1.182A1.182,1.182,0,0,1,1.182,0Z" transform="translate(45.714 102.623) rotate(180)" fill="#b75742"/>
        <g id="Group_19117" data-name="Group 19117" transform="translate(28.924)">
          <path id="Path_21176" data-name="Path 21176" d="M1299.821,925.1c2.16-2.829,4.582-4.392,7.2-4.646a10.673,10.673,0,0,1,7.288,2.448l1.609-1.813a13.088,13.088,0,0,0-9.13-3.048c-3.317.321-6.309,2.2-8.895,5.588Z" transform="translate(-1297.894 -917.988)" fill="#50bfa5"/>
        </g>
        <path id="Path_21177" data-name="Path 21177" d="M1347.791,919.758l11.046,11.046a1.3,1.3,0,0,1,0,1.839l-4.6,4.6a1.3,1.3,0,0,1-1.839,0L1341.348,926.2a1.3,1.3,0,0,1,0-1.839l4.6-4.6A1.3,1.3,0,0,1,1347.791,919.758Z" transform="translate(-1298.591 -918.943)" fill="#b75742"/>
        <path id="Path_21178" data-name="Path 21178" d="M1379.234,941.62l-23.571,23.571a16.667,16.667,0,0,1,23.571-23.571Z" transform="translate(-1305.339 -930.882)" fill="#f47458"/>
        <g id="Group_19118" data-name="Group 19118" transform="translate(2.721 3.863)">
          <path id="Path_21179" data-name="Path 21179" d="M1213.994,978.508l23.637-48.15,7.377,3.622-23.637,48.15Zm24.794-44.764-21.407,43.608,2.836,1.392,21.407-43.608Z" transform="translate(-1213.994 -930.358)" fill="#b75742"/>
        </g>
        <g id="Group_19119" data-name="Group 19119" transform="translate(1.087 52.418)">
          <path id="Path_21180" data-name="Path 21180" d="M1208.763,1088.478l7.778-2.656,17.333,50.762-7.778,2.656Zm6.2.556-2.989,1.021,15.7,45.973,2.989-1.021Z" transform="translate(-1208.763 -1085.822)" fill="#b75742"/>
        </g>
        <path id="Path_21181" data-name="Path 21181" d="M1362.147,974.706l1.284,1.284a.363.363,0,0,0,.513,0l26.089-26.089a.362.362,0,0,0,0-.513l-1.284-1.284a.363.363,0,0,0-.513,0l-26.089,26.089A.362.362,0,0,0,1362.147,974.706Z" transform="translate(-1313.083 -938.625)" fill="#96d9c9"/>
        <circle id="Ellipse_13" data-name="Ellipse 13" cx="5.993" cy="5.993" r="5.993" transform="translate(0 48.682)" fill="#f47458"/>
        <path id="Rectangle_1201" data-name="Rectangle 1201" d="M0,0H55.732a0,0,0,0,1,0,0V.705a7.5,7.5,0,0,1-7.5,7.5H7.5A7.5,7.5,0,0,1,0,.706V0A0,0,0,0,1,0,0Z" transform="translate(62.466 106.495) rotate(180)" fill="#50bfa5"/>
      </g>
    </g>
    <g id="Group_19126" data-name="Group 19126" transform="translate(329.775 127.835)">
      <ellipse id="Ellipse_14" data-name="Ellipse 14" cx="43.726" cy="43.692" rx="43.726" ry="43.692" fill="#355389"/>
      <ellipse id="Ellipse_15" data-name="Ellipse 15" cx="38.516" cy="38.486" rx="38.516" ry="38.486" transform="translate(5.21 5.206)" fill="#fff"/>
      <g id="Group_19125" data-name="Group 19125" transform="translate(9.068 9.315)">
        <rect id="Rectangle_1202" data-name="Rectangle 1202" width="0.912" height="11.882" transform="translate(0 34.67) rotate(-90)" fill="#c5ddf9"/>
        <rect id="Rectangle_1203" data-name="Rectangle 1203" width="0.912" height="11.881" transform="translate(57.515 34.67) rotate(-90)" fill="#c5ddf9"/>
        <rect id="Rectangle_1204" data-name="Rectangle 1204" width="0.913" height="11.872" transform="translate(34.155)" fill="#c5ddf9"/>
        <rect id="Rectangle_1205" data-name="Rectangle 1205" width="0.913" height="11.872" transform="translate(34.155 57.24)" fill="#c5ddf9"/>
        <path id="Path_21182" data-name="Path 21182" d="M1194.612,546.843a1.073,1.073,0,1,1-1.073-1.072A1.073,1.073,0,0,1,1194.612,546.843Z" transform="translate(-1158.88 -512.467)" fill="#b0c1ec"/>
        <g id="Group_19122" data-name="Group 19122" transform="translate(14.893 14.626)">
          <path id="Path_21183" data-name="Path 21183" d="M1152.381,506.2a.478.478,0,0,1-.339-.141l-19.285-19.27a.48.48,0,0,1,.678-.678l19.285,19.271a.479.479,0,0,1-.339.818Z" transform="translate(-1132.616 -485.969)" fill="#b0c1ec"/>
        </g>
        <g id="Group_19124" data-name="Group 19124" transform="translate(34.433 34.376)">
          <g id="Group_19123" data-name="Group 19123">
            <path id="Path_21184" data-name="Path 21184" d="M1201.607,568.68a.348.348,0,0,1-.175-.2l-6.234-18.815a.349.349,0,0,1,.662-.219l6.234,18.814a.349.349,0,0,1-.488.421Z" transform="translate(-1195.18 -549.205)" fill="#b0c1ec"/>
          </g>
        </g>
      </g>
    </g>
    <rect id="Rectangle_1206" data-name="Rectangle 1206" width="783.549" height="5.808" transform="translate(47.883 590.935)" fill="#13375b"/>
  </g>
</svg>
